solid antena_hole_cap
facet normal 0.0 0.0 -1.0
  outer loop
    vertex 0.5447365420073051 11.32478962380706 -0.020000000000000174
    vertex 0.005004034843641618 7.149095376259576 -0.020000000000000174
    vertex 0.0 9.27247106633192 -0.020000000000000174
  endloop
endfacet
facet normal 0.0 0.0 -1.0
  outer loop
    vertex 0.005004034843641618 7.149095376259576 -0.020000000000000174
    vertex 0.5447365420073051 11.32478962380706 -0.020000000000000174
    vertex 0.5594076298331948 5.09936709782422 -0.020000000000000174
  endloop
endfacet
facet normal 0.0 0.0 -1.0
  outer loop
    vertex 0.5594076298331948 5.09936709782422 -0.020000000000000174
    vertex 0.5447365420073051 11.32478962380706 -0.020000000000000174
    vertex 1.6020907657474657 13.166188930609849 -0.020000000000000174
  endloop
endfacet
facet normal 0.0 0.0 -1.0
  outer loop
    vertex 0.5594076298331948 5.09936709782422 -0.020000000000000174
    vertex 1.6020907657474657 13.166188930609849 -0.020000000000000174
    vertex 1.2400163403825126 9.421268844614241 -0.020000000000000174
  endloop
endfacet
facet normal 0.0 0.0 -1.0
  outer loop
    vertex 0.5594076298331948 5.09936709782422 -0.020000000000000174
    vertex 1.2400163403825126 9.421268844614241 -0.020000000000000174
    vertex 1.1642561441511594 7.613762838326234 -0.020000000000000174
  endloop
endfacet
facet normal 0.0 0.0 -1.0
  outer loop
    vertex 1.1642561441511594 7.613762838326234 -0.020000000000000174
    vertex 1.2400163403825126 9.421268844614241 -0.020000000000000174
    vertex 1.1904419129451582 8.238509561920825 -0.020000000000000174
  endloop
endfacet
facet normal 0.0 0.0 -1.0
  outer loop
    vertex 1.2400163403825126 9.421268844614241 -0.020000000000000174
    vertex 1.6020907657474657 13.166188930609849 -0.020000000000000174
    vertex 1.781012049091639 11.14757739561507 -0.020000000000000174
  endloop
endfacet
facet normal 0.0 0.0 -1.0
  outer loop
    vertex 1.781012049091639 11.14757739561507 -0.020000000000000174
    vertex 1.6020907657474657 13.166188930609849 -0.020000000000000174
    vertex 3.1000057282330493 14.671180667037898 -0.020000000000000174
  endloop
endfacet
facet normal 0.0 0.0 -1.0
  outer loop
    vertex 1.781012049091639 11.14757739561507 -0.020000000000000174
    vertex 3.1000057282330493 14.671180667037898 -0.020000000000000174
    vertex 2.750375306767691 12.675043416437765 -0.020000000000000174
  endloop
endfacet
facet normal 0.0 0.0 -1.0
  outer loop
    vertex 2.750375306767691 12.675043416437765 -0.020000000000000174
    vertex 3.1000057282330493 14.671180667037898 -0.020000000000000174
    vertex 4.08204560934857 13.899572622020214 -0.020000000000000174
  endloop
endfacet
facet normal 0.0 0.0 -1.0
  outer loop
    vertex 4.08204560934857 13.899572622020214 -0.020000000000000174
    vertex 3.1000057282330493 14.671180667037898 -0.020000000000000174
    vertex 4.936401000192189 15.737202133370085 -0.020000000000000174
  endloop
endfacet
facet normal 0.0 0.0 -1.0
  outer loop
    vertex 4.08204560934857 13.899572622020214 -0.020000000000000174
    vertex 4.936401000192189 15.737202133370085 -0.020000000000000174
    vertex 5.685271826402624 14.737715370632179 -0.020000000000000174
  endloop
endfacet
facet normal 0.0 0.0 -1.0
  outer loop
    vertex 5.685271826402624 14.737715370632179 -0.020000000000000174
    vertex 4.936401000192189 15.737202133370085 -0.020000000000000174
    vertex 6.986129278627551 16.291605728359634 -0.020000000000000174
  endloop
endfacet
facet normal 0.0 0.0 -1.0
  outer loop
    vertex 5.685271826402624 14.737715370632179 -0.020000000000000174
    vertex 6.986129278627551 16.291605728359634 -0.020000000000000174
    vertex 7.450796740694203 15.13235361905212 -0.020000000000000174
  endloop
endfacet
facet normal 0.0 0.0 -1.0
  outer loop
    vertex 7.450796740694203 15.13235361905212 -0.020000000000000174
    vertex 6.986129278627551 16.291605728359634 -0.020000000000000174
    vertex 9.109504968699891 16.29660976320328 -0.020000000000000174
  endloop
endfacet
facet normal 0.0 0.0 -1.0
  outer loop
    vertex 7.450796740694203 15.13235361905212 -0.020000000000000174
    vertex 9.109504968699891 16.29660976320328 -0.020000000000000174
    vertex 8.066821832785621 15.106533410600294 -0.020000000000000174
  endloop
endfacet
facet normal 0.0 0.0 -1.0
  outer loop
    vertex 8.066821832785621 15.106533410600294 -0.020000000000000174
    vertex 9.109504968699891 16.29660976320328 -0.020000000000000174
    vertex 9.258302746982215 15.056593422820765 -0.020000000000000174
  endloop
endfacet
facet normal 0.0 0.0 -1.0
  outer loop
    vertex 9.258302746982215 15.056593422820765 -0.020000000000000174
    vertex 9.109504968699891 16.29660976320328 -0.020000000000000174
    vertex 11.161823526175027 15.751873221195973 -0.020000000000000174
  endloop
endfacet
facet normal 0.0 0.0 -1.0
  outer loop
    vertex 9.258302746982215 15.056593422820765 -0.020000000000000174
    vertex 11.161823526175027 15.751873221195973 -0.020000000000000174
    vertex 10.984611297983037 14.515597714111639 -0.020000000000000174
  endloop
endfacet
facet normal 0.0 0.0 -1.0
  outer loop
    vertex 10.984611297983037 14.515597714111639 -0.020000000000000174
    vertex 11.161823526175027 15.751873221195973 -0.020000000000000174
    vertex 12.512077318805733 13.546234456435585 -0.020000000000000174
  endloop
endfacet
facet normal 0.0 0.0 -1.0
  outer loop
    vertex 12.512077318805733 13.546234456435585 -0.020000000000000174
    vertex 11.161823526175027 15.751873221195973 -0.020000000000000174
    vertex 13.003222832977816 14.694518997455814 -0.020000000000000174
  endloop
endfacet
facet normal 0.0 0.0 -1.0
  outer loop
    vertex 12.512077318805733 13.546234456435585 -0.020000000000000174
    vertex 13.003222832977816 14.694518997455814 -0.020000000000000174
    vertex 13.736606524388186 12.214564153854704 -0.020000000000000174
  endloop
endfacet
facet normal 0.0 0.0 -1.0
  outer loop
    vertex 13.736606524388186 12.214564153854704 -0.020000000000000174
    vertex 13.003222832977816 14.694518997455814 -0.020000000000000174
    vertex 14.508214569405867 13.19660403497023 -0.020000000000000174
  endloop
endfacet
facet normal 0.0 0.0 -1.0
  outer loop
    vertex 13.736606524388186 12.214564153854704 -0.020000000000000174
    vertex 14.508214569405867 13.19660403497023 -0.020000000000000174
    vertex 14.574749273000146 10.611337936800654 -0.020000000000000174
  endloop
endfacet
facet normal 0.0 0.0 -1.0
  outer loop
    vertex 14.574749273000146 10.611337936800654 -0.020000000000000174
    vertex 14.508214569405867 13.19660403497023 -0.020000000000000174
    vertex 15.57423603573805 11.360208763011086 -0.020000000000000174
  endloop
endfacet
facet normal 0.0 0.0 -1.0
  outer loop
    vertex 14.574749273000146 10.611337936800654 -0.020000000000000174
    vertex 15.57423603573805 11.360208763011086 -0.020000000000000174
    vertex 14.969387521420087 8.845813022509073 -0.020000000000000174
  endloop
endfacet
facet normal 0.0 0.0 -1.0
  outer loop
    vertex 1.1642561441511594 7.613762838326234 -0.020000000000000174
    vertex 1.6254290961653823 3.262971825865078 -0.020000000000000174
    vertex 0.5594076298331948 5.09936709782422 -0.020000000000000174
  endloop
endfacet
facet normal 0.0 0.0 -1.0
  outer loop
    vertex 1.6254290961653823 3.262971825865078 -0.020000000000000174
    vertex 1.1642561441511594 7.613762838326234 -0.020000000000000174
    vertex 1.5588943925711 5.848237924034656 -0.020000000000000174
  endloop
endfacet
facet normal 0.0 0.0 -1.0
  outer loop
    vertex 1.6254290961653823 3.262971825865078 -0.020000000000000174
    vertex 1.5588943925711 5.848237924034656 -0.020000000000000174
    vertex 2.397037141183061 4.245011706980603 -0.020000000000000174
  endloop
endfacet
facet normal 0.0 0.0 -1.0
  outer loop
    vertex 1.6254290961653823 3.262971825865078 -0.020000000000000174
    vertex 2.397037141183061 4.245011706980603 -0.020000000000000174
    vertex 3.130420832593433 1.7650568633794932 -0.020000000000000174
  endloop
endfacet
facet normal 0.0 0.0 -1.0
  outer loop
    vertex 3.130420832593433 1.7650568633794932 -0.020000000000000174
    vertex 2.397037141183061 4.245011706980603 -0.020000000000000174
    vertex 3.621566346765514 2.913341404399724 -0.020000000000000174
  endloop
endfacet
facet normal 0.0 0.0 -1.0
  outer loop
    vertex 3.130420832593433 1.7650568633794932 -0.020000000000000174
    vertex 3.621566346765514 2.913341404399724 -0.020000000000000174
    vertex 4.9718201393962165 0.7077026396393369 -0.020000000000000174
  endloop
endfacet
facet normal 0.0 0.0 -1.0
  outer loop
    vertex 4.9718201393962165 0.7077026396393369 -0.020000000000000174
    vertex 3.621566346765514 2.913341404399724 -0.020000000000000174
    vertex 5.149032367588211 1.9439781467236714 -0.020000000000000174
  endloop
endfacet
facet normal 0.0 0.0 -1.0
  outer loop
    vertex 4.9718201393962165 0.7077026396393369 -0.020000000000000174
    vertex 5.149032367588211 1.9439781467236714 -0.020000000000000174
    vertex 7.024138696871355 0.16296609763203174 -0.020000000000000174
  endloop
endfacet
facet normal 0.0 0.0 -1.0
  outer loop
    vertex 7.024138696871355 0.16296609763203174 -0.020000000000000174
    vertex 5.149032367588211 1.9439781467236714 -0.020000000000000174
    vertex 6.875340918589031 1.4029824380145457 -0.020000000000000174
  endloop
endfacet
facet normal 0.0 0.0 -1.0
  outer loop
    vertex 7.024138696871355 0.16296609763203174 -0.020000000000000174
    vertex 6.875340918589031 1.4029824380145457 -0.020000000000000174
    vertex 8.066821832785621 1.3530424502350176 -0.020000000000000174
  endloop
endfacet
facet normal 0.0 0.0 -1.0
  outer loop
    vertex 7.024138696871355 0.16296609763203174 -0.020000000000000174
    vertex 8.066821832785621 1.3530424502350176 -0.020000000000000174
    vertex 9.147514386943696 0.16797013247567336 -0.020000000000000174
  endloop
endfacet
facet normal 0.0 0.0 -1.0
  outer loop
    vertex 9.147514386943696 0.16797013247567336 -0.020000000000000174
    vertex 8.066821832785621 1.3530424502350176 -0.020000000000000174
    vertex 8.682846924877044 1.3272222417831925 -0.020000000000000174
  endloop
endfacet
facet normal 0.0 0.0 -1.0
  outer loop
    vertex 9.147514386943696 0.16797013247567336 -0.020000000000000174
    vertex 8.682846924877044 1.3272222417831925 -0.020000000000000174
    vertex 10.44837183916862 1.7218604902031334 -0.020000000000000174
  endloop
endfacet
facet normal 0.0 0.0 -1.0
  outer loop
    vertex 9.147514386943696 0.16797013247567336 -0.020000000000000174
    vertex 10.44837183916862 1.7218604902031334 -0.020000000000000174
    vertex 11.197242665379054 0.7223737274652279 -0.020000000000000174
  endloop
endfacet
facet normal 0.0 0.0 -1.0
  outer loop
    vertex 11.197242665379054 0.7223737274652279 -0.020000000000000174
    vertex 10.44837183916862 1.7218604902031334 -0.020000000000000174
    vertex 11.249984947695648 2.1409318645091124 -0.020000000000000174
  endloop
endfacet
facet normal 0.0 0.0 -1.0
  outer loop
    vertex 11.197242665379054 0.7223737274652279 -0.020000000000000174
    vertex 11.249984947695648 2.1409318645091124 -0.020000000000000174
    vertex 13.033637937338193 1.7883951937974127 -0.020000000000000174
  endloop
endfacet
facet normal 0.0 0.0 -1.0
  outer loop
    vertex 13.033637937338193 1.7883951937974127 -0.020000000000000174
    vertex 11.249984947695648 2.1409318645091124 -0.020000000000000174
    vertex 12.051598056222673 2.560003238815092 -0.020000000000000174
  endloop
endfacet
facet normal 0.0 0.0 -1.0
  outer loop
    vertex 13.033637937338193 1.7883951937974127 -0.020000000000000174
    vertex 12.051598056222673 2.560003238815092 -0.020000000000000174
    vertex 13.383268358803551 3.7845324443975463 -0.020000000000000174
  endloop
endfacet
facet normal 0.0 0.0 -1.0
  outer loop
    vertex 13.033637937338193 1.7883951937974127 -0.020000000000000174
    vertex 13.383268358803551 3.7845324443975463 -0.020000000000000174
    vertex 14.531552899823781 3.293386930225465 -0.020000000000000174
  endloop
endfacet
facet normal 0.0 0.0 -1.0
  outer loop
    vertex 14.531552899823781 3.293386930225465 -0.020000000000000174
    vertex 13.383268358803551 3.7845324443975463 -0.020000000000000174
    vertex 14.352631616479604 5.31199846522024 -0.020000000000000174
  endloop
endfacet
facet normal 0.0 0.0 -1.0
  outer loop
    vertex 14.531552899823781 3.293386930225465 -0.020000000000000174
    vertex 14.352631616479604 5.31199846522024 -0.020000000000000174
    vertex 14.893627325188733 7.038307016221064 -0.020000000000000174
  endloop
endfacet
facet normal 0.0 0.0 -1.0
  outer loop
    vertex 14.531552899823781 3.293386930225465 -0.020000000000000174
    vertex 14.893627325188733 7.038307016221064 -0.020000000000000174
    vertex 15.588907123563938 5.1347862370282495 -0.020000000000000174
  endloop
endfacet
facet normal 0.0 0.0 -1.0
  outer loop
    vertex 15.588907123563938 5.1347862370282495 -0.020000000000000174
    vertex 14.893627325188733 7.038307016221064 -0.020000000000000174
    vertex 14.943201752626088 8.221066298914486 -0.020000000000000174
  endloop
endfacet
facet normal 0.0 0.0 -1.0
  outer loop
    vertex 15.588907123563938 5.1347862370282495 -0.020000000000000174
    vertex 14.943201752626088 8.221066298914486 -0.020000000000000174
    vertex 14.969387521420087 8.845813022509073 -0.020000000000000174
  endloop
endfacet
facet normal 0.0 0.0 -1.0
  outer loop
    vertex 15.588907123563938 5.1347862370282495 -0.020000000000000174
    vertex 14.969387521420087 8.845813022509073 -0.020000000000000174
    vertex 15.57423603573805 11.360208763011086 -0.020000000000000174
  endloop
endfacet
facet normal 0.0 0.0 -1.0
  outer loop
    vertex 15.588907123563938 5.1347862370282495 -0.020000000000000174
    vertex 15.57423603573805 11.360208763011086 -0.020000000000000174
    vertex 16.128639630727605 9.31048048457573 -0.020000000000000174
  endloop
endfacet
facet normal 0.0 0.0 -1.0
  outer loop
    vertex 15.588907123563938 5.1347862370282495 -0.020000000000000174
    vertex 16.128639630727605 9.31048048457573 -0.020000000000000174
    vertex 16.133643665571245 7.187104794503386 -0.020000000000000174
  endloop
endfacet
facet normal 0.0 0.0 1.0
  outer loop
    vertex 0.005004034843641618 7.149095376259576 1.4808409899999997
    vertex 0.5447365420073051 11.32478962380706 1.4808409899999997
    vertex 0.0 9.27247106633192 1.4808409899999997
  endloop
endfacet
facet normal 0.0 0.0 1.0
  outer loop
    vertex 0.5447365420073051 11.32478962380706 1.4808409899999997
    vertex 0.005004034843641618 7.149095376259576 1.4808409899999997
    vertex 0.5594076298331948 5.09936709782422 1.4808409899999997
  endloop
endfacet
facet normal 0.0 0.0 1.0
  outer loop
    vertex 0.5447365420073051 11.32478962380706 1.4808409899999997
    vertex 0.5594076298331948 5.09936709782422 1.4808409899999997
    vertex 1.6020907657474657 13.166188930609849 1.4808409899999997
  endloop
endfacet
facet normal 0.0 0.0 1.0
  outer loop
    vertex 1.6020907657474657 13.166188930609849 1.4808409899999997
    vertex 0.5594076298331948 5.09936709782422 1.4808409899999997
    vertex 1.6254290961653823 3.262971825865078 1.4808409899999997
  endloop
endfacet
facet normal 0.0 0.0 1.0
  outer loop
    vertex 1.6020907657474657 13.166188930609849 1.4808409899999997
    vertex 1.6254290961653823 3.262971825865078 1.4808409899999997
    vertex 3.1000057282330493 14.671180667037898 1.4808409899999997
  endloop
endfacet
facet normal 0.0 0.0 1.0
  outer loop
    vertex 3.1000057282330493 14.671180667037898 1.4808409899999997
    vertex 1.6254290961653823 3.262971825865078 1.4808409899999997
    vertex 3.130420832593433 1.7650568633794932 1.4808409899999997
  endloop
endfacet
facet normal 0.0 0.0 1.0
  outer loop
    vertex 3.1000057282330493 14.671180667037898 1.4808409899999997
    vertex 3.130420832593433 1.7650568633794932 1.4808409899999997
    vertex 4.936401000192189 15.737202133370085 1.4808409899999997
  endloop
endfacet
facet normal 0.0 0.0 1.0
  outer loop
    vertex 4.936401000192189 15.737202133370085 1.4808409899999997
    vertex 3.130420832593433 1.7650568633794932 1.4808409899999997
    vertex 4.9718201393962165 0.7077026396393369 1.4808409899999997
  endloop
endfacet
facet normal 0.0 0.0 1.0
  outer loop
    vertex 4.936401000192189 15.737202133370085 1.4808409899999997
    vertex 4.9718201393962165 0.7077026396393369 1.4808409899999997
    vertex 6.986129278627551 16.291605728359634 1.4808409899999997
  endloop
endfacet
facet normal 0.0 0.0 1.0
  outer loop
    vertex 6.986129278627551 16.291605728359634 1.4808409899999997
    vertex 4.9718201393962165 0.7077026396393369 1.4808409899999997
    vertex 6.986386322785622 8.229787930417656 1.4808409899999997
  endloop
endfacet
facet normal 0.0 0.0 1.0
  outer loop
    vertex 6.986386322785622 8.229787930417656 1.4808409899999997
    vertex 4.9718201393962165 0.7077026396393369 1.4808409899999997
    vertex 7.024138696871355 0.16296609763203174 1.4808409899999997
  endloop
endfacet
facet normal 0.0 0.0 1.0
  outer loop
    vertex 6.986386322785622 8.229787930417656 1.4808409899999997
    vertex 7.024138696871355 0.16296609763203174 1.4808409899999997
    vertex 7.023201270036821 7.9501506434246 1.4808409899999997
  endloop
endfacet
facet normal 0.0 0.0 1.0
  outer loop
    vertex 7.023201270036821 7.9501506434246 1.4808409899999997
    vertex 7.024138696871355 0.16296609763203174 1.4808409899999997
    vertex 7.131137233974826 7.689570175417655 1.4808409899999997
  endloop
endfacet
facet normal 0.0 0.0 1.0
  outer loop
    vertex 7.131137233974826 7.689570175417655 1.4808409899999997
    vertex 7.024138696871355 0.16296609763203174 1.4808409899999997
    vertex 9.147514386943696 0.16797013247567336 1.4808409899999997
  endloop
endfacet
facet normal 0.0 0.0 1.0
  outer loop
    vertex 7.131137233974826 7.689570175417655 1.4808409899999997
    vertex 9.147514386943696 0.16797013247567336 1.4808409899999997
    vertex 7.302838557029876 7.465804654661909 1.4808409899999997
  endloop
endfacet
facet normal 0.0 0.0 1.0
  outer loop
    vertex 7.302838557029876 7.465804654661909 1.4808409899999997
    vertex 9.147514386943696 0.16797013247567336 1.4808409899999997
    vertex 7.526604077785623 7.294103331606858 1.4808409899999997
  endloop
endfacet
facet normal 0.0 0.0 1.0
  outer loop
    vertex 7.526604077785623 7.294103331606858 1.4808409899999997
    vertex 9.147514386943696 0.16797013247567336 1.4808409899999997
    vertex 7.787184545792568 7.186167367668854 1.4808409899999997
  endloop
endfacet
facet normal 0.0 0.0 1.0
  outer loop
    vertex 7.787184545792568 7.186167367668854 1.4808409899999997
    vertex 9.147514386943696 0.16797013247567336 1.4808409899999997
    vertex 8.066821832785623 7.149352420417656 1.4808409899999997
  endloop
endfacet
facet normal 0.0 0.0 1.0
  outer loop
    vertex 8.066821832785623 7.149352420417656 1.4808409899999997
    vertex 9.147514386943696 0.16797013247567336 1.4808409899999997
    vertex 8.346459119778677 7.186167367668854 1.4808409899999997
  endloop
endfacet
facet normal 0.0 0.0 1.0
  outer loop
    vertex 8.346459119778677 7.186167367668854 1.4808409899999997
    vertex 9.147514386943696 0.16797013247567336 1.4808409899999997
    vertex 8.607039587785621 7.294103331606859 1.4808409899999997
  endloop
endfacet
facet normal 0.0 0.0 1.0
  outer loop
    vertex 8.607039587785621 7.294103331606859 1.4808409899999997
    vertex 9.147514386943696 0.16797013247567336 1.4808409899999997
    vertex 8.830805108541368 7.465804654661909 1.4808409899999997
  endloop
endfacet
facet normal 0.0 0.0 1.0
  outer loop
    vertex 8.830805108541368 7.465804654661909 1.4808409899999997
    vertex 9.147514386943696 0.16797013247567336 1.4808409899999997
    vertex 9.002506431596418 7.689570175417656 1.4808409899999997
  endloop
endfacet
facet normal 0.0 0.0 1.0
  outer loop
    vertex 9.002506431596418 7.689570175417656 1.4808409899999997
    vertex 9.147514386943696 0.16797013247567336 1.4808409899999997
    vertex 9.110442395534424 7.950150643424601 1.4808409899999997
  endloop
endfacet
facet normal 0.0 0.0 1.0
  outer loop
    vertex 9.110442395534424 7.950150643424601 1.4808409899999997
    vertex 9.147514386943696 0.16797013247567336 1.4808409899999997
    vertex 9.147257342785622 8.229787930417656 1.4808409899999997
  endloop
endfacet
facet normal 0.0 0.0 1.0
  outer loop
    vertex 6.986129278627551 16.291605728359634 1.4808409899999997
    vertex 7.023201270036821 8.50942521741071 1.4808409899999997
    vertex 9.109504968699891 16.29660976320328 1.4808409899999997
  endloop
endfacet
facet normal 0.0 0.0 1.0
  outer loop
    vertex 7.023201270036821 8.50942521741071 1.4808409899999997
    vertex 6.986129278627551 16.291605728359634 1.4808409899999997
    vertex 6.986386322785622 8.229787930417656 1.4808409899999997
  endloop
endfacet
facet normal 0.0 0.0 1.0
  outer loop
    vertex 9.109504968699891 16.29660976320328 1.4808409899999997
    vertex 7.023201270036821 8.50942521741071 1.4808409899999997
    vertex 7.131137233974826 8.770005685417654 1.4808409899999997
  endloop
endfacet
facet normal 0.0 0.0 1.0
  outer loop
    vertex 9.109504968699891 16.29660976320328 1.4808409899999997
    vertex 7.131137233974826 8.770005685417654 1.4808409899999997
    vertex 7.302838557029876 8.9937712061734 1.4808409899999997
  endloop
endfacet
facet normal 0.0 0.0 1.0
  outer loop
    vertex 9.109504968699891 16.29660976320328 1.4808409899999997
    vertex 7.302838557029876 8.9937712061734 1.4808409899999997
    vertex 7.526604077785621 9.16547252922845 1.4808409899999997
  endloop
endfacet
facet normal 0.0 0.0 1.0
  outer loop
    vertex 9.109504968699891 16.29660976320328 1.4808409899999997
    vertex 7.526604077785621 9.16547252922845 1.4808409899999997
    vertex 7.787184545792567 9.273408493166457 1.4808409899999997
  endloop
endfacet
facet normal 0.0 0.0 1.0
  outer loop
    vertex 9.109504968699891 16.29660976320328 1.4808409899999997
    vertex 7.787184545792567 9.273408493166457 1.4808409899999997
    vertex 8.066821832785623 9.310223440417655 1.4808409899999997
  endloop
endfacet
facet normal 0.0 0.0 1.0
  outer loop
    vertex 9.109504968699891 16.29660976320328 1.4808409899999997
    vertex 8.066821832785623 9.310223440417655 1.4808409899999997
    vertex 8.346459119778677 9.273408493166457 1.4808409899999997
  endloop
endfacet
facet normal 0.0 0.0 1.0
  outer loop
    vertex 9.109504968699891 16.29660976320328 1.4808409899999997
    vertex 8.346459119778677 9.273408493166457 1.4808409899999997
    vertex 8.607039587785621 9.165472529228452 1.4808409899999997
  endloop
endfacet
facet normal 0.0 0.0 1.0
  outer loop
    vertex 9.109504968699891 16.29660976320328 1.4808409899999997
    vertex 8.607039587785621 9.165472529228452 1.4808409899999997
    vertex 8.830805108541368 8.9937712061734 1.4808409899999997
  endloop
endfacet
facet normal 0.0 0.0 1.0
  outer loop
    vertex 9.109504968699891 16.29660976320328 1.4808409899999997
    vertex 8.830805108541368 8.9937712061734 1.4808409899999997
    vertex 9.002506431596418 8.770005685417656 1.4808409899999997
  endloop
endfacet
facet normal 0.0 0.0 1.0
  outer loop
    vertex 9.109504968699891 16.29660976320328 1.4808409899999997
    vertex 9.002506431596418 8.770005685417656 1.4808409899999997
    vertex 9.110442395534424 8.50942521741071 1.4808409899999997
  endloop
endfacet
facet normal 0.0 0.0 1.0
  outer loop
    vertex 9.109504968699891 16.29660976320328 1.4808409899999997
    vertex 9.110442395534424 8.50942521741071 1.4808409899999997
    vertex 11.161823526175027 15.751873221195973 1.4808409899999997
  endloop
endfacet
facet normal 0.0 0.0 1.0
  outer loop
    vertex 11.161823526175027 15.751873221195973 1.4808409899999997
    vertex 9.110442395534424 8.50942521741071 1.4808409899999997
    vertex 9.147257342785622 8.229787930417656 1.4808409899999997
  endloop
endfacet
facet normal 0.0 0.0 1.0
  outer loop
    vertex 11.161823526175027 15.751873221195973 1.4808409899999997
    vertex 9.147257342785622 8.229787930417656 1.4808409899999997
    vertex 9.147514386943696 0.16797013247567336 1.4808409899999997
  endloop
endfacet
facet normal 0.0 0.0 1.0
  outer loop
    vertex 11.161823526175027 15.751873221195973 1.4808409899999997
    vertex 9.147514386943696 0.16797013247567336 1.4808409899999997
    vertex 11.197242665379054 0.7223737274652279 1.4808409899999997
  endloop
endfacet
facet normal 0.0 0.0 1.0
  outer loop
    vertex 11.161823526175027 15.751873221195973 1.4808409899999997
    vertex 11.197242665379054 0.7223737274652279 1.4808409899999997
    vertex 13.003222832977816 14.694518997455814 1.4808409899999997
  endloop
endfacet
facet normal 0.0 0.0 1.0
  outer loop
    vertex 13.003222832977816 14.694518997455814 1.4808409899999997
    vertex 11.197242665379054 0.7223737274652279 1.4808409899999997
    vertex 13.033637937338193 1.7883951937974127 1.4808409899999997
  endloop
endfacet
facet normal 0.0 0.0 1.0
  outer loop
    vertex 13.003222832977816 14.694518997455814 1.4808409899999997
    vertex 13.033637937338193 1.7883951937974127 1.4808409899999997
    vertex 14.508214569405867 13.19660403497023 1.4808409899999997
  endloop
endfacet
facet normal 0.0 0.0 1.0
  outer loop
    vertex 14.508214569405867 13.19660403497023 1.4808409899999997
    vertex 13.033637937338193 1.7883951937974127 1.4808409899999997
    vertex 14.531552899823781 3.293386930225465 1.4808409899999997
  endloop
endfacet
facet normal 0.0 0.0 1.0
  outer loop
    vertex 14.508214569405867 13.19660403497023 1.4808409899999997
    vertex 14.531552899823781 3.293386930225465 1.4808409899999997
    vertex 15.57423603573805 11.360208763011086 1.4808409899999997
  endloop
endfacet
facet normal 0.0 0.0 1.0
  outer loop
    vertex 15.57423603573805 11.360208763011086 1.4808409899999997
    vertex 14.531552899823781 3.293386930225465 1.4808409899999997
    vertex 15.588907123563938 5.1347862370282495 1.4808409899999997
  endloop
endfacet
facet normal 0.0 0.0 1.0
  outer loop
    vertex 15.57423603573805 11.360208763011086 1.4808409899999997
    vertex 15.588907123563938 5.1347862370282495 1.4808409899999997
    vertex 16.128639630727605 9.31048048457573 1.4808409899999997
  endloop
endfacet
facet normal 0.0 0.0 1.0
  outer loop
    vertex 16.128639630727605 9.31048048457573 1.4808409899999997
    vertex 15.588907123563938 5.1347862370282495 1.4808409899999997
    vertex 16.133643665571245 7.187104794503386 1.4808409899999997
  endloop
endfacet
facet normal 0.9999972231324615 0.002356634754506309 0.0
  outer loop
    vertex 16.128639630727605 9.31048048457573 -0.020000000000000174
    vertex 16.133643665571245 7.187104794503386 1.4808409899999997
    vertex 16.133643665571245 7.187104794503386 -0.020000000000000174
  endloop
endfacet
facet normal 0.9999972231324615 0.002356634754506309 0.0
  outer loop
    vertex 16.133643665571245 7.187104794503386 1.4808409899999997
    vertex 16.128639630727605 9.31048048457573 -0.020000000000000174
    vertex 16.128639630727605 9.31048048457573 1.4808409899999997
  endloop
endfacet
facet normal 0.9665330859978137 -0.2565419920238073 0.0
  outer loop
    vertex 16.133643665571245 7.187104794503386 -0.020000000000000174
    vertex 15.588907123563938 5.1347862370282495 1.4808409899999997
    vertex 15.588907123563938 5.1347862370282495 -0.020000000000000174
  endloop
endfacet
facet normal 0.9665330859978137 -0.2565419920238073 0.0
  outer loop
    vertex 15.588907123563938 5.1347862370282495 1.4808409899999997
    vertex 16.133643665571245 7.187104794503386 -0.020000000000000174
    vertex 16.133643665571245 7.187104794503386 1.4808409899999997
  endloop
endfacet
facet normal 0.8672013163238609 -0.49795770600138645 0.0
  outer loop
    vertex 15.588907123563938 5.1347862370282495 -0.020000000000000174
    vertex 14.531552899823781 3.293386930225465 1.4808409899999997
    vertex 14.531552899823781 3.293386930225465 -0.020000000000000174
  endloop
endfacet
facet normal 0.8672013163238609 -0.49795770600138645 0.0
  outer loop
    vertex 14.531552899823781 3.293386930225465 1.4808409899999997
    vertex 15.588907123563938 5.1347862370282495 -0.020000000000000174
    vertex 15.588907123563938 5.1347862370282495 1.4808409899999997
  endloop
endfacet
facet normal 0.7087712100603719 -0.7054384252289894 0.0
  outer loop
    vertex 14.531552899823781 3.293386930225465 -0.020000000000000174
    vertex 13.033637937338193 1.7883951937974127 1.4808409899999997
    vertex 13.033637937338193 1.7883951937974127 -0.020000000000000174
  endloop
endfacet
facet normal 0.7087712100603719 -0.7054384252289894 0.0
  outer loop
    vertex 13.033637937338193 1.7883951937974127 1.4808409899999997
    vertex 14.531552899823781 3.293386930225465 -0.020000000000000174
    vertex 14.531552899823781 3.293386930225465 1.4808409899999997
  endloop
endfacet
facet normal 0.5020395171310746 -0.8648446815693542 0.0
  outer loop
    vertex 13.033637937338193 1.7883951937974127 1.4808409899999997
    vertex 11.197242665379054 0.7223737274652279 -0.020000000000000174
    vertex 13.033637937338193 1.7883951937974127 -0.020000000000000174
  endloop
endfacet
facet normal 0.5020395171310746 -0.8648446815693542 0.0
  outer loop
    vertex 11.197242665379054 0.7223737274652279 -0.020000000000000174
    vertex 13.033637937338193 1.7883951937974127 1.4808409899999997
    vertex 11.197242665379054 0.7223737274652279 1.4808409899999997
  endloop
endfacet
facet normal 0.261094660768825 -0.9653132020841796 0.0
  outer loop
    vertex 11.197242665379054 0.7223737274652279 1.4808409899999997
    vertex 9.147514386943696 0.16797013247567336 -0.020000000000000174
    vertex 11.197242665379054 0.7223737274652279 -0.020000000000000174
  endloop
endfacet
facet normal 0.261094660768825 -0.9653132020841796 0.0
  outer loop
    vertex 9.147514386943696 0.16797013247567336 -0.020000000000000174
    vertex 11.197242665379054 0.7223737274652279 1.4808409899999997
    vertex 9.147514386943696 0.16797013247567336 1.4808409899999997
  endloop
endfacet
facet normal 0.0023566347545069693 -0.9999972231324615 0.0
  outer loop
    vertex 9.147514386943696 0.16797013247567336 1.4808409899999997
    vertex 7.024138696871355 0.16296609763203174 -0.020000000000000174
    vertex 9.147514386943696 0.16797013247567336 -0.020000000000000174
  endloop
endfacet
facet normal 0.0023566347545069693 -0.9999972231324615 0.0
  outer loop
    vertex 7.024138696871355 0.16296609763203174 -0.020000000000000174
    vertex 9.147514386943696 0.16797013247567336 1.4808409899999997
    vertex 7.024138696871355 0.16296609763203174 1.4808409899999997
  endloop
endfacet
facet normal -0.25654199202380695 -0.9665330859978136 0.0
  outer loop
    vertex 7.024138696871355 0.16296609763203174 1.4808409899999997
    vertex 4.9718201393962165 0.7077026396393369 -0.020000000000000174
    vertex 7.024138696871355 0.16296609763203174 -0.020000000000000174
  endloop
endfacet
facet normal -0.25654199202380695 -0.9665330859978136 0.0
  outer loop
    vertex 4.9718201393962165 0.7077026396393369 -0.020000000000000174
    vertex 7.024138696871355 0.16296609763203174 1.4808409899999997
    vertex 4.9718201393962165 0.7077026396393369 1.4808409899999997
  endloop
endfacet
facet normal -0.49795770600138667 -0.8672013163238607 0.0
  outer loop
    vertex 4.9718201393962165 0.7077026396393369 1.4808409899999997
    vertex 3.130420832593433 1.7650568633794932 -0.020000000000000174
    vertex 4.9718201393962165 0.7077026396393369 -0.020000000000000174
  endloop
endfacet
facet normal -0.49795770600138667 -0.8672013163238607 0.0
  outer loop
    vertex 3.130420832593433 1.7650568633794932 -0.020000000000000174
    vertex 4.9718201393962165 0.7077026396393369 1.4808409899999997
    vertex 3.130420832593433 1.7650568633794932 1.4808409899999997
  endloop
endfacet
facet normal -0.7054384252289887 -0.7087712100603724 0.0
  outer loop
    vertex 3.130420832593433 1.7650568633794932 1.4808409899999997
    vertex 1.6254290961653823 3.262971825865078 -0.020000000000000174
    vertex 3.130420832593433 1.7650568633794932 -0.020000000000000174
  endloop
endfacet
facet normal -0.7054384252289887 -0.7087712100603724 0.0
  outer loop
    vertex 1.6254290961653823 3.262971825865078 -0.020000000000000174
    vertex 3.130420832593433 1.7650568633794932 1.4808409899999997
    vertex 1.6254290961653823 3.262971825865078 1.4808409899999997
  endloop
endfacet
facet normal -0.864844681569354 -0.5020395171310751 0.0
  outer loop
    vertex 0.5594076298331948 5.09936709782422 1.4808409899999997
    vertex 1.6254290961653823 3.262971825865078 -0.020000000000000174
    vertex 1.6254290961653823 3.262971825865078 1.4808409899999997
  endloop
endfacet
facet normal -0.864844681569354 -0.5020395171310751 0.0
  outer loop
    vertex 1.6254290961653823 3.262971825865078 -0.020000000000000174
    vertex 0.5594076298331948 5.09936709782422 1.4808409899999997
    vertex 0.5594076298331948 5.09936709782422 -0.020000000000000174
  endloop
endfacet
facet normal -0.9653132020841798 -0.26109466076882454 0.0
  outer loop
    vertex 0.005004034843641618 7.149095376259576 1.4808409899999997
    vertex 0.5594076298331948 5.09936709782422 -0.020000000000000174
    vertex 0.5594076298331948 5.09936709782422 1.4808409899999997
  endloop
endfacet
facet normal -0.9653132020841798 -0.26109466076882454 0.0
  outer loop
    vertex 0.5594076298331948 5.09936709782422 -0.020000000000000174
    vertex 0.005004034843641618 7.149095376259576 1.4808409899999997
    vertex 0.005004034843641618 7.149095376259576 -0.020000000000000174
  endloop
endfacet
facet normal -0.9999972231324615 -0.0023566347545069663 0.0
  outer loop
    vertex 0.0 9.27247106633192 1.4808409899999997
    vertex 0.005004034843641618 7.149095376259576 -0.020000000000000174
    vertex 0.005004034843641618 7.149095376259576 1.4808409899999997
  endloop
endfacet
facet normal -0.9999972231324615 -0.0023566347545069663 0.0
  outer loop
    vertex 0.005004034843641618 7.149095376259576 -0.020000000000000174
    vertex 0.0 9.27247106633192 1.4808409899999997
    vertex 0.0 9.27247106633192 -0.020000000000000174
  endloop
endfacet
facet normal -0.9665330859978136 0.25654199202380695 0.0
  outer loop
    vertex 0.5447365420073051 11.32478962380706 1.4808409899999997
    vertex 0.0 9.27247106633192 -0.020000000000000174
    vertex 0.0 9.27247106633192 1.4808409899999997
  endloop
endfacet
facet normal -0.9665330859978136 0.25654199202380695 0.0
  outer loop
    vertex 0.0 9.27247106633192 -0.020000000000000174
    vertex 0.5447365420073051 11.32478962380706 1.4808409899999997
    vertex 0.5447365420073051 11.32478962380706 -0.020000000000000174
  endloop
endfacet
facet normal -0.8672013163238603 0.4979577060013874 0.0
  outer loop
    vertex 1.6020907657474657 13.166188930609849 1.4808409899999997
    vertex 0.5447365420073051 11.32478962380706 -0.020000000000000174
    vertex 0.5447365420073051 11.32478962380706 1.4808409899999997
  endloop
endfacet
facet normal -0.8672013163238603 0.4979577060013874 0.0
  outer loop
    vertex 0.5447365420073051 11.32478962380706 -0.020000000000000174
    vertex 1.6020907657474657 13.166188930609849 1.4808409899999997
    vertex 1.6020907657474657 13.166188930609849 -0.020000000000000174
  endloop
endfacet
facet normal -0.7087712100603728 0.7054384252289884 0.0
  outer loop
    vertex 3.1000057282330493 14.671180667037898 1.4808409899999997
    vertex 1.6020907657474657 13.166188930609849 -0.020000000000000174
    vertex 1.6020907657474657 13.166188930609849 1.4808409899999997
  endloop
endfacet
facet normal -0.7087712100603728 0.7054384252289884 0.0
  outer loop
    vertex 1.6020907657474657 13.166188930609849 -0.020000000000000174
    vertex 3.1000057282330493 14.671180667037898 1.4808409899999997
    vertex 3.1000057282330493 14.671180667037898 -0.020000000000000174
  endloop
endfacet
facet normal -0.5020395171310753 0.8648446815693538 0.0
  outer loop
    vertex 3.1000057282330493 14.671180667037898 1.4808409899999997
    vertex 4.936401000192189 15.737202133370085 -0.020000000000000174
    vertex 3.1000057282330493 14.671180667037898 -0.020000000000000174
  endloop
endfacet
facet normal -0.5020395171310753 0.8648446815693538 0.0
  outer loop
    vertex 4.936401000192189 15.737202133370085 -0.020000000000000174
    vertex 3.1000057282330493 14.671180667037898 1.4808409899999997
    vertex 4.936401000192189 15.737202133370085 1.4808409899999997
  endloop
endfacet
facet normal -0.2610946607688227 0.9653132020841803 0.0
  outer loop
    vertex 4.936401000192189 15.737202133370085 1.4808409899999997
    vertex 6.986129278627551 16.291605728359634 -0.020000000000000174
    vertex 4.936401000192189 15.737202133370085 -0.020000000000000174
  endloop
endfacet
facet normal -0.2610946607688227 0.9653132020841803 0.0
  outer loop
    vertex 6.986129278627551 16.291605728359634 -0.020000000000000174
    vertex 4.936401000192189 15.737202133370085 1.4808409899999997
    vertex 6.986129278627551 16.291605728359634 1.4808409899999997
  endloop
endfacet
facet normal -0.0023566347545076285 0.9999972231324615 0.0
  outer loop
    vertex 6.986129278627551 16.291605728359634 1.4808409899999997
    vertex 9.109504968699891 16.29660976320328 -0.020000000000000174
    vertex 6.986129278627551 16.291605728359634 -0.020000000000000174
  endloop
endfacet
facet normal -0.0023566347545076285 0.9999972231324615 0.0
  outer loop
    vertex 9.109504968699891 16.29660976320328 -0.020000000000000174
    vertex 6.986129278627551 16.291605728359634 1.4808409899999997
    vertex 9.109504968699891 16.29660976320328 1.4808409899999997
  endloop
endfacet
facet normal 0.25654199202380734 0.9665330859978136 0.0
  outer loop
    vertex 9.109504968699891 16.29660976320328 1.4808409899999997
    vertex 11.161823526175027 15.751873221195973 -0.020000000000000174
    vertex 9.109504968699891 16.29660976320328 -0.020000000000000174
  endloop
endfacet
facet normal 0.25654199202380734 0.9665330859978136 0.0
  outer loop
    vertex 11.161823526175027 15.751873221195973 -0.020000000000000174
    vertex 9.109504968699891 16.29660976320328 1.4808409899999997
    vertex 11.161823526175027 15.751873221195973 1.4808409899999997
  endloop
endfacet
facet normal 0.4979577060013869 0.8672013163238605 0.0
  outer loop
    vertex 11.161823526175027 15.751873221195973 1.4808409899999997
    vertex 13.003222832977816 14.694518997455814 -0.020000000000000174
    vertex 11.161823526175027 15.751873221195973 -0.020000000000000174
  endloop
endfacet
facet normal 0.4979577060013869 0.8672013163238605 0.0
  outer loop
    vertex 13.003222832977816 14.694518997455814 -0.020000000000000174
    vertex 11.161823526175027 15.751873221195973 1.4808409899999997
    vertex 13.003222832977816 14.694518997455814 1.4808409899999997
  endloop
endfacet
facet normal 0.7054384252289884 0.7087712100603728 0.0
  outer loop
    vertex 13.003222832977816 14.694518997455814 1.4808409899999997
    vertex 14.508214569405867 13.19660403497023 -0.020000000000000174
    vertex 13.003222832977816 14.694518997455814 -0.020000000000000174
  endloop
endfacet
facet normal 0.7054384252289884 0.7087712100603728 0.0
  outer loop
    vertex 14.508214569405867 13.19660403497023 -0.020000000000000174
    vertex 13.003222832977816 14.694518997455814 1.4808409899999997
    vertex 14.508214569405867 13.19660403497023 1.4808409899999997
  endloop
endfacet
facet normal 0.8648446815693549 0.5020395171310735 0.0
  outer loop
    vertex 14.508214569405867 13.19660403497023 -0.020000000000000174
    vertex 15.57423603573805 11.360208763011086 1.4808409899999997
    vertex 15.57423603573805 11.360208763011086 -0.020000000000000174
  endloop
endfacet
facet normal 0.8648446815693549 0.5020395171310735 0.0
  outer loop
    vertex 15.57423603573805 11.360208763011086 1.4808409899999997
    vertex 14.508214569405867 13.19660403497023 -0.020000000000000174
    vertex 14.508214569405867 13.19660403497023 1.4808409899999997
  endloop
endfacet
facet normal 0.9653132020841797 0.2610946607688247 0.0
  outer loop
    vertex 15.57423603573805 11.360208763011086 -0.020000000000000174
    vertex 16.128639630727605 9.31048048457573 1.4808409899999997
    vertex 16.128639630727605 9.31048048457573 -0.020000000000000174
  endloop
endfacet
facet normal 0.9653132020841797 0.2610946607688247 0.0
  outer loop
    vertex 16.128639630727605 9.31048048457573 1.4808409899999997
    vertex 15.57423603573805 11.360208763011086 -0.020000000000000174
    vertex 15.57423603573805 11.360208763011086 1.4808409899999997
  endloop
endfacet
facet normal 0.0 0.0 -1.0
  outer loop
    vertex 1.1904419129451582 8.238509561920825 -1.9999999999999998
    vertex 1.5588943925711 5.848237924034656 -1.9999999999999998
    vertex 1.1642561441511594 7.613762838326234 -1.9999999999999998
  endloop
endfacet
facet normal 0.0 0.0 -1.0
  outer loop
    vertex 1.5588943925711 5.848237924034656 -1.9999999999999998
    vertex 1.1904419129451582 8.238509561920825 -1.9999999999999998
    vertex 1.2400163403825126 9.421268844614241 -1.9999999999999998
  endloop
endfacet
facet normal 0.0 0.0 -1.0
  outer loop
    vertex 1.5588943925711 5.848237924034656 -1.9999999999999998
    vertex 1.2400163403825126 9.421268844614241 -1.9999999999999998
    vertex 1.781012049091639 11.14757739561507 -1.9999999999999998
  endloop
endfacet
facet normal 0.0 0.0 -1.0
  outer loop
    vertex 1.5588943925711 5.848237924034656 -1.9999999999999998
    vertex 1.781012049091639 11.14757739561507 -1.9999999999999998
    vertex 2.397037141183061 4.245011706980603 -1.9999999999999998
  endloop
endfacet
facet normal 0.0 0.0 -1.0
  outer loop
    vertex 2.397037141183061 4.245011706980603 -1.9999999999999998
    vertex 1.781012049091639 11.14757739561507 -1.9999999999999998
    vertex 2.750375306767691 12.675043416437765 -1.9999999999999998
  endloop
endfacet
facet normal 0.0 0.0 -1.0
  outer loop
    vertex 2.397037141183061 4.245011706980603 -1.9999999999999998
    vertex 2.750375306767691 12.675043416437765 -1.9999999999999998
    vertex 3.621566346765514 2.913341404399724 -1.9999999999999998
  endloop
endfacet
facet normal 0.0 0.0 -1.0
  outer loop
    vertex 3.621566346765514 2.913341404399724 -1.9999999999999998
    vertex 2.750375306767691 12.675043416437765 -1.9999999999999998
    vertex 4.08204560934857 13.899572622020214 -1.9999999999999998
  endloop
endfacet
facet normal 0.0 0.0 -1.0
  outer loop
    vertex 3.621566346765514 2.913341404399724 -1.9999999999999998
    vertex 4.08204560934857 13.899572622020214 -1.9999999999999998
    vertex 5.149032367588211 1.9439781467236714 -1.9999999999999998
  endloop
endfacet
facet normal 0.0 0.0 -1.0
  outer loop
    vertex 5.149032367588211 1.9439781467236714 -1.9999999999999998
    vertex 4.08204560934857 13.899572622020214 -1.9999999999999998
    vertex 5.685271826402624 14.737715370632179 -1.9999999999999998
  endloop
endfacet
facet normal 0.0 0.0 -1.0
  outer loop
    vertex 5.149032367588211 1.9439781467236714 -1.9999999999999998
    vertex 5.685271826402624 14.737715370632179 -1.9999999999999998
    vertex 6.875340918589031 1.4029824380145457 -1.9999999999999998
  endloop
endfacet
facet normal 0.0 0.0 -1.0
  outer loop
    vertex 6.875340918589031 1.4029824380145457 -1.9999999999999998
    vertex 5.685271826402624 14.737715370632179 -1.9999999999999998
    vertex 6.986386322785622 8.229787930417656 -1.9999999999999991
  endloop
endfacet
facet normal 0.0 0.0 -1.0
  outer loop
    vertex 6.986386322785622 8.229787930417656 -1.9999999999999991
    vertex 5.685271826402624 14.737715370632179 -1.9999999999999998
    vertex 7.450796740694203 15.13235361905212 -1.9999999999999998
  endloop
endfacet
facet normal 0.0 0.0 -1.0
  outer loop
    vertex 6.986386322785622 8.229787930417656 -1.9999999999999991
    vertex 7.450796740694203 15.13235361905212 -1.9999999999999998
    vertex 7.023201270036821 8.50942521741071 -1.9999999999999991
  endloop
endfacet
facet normal 0.0 0.0 -1.0
  outer loop
    vertex 7.023201270036821 8.50942521741071 -1.9999999999999991
    vertex 7.450796740694203 15.13235361905212 -1.9999999999999998
    vertex 7.131137233974826 8.770005685417654 -1.9999999999999991
  endloop
endfacet
facet normal 0.0 0.0 -1.0
  outer loop
    vertex 7.131137233974826 8.770005685417654 -1.9999999999999991
    vertex 7.450796740694203 15.13235361905212 -1.9999999999999998
    vertex 7.302838557029876 8.9937712061734 -1.9999999999999991
  endloop
endfacet
facet normal 0.0 0.0 -1.0
  outer loop
    vertex 7.302838557029876 8.9937712061734 -1.9999999999999991
    vertex 7.450796740694203 15.13235361905212 -1.9999999999999998
    vertex 7.526604077785621 9.16547252922845 -1.9999999999999991
  endloop
endfacet
facet normal 0.0 0.0 -1.0
  outer loop
    vertex 7.526604077785621 9.16547252922845 -1.9999999999999991
    vertex 7.450796740694203 15.13235361905212 -1.9999999999999998
    vertex 8.066821832785621 15.106533410600294 -1.9999999999999998
  endloop
endfacet
facet normal 0.0 0.0 -1.0
  outer loop
    vertex 7.526604077785621 9.16547252922845 -1.9999999999999991
    vertex 8.066821832785621 15.106533410600294 -1.9999999999999998
    vertex 7.787184545792567 9.273408493166457 -1.9999999999999991
  endloop
endfacet
facet normal 0.0 0.0 -1.0
  outer loop
    vertex 7.787184545792567 9.273408493166457 -1.9999999999999991
    vertex 8.066821832785621 15.106533410600294 -1.9999999999999998
    vertex 8.066821832785623 9.310223440417655 -1.9999999999999991
  endloop
endfacet
facet normal 0.0 0.0 -1.0
  outer loop
    vertex 8.066821832785623 9.310223440417655 -1.9999999999999991
    vertex 8.066821832785621 15.106533410600294 -1.9999999999999998
    vertex 9.258302746982215 15.056593422820765 -1.9999999999999998
  endloop
endfacet
facet normal 0.0 0.0 -1.0
  outer loop
    vertex 8.066821832785623 9.310223440417655 -1.9999999999999991
    vertex 9.258302746982215 15.056593422820765 -1.9999999999999998
    vertex 8.346459119778677 9.273408493166457 -1.9999999999999991
  endloop
endfacet
facet normal 0.0 0.0 -1.0
  outer loop
    vertex 8.346459119778677 9.273408493166457 -1.9999999999999991
    vertex 9.258302746982215 15.056593422820765 -1.9999999999999998
    vertex 8.607039587785621 9.165472529228452 -1.9999999999999991
  endloop
endfacet
facet normal 0.0 0.0 -1.0
  outer loop
    vertex 8.607039587785621 9.165472529228452 -1.9999999999999991
    vertex 9.258302746982215 15.056593422820765 -1.9999999999999998
    vertex 8.830805108541368 8.9937712061734 -1.9999999999999991
  endloop
endfacet
facet normal 0.0 0.0 -1.0
  outer loop
    vertex 8.830805108541368 8.9937712061734 -1.9999999999999991
    vertex 9.258302746982215 15.056593422820765 -1.9999999999999998
    vertex 9.002506431596418 8.770005685417656 -1.9999999999999991
  endloop
endfacet
facet normal 0.0 0.0 -1.0
  outer loop
    vertex 9.002506431596418 8.770005685417656 -1.9999999999999991
    vertex 9.258302746982215 15.056593422820765 -1.9999999999999998
    vertex 9.110442395534424 8.50942521741071 -1.9999999999999991
  endloop
endfacet
facet normal 0.0 0.0 -1.0
  outer loop
    vertex 9.110442395534424 8.50942521741071 -1.9999999999999991
    vertex 9.258302746982215 15.056593422820765 -1.9999999999999998
    vertex 9.147257342785622 8.229787930417656 -1.9999999999999991
  endloop
endfacet
facet normal 0.0 0.0 -1.0
  outer loop
    vertex 6.875340918589031 1.4029824380145457 -1.9999999999999998
    vertex 7.023201270036821 7.9501506434246 -1.9999999999999991
    vertex 8.066821832785621 1.3530424502350176 -1.9999999999999998
  endloop
endfacet
facet normal 0.0 0.0 -1.0
  outer loop
    vertex 7.023201270036821 7.9501506434246 -1.9999999999999991
    vertex 6.875340918589031 1.4029824380145457 -1.9999999999999998
    vertex 6.986386322785622 8.229787930417656 -1.9999999999999991
  endloop
endfacet
facet normal 0.0 0.0 -1.0
  outer loop
    vertex 8.066821832785621 1.3530424502350176 -1.9999999999999998
    vertex 7.023201270036821 7.9501506434246 -1.9999999999999991
    vertex 7.131137233974826 7.689570175417655 -1.9999999999999991
  endloop
endfacet
facet normal 0.0 0.0 -1.0
  outer loop
    vertex 8.066821832785621 1.3530424502350176 -1.9999999999999998
    vertex 7.131137233974826 7.689570175417655 -1.9999999999999991
    vertex 7.302838557029876 7.465804654661909 -1.9999999999999991
  endloop
endfacet
facet normal 0.0 0.0 -1.0
  outer loop
    vertex 8.066821832785621 1.3530424502350176 -1.9999999999999998
    vertex 7.302838557029876 7.465804654661909 -1.9999999999999991
    vertex 7.526604077785623 7.294103331606858 -1.9999999999999991
  endloop
endfacet
facet normal 0.0 0.0 -1.0
  outer loop
    vertex 8.066821832785621 1.3530424502350176 -1.9999999999999998
    vertex 7.526604077785623 7.294103331606858 -1.9999999999999991
    vertex 7.787184545792568 7.186167367668854 -1.9999999999999991
  endloop
endfacet
facet normal 0.0 0.0 -1.0
  outer loop
    vertex 8.066821832785621 1.3530424502350176 -1.9999999999999998
    vertex 7.787184545792568 7.186167367668854 -1.9999999999999991
    vertex 8.066821832785623 7.149352420417656 -1.9999999999999991
  endloop
endfacet
facet normal 0.0 0.0 -1.0
  outer loop
    vertex 8.066821832785621 1.3530424502350176 -1.9999999999999998
    vertex 8.066821832785623 7.149352420417656 -1.9999999999999991
    vertex 8.682846924877044 1.3272222417831925 -1.9999999999999998
  endloop
endfacet
facet normal 0.0 0.0 -1.0
  outer loop
    vertex 8.682846924877044 1.3272222417831925 -1.9999999999999998
    vertex 8.066821832785623 7.149352420417656 -1.9999999999999991
    vertex 8.346459119778677 7.186167367668854 -1.9999999999999991
  endloop
endfacet
facet normal 0.0 0.0 -1.0
  outer loop
    vertex 8.682846924877044 1.3272222417831925 -1.9999999999999998
    vertex 8.346459119778677 7.186167367668854 -1.9999999999999991
    vertex 8.607039587785621 7.294103331606859 -1.9999999999999991
  endloop
endfacet
facet normal 0.0 0.0 -1.0
  outer loop
    vertex 8.682846924877044 1.3272222417831925 -1.9999999999999998
    vertex 8.607039587785621 7.294103331606859 -1.9999999999999991
    vertex 8.830805108541368 7.465804654661909 -1.9999999999999991
  endloop
endfacet
facet normal 0.0 0.0 -1.0
  outer loop
    vertex 8.682846924877044 1.3272222417831925 -1.9999999999999998
    vertex 8.830805108541368 7.465804654661909 -1.9999999999999991
    vertex 10.44837183916862 1.7218604902031334 -1.9999999999999998
  endloop
endfacet
facet normal 0.0 0.0 -1.0
  outer loop
    vertex 10.44837183916862 1.7218604902031334 -1.9999999999999998
    vertex 8.830805108541368 7.465804654661909 -1.9999999999999991
    vertex 9.002506431596418 7.689570175417656 -1.9999999999999991
  endloop
endfacet
facet normal 0.0 0.0 -1.0
  outer loop
    vertex 10.44837183916862 1.7218604902031334 -1.9999999999999998
    vertex 9.002506431596418 7.689570175417656 -1.9999999999999991
    vertex 9.110442395534424 7.950150643424601 -1.9999999999999991
  endloop
endfacet
facet normal 0.0 0.0 -1.0
  outer loop
    vertex 10.44837183916862 1.7218604902031334 -1.9999999999999998
    vertex 9.110442395534424 7.950150643424601 -1.9999999999999991
    vertex 9.147257342785622 8.229787930417656 -1.9999999999999991
  endloop
endfacet
facet normal 0.0 0.0 -1.0
  outer loop
    vertex 10.44837183916862 1.7218604902031334 -1.9999999999999998
    vertex 9.147257342785622 8.229787930417656 -1.9999999999999991
    vertex 9.258302746982215 15.056593422820765 -1.9999999999999998
  endloop
endfacet
facet normal 0.0 0.0 -1.0
  outer loop
    vertex 10.44837183916862 1.7218604902031334 -1.9999999999999998
    vertex 9.258302746982215 15.056593422820765 -1.9999999999999998
    vertex 10.984611297983037 14.515597714111639 -1.9999999999999998
  endloop
endfacet
facet normal 0.0 0.0 -1.0
  outer loop
    vertex 10.44837183916862 1.7218604902031334 -1.9999999999999998
    vertex 10.984611297983037 14.515597714111639 -1.9999999999999998
    vertex 11.249984947695648 2.1409318645091124 -1.9999999999999998
  endloop
endfacet
facet normal 0.0 0.0 -1.0
  outer loop
    vertex 11.249984947695648 2.1409318645091124 -1.9999999999999998
    vertex 10.984611297983037 14.515597714111639 -1.9999999999999998
    vertex 12.512077318805733 13.546234456435585 -1.9999999999999998
  endloop
endfacet
facet normal 0.0 0.0 -1.0
  outer loop
    vertex 11.249984947695648 2.1409318645091124 -1.9999999999999998
    vertex 12.512077318805733 13.546234456435585 -1.9999999999999998
    vertex 12.051598056222673 2.560003238815092 -1.9999999999999998
  endloop
endfacet
facet normal 0.0 0.0 -1.0
  outer loop
    vertex 12.051598056222673 2.560003238815092 -1.9999999999999998
    vertex 12.512077318805733 13.546234456435585 -1.9999999999999998
    vertex 13.383268358803551 3.7845324443975463 -1.9999999999999998
  endloop
endfacet
facet normal 0.0 0.0 -1.0
  outer loop
    vertex 13.383268358803551 3.7845324443975463 -1.9999999999999998
    vertex 12.512077318805733 13.546234456435585 -1.9999999999999998
    vertex 13.736606524388186 12.214564153854704 -1.9999999999999998
  endloop
endfacet
facet normal 0.0 0.0 -1.0
  outer loop
    vertex 13.383268358803551 3.7845324443975463 -1.9999999999999998
    vertex 13.736606524388186 12.214564153854704 -1.9999999999999998
    vertex 14.352631616479604 5.31199846522024 -1.9999999999999998
  endloop
endfacet
facet normal 0.0 0.0 -1.0
  outer loop
    vertex 14.352631616479604 5.31199846522024 -1.9999999999999998
    vertex 13.736606524388186 12.214564153854704 -1.9999999999999998
    vertex 14.574749273000146 10.611337936800654 -1.9999999999999998
  endloop
endfacet
facet normal 0.0 0.0 -1.0
  outer loop
    vertex 14.352631616479604 5.31199846522024 -1.9999999999999998
    vertex 14.574749273000146 10.611337936800654 -1.9999999999999998
    vertex 14.893627325188733 7.038307016221064 -1.9999999999999998
  endloop
endfacet
facet normal 0.0 0.0 -1.0
  outer loop
    vertex 14.893627325188733 7.038307016221064 -1.9999999999999998
    vertex 14.574749273000146 10.611337936800654 -1.9999999999999998
    vertex 14.969387521420087 8.845813022509073 -1.9999999999999998
  endloop
endfacet
facet normal 0.0 0.0 -1.0
  outer loop
    vertex 14.893627325188733 7.038307016221064 -1.9999999999999998
    vertex 14.969387521420087 8.845813022509073 -1.9999999999999998
    vertex 14.943201752626088 8.221066298914486 -1.9999999999999998
  endloop
endfacet
facet normal -0.9759171533490788 -0.2181414903200001 0.0
  outer loop
    vertex 1.1642561441511594 7.613762838326234 -0.020000000000000174
    vertex 1.5588943925711 5.848237924034656 -1.9999999999999998
    vertex 1.5588943925711 5.848237924034656 -0.020000000000000174
  endloop
endfacet
facet normal -0.9759171533490788 -0.2181414903200001 0.0
  outer loop
    vertex 1.5588943925711 5.848237924034656 -1.9999999999999998
    vertex 1.1642561441511594 7.613762838326234 -0.020000000000000174
    vertex 1.1642561441511594 7.613762838326234 -1.9999999999999998
  endloop
endfacet
facet normal -0.9991227549602475 0.04187744644370442 0.0
  outer loop
    vertex 1.1904419129451582 8.238509561920825 -0.020000000000000174
    vertex 1.1642561441511594 7.613762838326234 -1.9999999999999998
    vertex 1.1642561441511594 7.613762838326234 -0.020000000000000174
  endloop
endfacet
facet normal -0.9991227549602475 0.04187744644370442 0.0
  outer loop
    vertex 1.1642561441511594 7.613762838326234 -1.9999999999999998
    vertex 1.1904419129451582 8.238509561920825 -0.020000000000000174
    vertex 1.1904419129451582 8.238509561920825 -1.9999999999999998
  endloop
endfacet
facet normal -0.9991227549602475 0.04187744644370308 0.0
  outer loop
    vertex 1.2400163403825126 9.421268844614241 -0.020000000000000174
    vertex 1.1904419129451582 8.238509561920825 -1.9999999999999998
    vertex 1.1904419129451582 8.238509561920825 -0.020000000000000174
  endloop
endfacet
facet normal -0.9991227549602475 0.04187744644370308 0.0
  outer loop
    vertex 1.1904419129451582 8.238509561920825 -1.9999999999999998
    vertex 1.2400163403825126 9.421268844614241 -0.020000000000000174
    vertex 1.2400163403825126 9.421268844614241 -1.9999999999999998
  endloop
endfacet
facet normal -0.9542397919492963 0.29904250443802133 0.0
  outer loop
    vertex 1.781012049091639 11.14757739561507 -0.020000000000000174
    vertex 1.2400163403825126 9.421268844614241 -1.9999999999999998
    vertex 1.2400163403825126 9.421268844614241 -0.020000000000000174
  endloop
endfacet
facet normal -0.9542397919492963 0.29904250443802133 0.0
  outer loop
    vertex 1.2400163403825126 9.421268844614241 -1.9999999999999998
    vertex 1.781012049091639 11.14757739561507 -0.020000000000000174
    vertex 1.781012049091639 11.14757739561507 -1.9999999999999998
  endloop
endfacet
facet normal -0.8443269640728173 0.5358283099459934 0.0
  outer loop
    vertex 2.750375306767691 12.675043416437765 -0.020000000000000174
    vertex 1.781012049091639 11.14757739561507 -1.9999999999999998
    vertex 1.781012049091639 11.14757739561507 -0.020000000000000174
  endloop
endfacet
facet normal -0.8443269640728173 0.5358283099459934 0.0
  outer loop
    vertex 1.781012049091639 11.14757739561507 -1.9999999999999998
    vertex 2.750375306767691 12.675043416437765 -0.020000000000000174
    vertex 2.750375306767691 12.675043416437765 -1.9999999999999998
  endloop
endfacet
facet normal -0.6768746489110563 0.7360983016292963 0.0
  outer loop
    vertex 2.750375306767691 12.675043416437765 -0.020000000000000174
    vertex 4.08204560934857 13.899572622020214 -1.9999999999999998
    vertex 2.750375306767691 12.675043416437765 -1.9999999999999998
  endloop
endfacet
facet normal -0.6768746489110563 0.7360983016292963 0.0
  outer loop
    vertex 4.08204560934857 13.899572622020214 -1.9999999999999998
    vertex 2.750375306767691 12.675043416437765 -0.020000000000000174
    vertex 4.08204560934857 13.899572622020214 -0.020000000000000174
  endloop
endfacet
facet normal -0.46329444501425465 0.8862044105165208 0.0
  outer loop
    vertex 4.08204560934857 13.899572622020214 -0.020000000000000174
    vertex 5.685271826402624 14.737715370632179 -1.9999999999999998
    vertex 4.08204560934857 13.899572622020214 -1.9999999999999998
  endloop
endfacet
facet normal -0.46329444501425465 0.8862044105165208 0.0
  outer loop
    vertex 5.685271826402624 14.737715370632179 -1.9999999999999998
    vertex 4.08204560934857 13.899572622020214 -0.020000000000000174
    vertex 5.685271826402624 14.737715370632179 -0.020000000000000174
  endloop
endfacet
facet normal -0.21814149032000055 0.9759171533490787 0.0
  outer loop
    vertex 5.685271826402624 14.737715370632179 -0.020000000000000174
    vertex 7.450796740694203 15.13235361905212 -1.9999999999999998
    vertex 5.685271826402624 14.737715370632179 -1.9999999999999998
  endloop
endfacet
facet normal -0.21814149032000055 0.9759171533490787 0.0
  outer loop
    vertex 7.450796740694203 15.13235361905212 -1.9999999999999998
    vertex 5.685271826402624 14.737715370632179 -0.020000000000000174
    vertex 7.450796740694203 15.13235361905212 -0.020000000000000174
  endloop
endfacet
facet normal 0.041877446443706265 0.9991227549602475 0.0
  outer loop
    vertex 7.450796740694203 15.13235361905212 -0.020000000000000174
    vertex 8.066821832785621 15.106533410600294 -1.9999999999999998
    vertex 7.450796740694203 15.13235361905212 -1.9999999999999998
  endloop
endfacet
facet normal 0.041877446443706265 0.9991227549602475 0.0
  outer loop
    vertex 8.066821832785621 15.106533410600294 -1.9999999999999998
    vertex 7.450796740694203 15.13235361905212 -0.020000000000000174
    vertex 8.066821832785621 15.106533410600294 -0.020000000000000174
  endloop
endfacet
facet normal 0.04187744644370437 0.9991227549602475 0.0
  outer loop
    vertex 8.066821832785621 15.106533410600294 -0.020000000000000174
    vertex 9.258302746982215 15.056593422820765 -1.9999999999999998
    vertex 8.066821832785621 15.106533410600294 -1.9999999999999998
  endloop
endfacet
facet normal 0.04187744644370437 0.9991227549602475 0.0
  outer loop
    vertex 9.258302746982215 15.056593422820765 -1.9999999999999998
    vertex 8.066821832785621 15.106533410600294 -0.020000000000000174
    vertex 9.258302746982215 15.056593422820765 -0.020000000000000174
  endloop
endfacet
facet normal 0.2990425044380213 0.9542397919492962 0.0
  outer loop
    vertex 9.258302746982215 15.056593422820765 -0.020000000000000174
    vertex 10.984611297983037 14.515597714111639 -1.9999999999999998
    vertex 9.258302746982215 15.056593422820765 -1.9999999999999998
  endloop
endfacet
facet normal 0.2990425044380213 0.9542397919492962 0.0
  outer loop
    vertex 10.984611297983037 14.515597714111639 -1.9999999999999998
    vertex 9.258302746982215 15.056593422820765 -0.020000000000000174
    vertex 10.984611297983037 14.515597714111639 -0.020000000000000174
  endloop
endfacet
facet normal 0.5358283099459937 0.844326964072817 0.0
  outer loop
    vertex 10.984611297983037 14.515597714111639 -0.020000000000000174
    vertex 12.512077318805733 13.546234456435585 -1.9999999999999998
    vertex 10.984611297983037 14.515597714111639 -1.9999999999999998
  endloop
endfacet
facet normal 0.5358283099459937 0.844326964072817 0.0
  outer loop
    vertex 12.512077318805733 13.546234456435585 -1.9999999999999998
    vertex 10.984611297983037 14.515597714111639 -0.020000000000000174
    vertex 12.512077318805733 13.546234456435585 -0.020000000000000174
  endloop
endfacet
facet normal 0.7360983016292961 0.6768746489110565 0.0
  outer loop
    vertex 12.512077318805733 13.546234456435585 -1.9999999999999998
    vertex 13.736606524388186 12.214564153854704 -0.020000000000000174
    vertex 13.736606524388186 12.214564153854704 -1.9999999999999998
  endloop
endfacet
facet normal 0.7360983016292961 0.6768746489110565 0.0
  outer loop
    vertex 13.736606524388186 12.214564153854704 -0.020000000000000174
    vertex 12.512077318805733 13.546234456435585 -1.9999999999999998
    vertex 12.512077318805733 13.546234456435585 -0.020000000000000174
  endloop
endfacet
facet normal 0.886204410516521 0.463294445014254 0.0
  outer loop
    vertex 13.736606524388186 12.214564153854704 -1.9999999999999998
    vertex 14.574749273000146 10.611337936800654 -0.020000000000000174
    vertex 14.574749273000146 10.611337936800654 -1.9999999999999998
  endloop
endfacet
facet normal 0.886204410516521 0.463294445014254 0.0
  outer loop
    vertex 14.574749273000146 10.611337936800654 -0.020000000000000174
    vertex 13.736606524388186 12.214564153854704 -1.9999999999999998
    vertex 13.736606524388186 12.214564153854704 -0.020000000000000174
  endloop
endfacet
facet normal 0.9759171533490791 0.21814149031999913 0.0
  outer loop
    vertex 14.574749273000146 10.611337936800654 -1.9999999999999998
    vertex 14.969387521420087 8.845813022509073 -0.020000000000000174
    vertex 14.969387521420087 8.845813022509073 -1.9999999999999998
  endloop
endfacet
facet normal 0.9759171533490791 0.21814149031999913 0.0
  outer loop
    vertex 14.969387521420087 8.845813022509073 -0.020000000000000174
    vertex 14.574749273000146 10.611337936800654 -1.9999999999999998
    vertex 14.574749273000146 10.611337936800654 -0.020000000000000174
  endloop
endfacet
facet normal 0.9991227549602477 -0.04187744644369912 0.0
  outer loop
    vertex 14.969387521420087 8.845813022509073 -1.9999999999999998
    vertex 14.943201752626088 8.221066298914486 -0.020000000000000174
    vertex 14.943201752626088 8.221066298914486 -1.9999999999999998
  endloop
endfacet
facet normal 0.9991227549602477 -0.04187744644369912 0.0
  outer loop
    vertex 14.943201752626088 8.221066298914486 -0.020000000000000174
    vertex 14.969387521420087 8.845813022509073 -1.9999999999999998
    vertex 14.969387521420087 8.845813022509073 -0.020000000000000174
  endloop
endfacet
facet normal 0.9991227549602475 -0.04187744644370582 0.0
  outer loop
    vertex 14.943201752626088 8.221066298914486 -1.9999999999999998
    vertex 14.893627325188733 7.038307016221064 -0.020000000000000174
    vertex 14.893627325188733 7.038307016221064 -1.9999999999999998
  endloop
endfacet
facet normal 0.9991227549602475 -0.04187744644370582 0.0
  outer loop
    vertex 14.893627325188733 7.038307016221064 -0.020000000000000174
    vertex 14.943201752626088 8.221066298914486 -1.9999999999999998
    vertex 14.943201752626088 8.221066298914486 -0.020000000000000174
  endloop
endfacet
facet normal 0.9542397919492958 -0.29904250443802255 0.0
  outer loop
    vertex 14.893627325188733 7.038307016221064 -1.9999999999999998
    vertex 14.352631616479604 5.31199846522024 -0.020000000000000174
    vertex 14.352631616479604 5.31199846522024 -1.9999999999999998
  endloop
endfacet
facet normal 0.9542397919492958 -0.29904250443802255 0.0
  outer loop
    vertex 14.352631616479604 5.31199846522024 -0.020000000000000174
    vertex 14.893627325188733 7.038307016221064 -1.9999999999999998
    vertex 14.893627325188733 7.038307016221064 -0.020000000000000174
  endloop
endfacet
facet normal 0.8443269640728168 -0.5358283099459941 0.0
  outer loop
    vertex 14.352631616479604 5.31199846522024 -1.9999999999999998
    vertex 13.383268358803551 3.7845324443975463 -0.020000000000000174
    vertex 13.383268358803551 3.7845324443975463 -1.9999999999999998
  endloop
endfacet
facet normal 0.8443269640728168 -0.5358283099459941 0.0
  outer loop
    vertex 13.383268358803551 3.7845324443975463 -0.020000000000000174
    vertex 14.352631616479604 5.31199846522024 -1.9999999999999998
    vertex 14.352631616479604 5.31199846522024 -0.020000000000000174
  endloop
endfacet
facet normal 0.676874648911058 -0.7360983016292948 0.0
  outer loop
    vertex 13.383268358803551 3.7845324443975463 -0.020000000000000174
    vertex 12.051598056222673 2.560003238815092 -1.9999999999999998
    vertex 13.383268358803551 3.7845324443975463 -1.9999999999999998
  endloop
endfacet
facet normal 0.676874648911058 -0.7360983016292948 0.0
  outer loop
    vertex 12.051598056222673 2.560003238815092 -1.9999999999999998
    vertex 13.383268358803551 3.7845324443975463 -0.020000000000000174
    vertex 12.051598056222673 2.560003238815092 -0.020000000000000174
  endloop
endfacet
facet normal 0.4632944450142534 -0.8862044105165213 0.0
  outer loop
    vertex 12.051598056222673 2.560003238815092 -0.020000000000000174
    vertex 11.249984947695648 2.1409318645091124 -1.9999999999999998
    vertex 12.051598056222673 2.560003238815092 -1.9999999999999998
  endloop
endfacet
facet normal 0.4632944450142534 -0.8862044105165213 0.0
  outer loop
    vertex 11.249984947695648 2.1409318645091124 -1.9999999999999998
    vertex 12.051598056222673 2.560003238815092 -0.020000000000000174
    vertex 11.249984947695648 2.1409318645091124 -0.020000000000000174
  endloop
endfacet
facet normal 0.46329444501425276 -0.8862044105165218 0.0
  outer loop
    vertex 11.249984947695648 2.1409318645091124 -0.020000000000000174
    vertex 10.44837183916862 1.7218604902031334 -1.9999999999999998
    vertex 11.249984947695648 2.1409318645091124 -1.9999999999999998
  endloop
endfacet
facet normal 0.46329444501425276 -0.8862044105165218 0.0
  outer loop
    vertex 10.44837183916862 1.7218604902031334 -1.9999999999999998
    vertex 11.249984947695648 2.1409318645091124 -0.020000000000000174
    vertex 10.44837183916862 1.7218604902031334 -0.020000000000000174
  endloop
endfacet
facet normal 0.2181414903200002 -0.9759171533490788 0.0
  outer loop
    vertex 10.44837183916862 1.7218604902031334 -0.020000000000000174
    vertex 8.682846924877044 1.3272222417831925 -1.9999999999999998
    vertex 10.44837183916862 1.7218604902031334 -1.9999999999999998
  endloop
endfacet
facet normal 0.2181414903200002 -0.9759171533490788 0.0
  outer loop
    vertex 8.682846924877044 1.3272222417831925 -1.9999999999999998
    vertex 10.44837183916862 1.7218604902031334 -0.020000000000000174
    vertex 8.682846924877044 1.3272222417831925 -0.020000000000000174
  endloop
endfacet
facet normal -0.0418774464437025 -0.9991227549602477 0.0
  outer loop
    vertex 8.682846924877044 1.3272222417831925 -0.020000000000000174
    vertex 8.066821832785621 1.3530424502350176 -1.9999999999999998
    vertex 8.682846924877044 1.3272222417831925 -1.9999999999999998
  endloop
endfacet
facet normal -0.0418774464437025 -0.9991227549602477 0.0
  outer loop
    vertex 8.066821832785621 1.3530424502350176 -1.9999999999999998
    vertex 8.682846924877044 1.3272222417831925 -0.020000000000000174
    vertex 8.066821832785621 1.3530424502350176 -0.020000000000000174
  endloop
endfacet
facet normal -0.041877446443703926 -0.9991227549602475 0.0
  outer loop
    vertex 8.066821832785621 1.3530424502350176 -0.020000000000000174
    vertex 6.875340918589031 1.4029824380145457 -1.9999999999999998
    vertex 8.066821832785621 1.3530424502350176 -1.9999999999999998
  endloop
endfacet
facet normal -0.041877446443703926 -0.9991227549602475 0.0
  outer loop
    vertex 6.875340918589031 1.4029824380145457 -1.9999999999999998
    vertex 8.066821832785621 1.3530424502350176 -0.020000000000000174
    vertex 6.875340918589031 1.4029824380145457 -0.020000000000000174
  endloop
endfacet
facet normal -0.2990425044380221 -0.9542397919492961 0.0
  outer loop
    vertex 6.875340918589031 1.4029824380145457 -0.020000000000000174
    vertex 5.149032367588211 1.9439781467236714 -1.9999999999999998
    vertex 6.875340918589031 1.4029824380145457 -1.9999999999999998
  endloop
endfacet
facet normal -0.2990425044380221 -0.9542397919492961 0.0
  outer loop
    vertex 5.149032367588211 1.9439781467236714 -1.9999999999999998
    vertex 6.875340918589031 1.4029824380145457 -0.020000000000000174
    vertex 5.149032367588211 1.9439781467236714 -0.020000000000000174
  endloop
endfacet
facet normal -0.5358283099459934 -0.8443269640728174 0.0
  outer loop
    vertex 5.149032367588211 1.9439781467236714 -0.020000000000000174
    vertex 3.621566346765514 2.913341404399724 -1.9999999999999998
    vertex 5.149032367588211 1.9439781467236714 -1.9999999999999998
  endloop
endfacet
facet normal -0.5358283099459934 -0.8443269640728174 0.0
  outer loop
    vertex 3.621566346765514 2.913341404399724 -1.9999999999999998
    vertex 5.149032367588211 1.9439781467236714 -0.020000000000000174
    vertex 3.621566346765514 2.913341404399724 -0.020000000000000174
  endloop
endfacet
facet normal -0.7360983016292953 -0.6768746489110573 0.0
  outer loop
    vertex 2.397037141183061 4.245011706980603 -0.020000000000000174
    vertex 3.621566346765514 2.913341404399724 -1.9999999999999998
    vertex 3.621566346765514 2.913341404399724 -0.020000000000000174
  endloop
endfacet
facet normal -0.7360983016292953 -0.6768746489110573 0.0
  outer loop
    vertex 3.621566346765514 2.913341404399724 -1.9999999999999998
    vertex 2.397037141183061 4.245011706980603 -0.020000000000000174
    vertex 2.397037141183061 4.245011706980603 -1.9999999999999998
  endloop
endfacet
facet normal -0.886204410516521 -0.4632944450142538 0.0
  outer loop
    vertex 1.5588943925711 5.848237924034656 -0.020000000000000174
    vertex 2.397037141183061 4.245011706980603 -1.9999999999999998
    vertex 2.397037141183061 4.245011706980603 -0.020000000000000174
  endloop
endfacet
facet normal -0.886204410516521 -0.4632944450142538 0.0
  outer loop
    vertex 2.397037141183061 4.245011706980603 -1.9999999999999998
    vertex 1.5588943925711 5.848237924034656 -0.020000000000000174
    vertex 1.5588943925711 5.848237924034656 -1.9999999999999998
  endloop
endfacet
facet normal 0.9914448613738107 -0.13052619222005055 0.0
  outer loop
    vertex 7.023201270036821 8.50942521741071 -1.9999999999999991
    vertex 6.986386322785622 8.229787930417656 1.4808409899999997
    vertex 6.986386322785622 8.229787930417656 -1.9999999999999991
  endloop
endfacet
facet normal 0.9914448613738107 -0.13052619222005055 0.0
  outer loop
    vertex 6.986386322785622 8.229787930417656 1.4808409899999997
    vertex 7.023201270036821 8.50942521741071 -1.9999999999999991
    vertex 7.023201270036821 8.50942521741071 1.4808409899999997
  endloop
endfacet
facet normal 0.9914448613738107 0.13052619222005055 0.0
  outer loop
    vertex 6.986386322785622 8.229787930417656 -1.9999999999999991
    vertex 7.023201270036821 7.9501506434246 1.4808409899999997
    vertex 7.023201270036821 7.9501506434246 -1.9999999999999991
  endloop
endfacet
facet normal 0.9914448613738107 0.13052619222005055 0.0
  outer loop
    vertex 7.023201270036821 7.9501506434246 1.4808409899999997
    vertex 6.986386322785622 8.229787930417656 -1.9999999999999991
    vertex 6.986386322785622 8.229787930417656 1.4808409899999997
  endloop
endfacet
facet normal 0.9238795325112862 0.3826834323650916 0.0
  outer loop
    vertex 7.023201270036821 7.9501506434246 -1.9999999999999991
    vertex 7.131137233974826 7.689570175417655 1.4808409899999997
    vertex 7.131137233974826 7.689570175417655 -1.9999999999999991
  endloop
endfacet
facet normal 0.9238795325112862 0.3826834323650916 0.0
  outer loop
    vertex 7.131137233974826 7.689570175417655 1.4808409899999997
    vertex 7.023201270036821 7.9501506434246 -1.9999999999999991
    vertex 7.023201270036821 7.9501506434246 1.4808409899999997
  endloop
endfacet
facet normal 0.7933533402912344 0.6087614290087215 0.0
  outer loop
    vertex 7.131137233974826 7.689570175417655 -1.9999999999999991
    vertex 7.302838557029876 7.465804654661909 1.4808409899999997
    vertex 7.302838557029876 7.465804654661909 -1.9999999999999991
  endloop
endfacet
facet normal 0.7933533402912344 0.6087614290087215 0.0
  outer loop
    vertex 7.302838557029876 7.465804654661909 1.4808409899999997
    vertex 7.131137233974826 7.689570175417655 -1.9999999999999991
    vertex 7.131137233974826 7.689570175417655 1.4808409899999997
  endloop
endfacet
facet normal 0.6087614290087223 0.793353340291234 0.0
  outer loop
    vertex 7.302838557029876 7.465804654661909 1.4808409899999997
    vertex 7.526604077785623 7.294103331606858 -1.9999999999999991
    vertex 7.302838557029876 7.465804654661909 -1.9999999999999991
  endloop
endfacet
facet normal 0.6087614290087223 0.793353340291234 0.0
  outer loop
    vertex 7.526604077785623 7.294103331606858 -1.9999999999999991
    vertex 7.302838557029876 7.465804654661909 1.4808409899999997
    vertex 7.526604077785623 7.294103331606858 1.4808409899999997
  endloop
endfacet
facet normal 0.38268343236508734 0.9238795325112878 0.0
  outer loop
    vertex 7.526604077785623 7.294103331606858 1.4808409899999997
    vertex 7.787184545792568 7.186167367668854 -1.9999999999999991
    vertex 7.526604077785623 7.294103331606858 -1.9999999999999991
  endloop
endfacet
facet normal 0.38268343236508734 0.9238795325112878 0.0
  outer loop
    vertex 7.787184545792568 7.186167367668854 -1.9999999999999991
    vertex 7.526604077785623 7.294103331606858 1.4808409899999997
    vertex 7.787184545792568 7.186167367668854 1.4808409899999997
  endloop
endfacet
facet normal 0.13052619222005116 0.9914448613738106 0.0
  outer loop
    vertex 7.787184545792568 7.186167367668854 1.4808409899999997
    vertex 8.066821832785623 7.149352420417656 -1.9999999999999991
    vertex 7.787184545792568 7.186167367668854 -1.9999999999999991
  endloop
endfacet
facet normal 0.13052619222005116 0.9914448613738106 0.0
  outer loop
    vertex 8.066821832785623 7.149352420417656 -1.9999999999999991
    vertex 7.787184545792568 7.186167367668854 1.4808409899999997
    vertex 8.066821832785623 7.149352420417656 1.4808409899999997
  endloop
endfacet
facet normal -0.13052619222005055 0.9914448613738107 -0.0
  outer loop
    vertex 8.066821832785623 7.149352420417656 1.4808409899999997
    vertex 8.346459119778677 7.186167367668854 -1.9999999999999991
    vertex 8.066821832785623 7.149352420417656 -1.9999999999999991
  endloop
endfacet
facet normal -0.13052619222005055 0.9914448613738107 -0.0
  outer loop
    vertex 8.346459119778677 7.186167367668854 -1.9999999999999991
    vertex 8.066821832785623 7.149352420417656 1.4808409899999997
    vertex 8.346459119778677 7.186167367668854 1.4808409899999997
  endloop
endfacet
facet normal -0.3826834323650916 0.9238795325112862 -0.0
  outer loop
    vertex 8.346459119778677 7.186167367668854 1.4808409899999997
    vertex 8.607039587785621 7.294103331606859 -1.9999999999999991
    vertex 8.346459119778677 7.186167367668854 -1.9999999999999991
  endloop
endfacet
facet normal -0.3826834323650916 0.9238795325112862 -0.0
  outer loop
    vertex 8.607039587785621 7.294103331606859 -1.9999999999999991
    vertex 8.346459119778677 7.186167367668854 1.4808409899999997
    vertex 8.607039587785621 7.294103331606859 1.4808409899999997
  endloop
endfacet
facet normal -0.6087614290087215 0.7933533402912344 -0.0
  outer loop
    vertex 8.607039587785621 7.294103331606859 1.4808409899999997
    vertex 8.830805108541368 7.465804654661909 -1.9999999999999991
    vertex 8.607039587785621 7.294103331606859 -1.9999999999999991
  endloop
endfacet
facet normal -0.6087614290087215 0.7933533402912344 -0.0
  outer loop
    vertex 8.830805108541368 7.465804654661909 -1.9999999999999991
    vertex 8.607039587785621 7.294103331606859 1.4808409899999997
    vertex 8.830805108541368 7.465804654661909 1.4808409899999997
  endloop
endfacet
facet normal -0.7933533402912364 0.6087614290087191 -0.0
  outer loop
    vertex 9.002506431596418 7.689570175417656 1.4808409899999997
    vertex 8.830805108541368 7.465804654661909 -1.9999999999999991
    vertex 8.830805108541368 7.465804654661909 1.4808409899999997
  endloop
endfacet
facet normal -0.7933533402912364 0.6087614290087191 -0.0
  outer loop
    vertex 8.830805108541368 7.465804654661909 -1.9999999999999991
    vertex 9.002506431596418 7.689570175417656 1.4808409899999997
    vertex 9.002506431596418 7.689570175417656 -1.9999999999999991
  endloop
endfacet
facet normal -0.9238795325112862 0.3826834323650916 -0.0
  outer loop
    vertex 9.110442395534424 7.950150643424601 1.4808409899999997
    vertex 9.002506431596418 7.689570175417656 -1.9999999999999991
    vertex 9.002506431596418 7.689570175417656 1.4808409899999997
  endloop
endfacet
facet normal -0.9238795325112862 0.3826834323650916 -0.0
  outer loop
    vertex 9.002506431596418 7.689570175417656 -1.9999999999999991
    vertex 9.110442395534424 7.950150643424601 1.4808409899999997
    vertex 9.110442395534424 7.950150643424601 -1.9999999999999991
  endloop
endfacet
facet normal -0.9914448613738106 0.13052619222005116 -0.0
  outer loop
    vertex 9.147257342785622 8.229787930417656 1.4808409899999997
    vertex 9.110442395534424 7.950150643424601 -1.9999999999999991
    vertex 9.110442395534424 7.950150643424601 1.4808409899999997
  endloop
endfacet
facet normal -0.9914448613738106 0.13052619222005116 -0.0
  outer loop
    vertex 9.110442395534424 7.950150643424601 -1.9999999999999991
    vertex 9.147257342785622 8.229787930417656 1.4808409899999997
    vertex 9.147257342785622 8.229787930417656 -1.9999999999999991
  endloop
endfacet
facet normal -0.9914448613738107 -0.13052619222005055 0.0
  outer loop
    vertex 9.110442395534424 8.50942521741071 1.4808409899999997
    vertex 9.147257342785622 8.229787930417656 -1.9999999999999991
    vertex 9.147257342785622 8.229787930417656 1.4808409899999997
  endloop
endfacet
facet normal -0.9914448613738107 -0.13052619222005055 0.0
  outer loop
    vertex 9.147257342785622 8.229787930417656 -1.9999999999999991
    vertex 9.110442395534424 8.50942521741071 1.4808409899999997
    vertex 9.110442395534424 8.50942521741071 -1.9999999999999991
  endloop
endfacet
facet normal -0.9238795325112862 -0.3826834323650916 0.0
  outer loop
    vertex 9.002506431596418 8.770005685417656 1.4808409899999997
    vertex 9.110442395534424 8.50942521741071 -1.9999999999999991
    vertex 9.110442395534424 8.50942521741071 1.4808409899999997
  endloop
endfacet
facet normal -0.9238795325112862 -0.3826834323650916 0.0
  outer loop
    vertex 9.110442395534424 8.50942521741071 -1.9999999999999991
    vertex 9.002506431596418 8.770005685417656 1.4808409899999997
    vertex 9.002506431596418 8.770005685417656 -1.9999999999999991
  endloop
endfacet
facet normal -0.7933533402912344 -0.6087614290087215 0.0
  outer loop
    vertex 8.830805108541368 8.9937712061734 1.4808409899999997
    vertex 9.002506431596418 8.770005685417656 -1.9999999999999991
    vertex 9.002506431596418 8.770005685417656 1.4808409899999997
  endloop
endfacet
facet normal -0.7933533402912344 -0.6087614290087215 0.0
  outer loop
    vertex 9.002506431596418 8.770005685417656 -1.9999999999999991
    vertex 8.830805108541368 8.9937712061734 1.4808409899999997
    vertex 8.830805108541368 8.9937712061734 -1.9999999999999991
  endloop
endfacet
facet normal -0.6087614290087223 -0.793353340291234 0.0
  outer loop
    vertex 8.830805108541368 8.9937712061734 1.4808409899999997
    vertex 8.607039587785621 9.165472529228452 -1.9999999999999991
    vertex 8.830805108541368 8.9937712061734 -1.9999999999999991
  endloop
endfacet
facet normal -0.6087614290087223 -0.793353340291234 0.0
  outer loop
    vertex 8.607039587785621 9.165472529228452 -1.9999999999999991
    vertex 8.830805108541368 8.9937712061734 1.4808409899999997
    vertex 8.607039587785621 9.165472529228452 1.4808409899999997
  endloop
endfacet
facet normal -0.38268343236508906 -0.9238795325112871 0.0
  outer loop
    vertex 8.607039587785621 9.165472529228452 1.4808409899999997
    vertex 8.346459119778677 9.273408493166457 -1.9999999999999991
    vertex 8.607039587785621 9.165472529228452 -1.9999999999999991
  endloop
endfacet
facet normal -0.38268343236508906 -0.9238795325112871 0.0
  outer loop
    vertex 8.346459119778677 9.273408493166457 -1.9999999999999991
    vertex 8.607039587785621 9.165472529228452 1.4808409899999997
    vertex 8.346459119778677 9.273408493166457 1.4808409899999997
  endloop
endfacet
facet normal -0.13052619222005055 -0.9914448613738107 0.0
  outer loop
    vertex 8.346459119778677 9.273408493166457 1.4808409899999997
    vertex 8.066821832785623 9.310223440417655 -1.9999999999999991
    vertex 8.346459119778677 9.273408493166457 -1.9999999999999991
  endloop
endfacet
facet normal -0.13052619222005055 -0.9914448613738107 0.0
  outer loop
    vertex 8.066821832785623 9.310223440417655 -1.9999999999999991
    vertex 8.346459119778677 9.273408493166457 1.4808409899999997
    vertex 8.066821832785623 9.310223440417655 1.4808409899999997
  endloop
endfacet
facet normal 0.13052619222005055 -0.9914448613738107 0.0
  outer loop
    vertex 8.066821832785623 9.310223440417655 1.4808409899999997
    vertex 7.787184545792567 9.273408493166457 -1.9999999999999991
    vertex 8.066821832785623 9.310223440417655 -1.9999999999999991
  endloop
endfacet
facet normal 0.13052619222005055 -0.9914448613738107 0.0
  outer loop
    vertex 7.787184545792567 9.273408493166457 -1.9999999999999991
    vertex 8.066821832785623 9.310223440417655 1.4808409899999997
    vertex 7.787184545792567 9.273408493166457 1.4808409899999997
  endloop
endfacet
facet normal 0.3826834323650916 -0.9238795325112862 0.0
  outer loop
    vertex 7.787184545792567 9.273408493166457 1.4808409899999997
    vertex 7.526604077785621 9.16547252922845 -1.9999999999999991
    vertex 7.787184545792567 9.273408493166457 -1.9999999999999991
  endloop
endfacet
facet normal 0.3826834323650916 -0.9238795325112862 0.0
  outer loop
    vertex 7.526604077785621 9.16547252922845 -1.9999999999999991
    vertex 7.787184545792567 9.273408493166457 1.4808409899999997
    vertex 7.526604077785621 9.16547252922845 1.4808409899999997
  endloop
endfacet
facet normal 0.6087614290087215 -0.7933533402912344 0.0
  outer loop
    vertex 7.526604077785621 9.16547252922845 1.4808409899999997
    vertex 7.302838557029876 8.9937712061734 -1.9999999999999991
    vertex 7.526604077785621 9.16547252922845 -1.9999999999999991
  endloop
endfacet
facet normal 0.6087614290087215 -0.7933533402912344 0.0
  outer loop
    vertex 7.302838557029876 8.9937712061734 -1.9999999999999991
    vertex 7.526604077785621 9.16547252922845 1.4808409899999997
    vertex 7.302838557029876 8.9937712061734 1.4808409899999997
  endloop
endfacet
facet normal 0.7933533402912364 -0.6087614290087191 0.0
  outer loop
    vertex 7.302838557029876 8.9937712061734 -1.9999999999999991
    vertex 7.131137233974826 8.770005685417654 1.4808409899999997
    vertex 7.131137233974826 8.770005685417654 -1.9999999999999991
  endloop
endfacet
facet normal 0.7933533402912364 -0.6087614290087191 0.0
  outer loop
    vertex 7.131137233974826 8.770005685417654 1.4808409899999997
    vertex 7.302838557029876 8.9937712061734 -1.9999999999999991
    vertex 7.302838557029876 8.9937712061734 1.4808409899999997
  endloop
endfacet
facet normal 0.9238795325112854 -0.38268343236509333 0.0
  outer loop
    vertex 7.131137233974826 8.770005685417654 -1.9999999999999991
    vertex 7.023201270036821 8.50942521741071 1.4808409899999997
    vertex 7.023201270036821 8.50942521741071 -1.9999999999999991
  endloop
endfacet
facet normal 0.9238795325112854 -0.38268343236509333 0.0
  outer loop
    vertex 7.023201270036821 8.50942521741071 1.4808409899999997
    vertex 7.131137233974826 8.770005685417654 -1.9999999999999991
    vertex 7.131137233974826 8.770005685417654 1.4808409899999997
  endloop
endfacet
endsolid antena_hole_cap
