solid ScopeCap
facet normal -0.6087614290087191 0.7933533402912364 0.0
  outer loop
    vertex -0.03288847772045693 9.85647478705581 4.21062246
    vertex 2.013451278524572 11.4266865085969 1.76018634
    vertex -0.03288847772045693 9.85647478705581 1.76018634
  endloop
endfacet
facet normal -0.6087614290087191 0.7933533402912364 0.0
  outer loop
    vertex 2.013451278524572 11.4266865085969 1.76018634
    vertex -0.03288847772045693 9.85647478705581 4.21062246
    vertex 2.013451278524572 11.4266865085969 4.21062246
  endloop
endfacet
facet normal 0.3826834323650921 0.9238795325112857 0.0
  outer loop
    vertex 9.511040545727374 12.413762861508607 4.21062246
    vertex 11.894053664024572 11.4266865085969 1.76018634
    vertex 9.511040545727374 12.413762861508607 1.76018634
  endloop
endfacet
facet normal 0.3826834323650921 0.9238795325112857 0.0
  outer loop
    vertex 11.894053664024572 11.4266865085969 1.76018634
    vertex 9.511040545727374 12.413762861508607 4.21062246
    vertex 11.894053664024572 11.4266865085969 4.21062246
  endloop
endfacet
facet normal 1.0 0.0 6.999253900460495e-32
  outer loop
    vertex -0.03288847772045693 -6.161606500289519 0.0
    vertex -0.03288847772045693 -10.493909114113766 1.76018634
    vertex -0.03288847772045693 -10.493909114113766 0.0
  endloop
endfacet
facet normal 1.0 0.0 6.999253900460495e-32
  outer loop
    vertex -0.03288847772045693 -10.493909114113766 1.76018634
    vertex -0.03288847772045693 -6.161606500289519 0.0
    vertex -0.03288847772045693 -6.161606500289519 1.76018634
  endloop
endfacet
facet normal 0.9914448613738104 -0.13052619222005302 0.0
  outer loop
    vertex 16.834354856774574 2.8698338380607815 1.76018634
    vertex 16.497681494722396 0.3125457636079779 4.21062246
    vertex 16.497681494722396 0.3125457636079779 1.76018634
  endloop
endfacet
facet normal 0.9914448613738104 -0.13052619222005302 0.0
  outer loop
    vertex 16.497681494722396 0.3125457636079779 4.21062246
    vertex 16.834354856774574 2.8698338380607815 1.76018634
    vertex 16.834354856774574 2.8698338380607815 4.21062246
  endloop
endfacet
facet normal 0.923879532511286 -0.38268343236509184 0.0
  outer loop
    vertex 16.497681494722396 0.3125457636079779 1.76018634
    vertex 15.510605141810691 -2.0704673546892196 4.21062246
    vertex 15.510605141810691 -2.0704673546892196 1.76018634
  endloop
endfacet
facet normal 0.923879532511286 -0.38268343236509184 0.0
  outer loop
    vertex 15.510605141810691 -2.0704673546892196 4.21062246
    vertex 16.497681494722396 0.3125457636079779 1.76018634
    vertex 16.497681494722396 0.3125457636079779 4.21062246
  endloop
endfacet
facet normal 0.9238795325112863 0.38268343236509106 0.0
  outer loop
    vertex 15.510605141810691 7.810135030810784 1.76018634
    vertex 16.497681494722396 5.427121912513578 4.21062246
    vertex 16.497681494722396 5.427121912513578 1.76018634
  endloop
endfacet
facet normal 0.9238795325112863 0.38268343236509106 0.0
  outer loop
    vertex 16.497681494722396 5.427121912513578 4.21062246
    vertex 15.510605141810691 7.810135030810784 1.76018634
    vertex 15.510605141810691 7.810135030810784 4.21062246
  endloop
endfacet
facet normal 0.7933533402912358 -0.6087614290087197 0.0
  outer loop
    vertex 15.510605141810691 -2.0704673546892196 1.76018634
    vertex 13.940393420269597 -4.116807110934247 4.21062246
    vertex 13.940393420269597 -4.116807110934247 1.76018634
  endloop
endfacet
facet normal 0.7933533402912358 -0.6087614290087197 0.0
  outer loop
    vertex 13.940393420269597 -4.116807110934247 4.21062246
    vertex 15.510605141810691 -2.0704673546892196 1.76018634
    vertex 15.510605141810691 -2.0704673546892196 4.21062246
  endloop
endfacet
facet normal 0.6087614290087199 -0.7933533402912358 0.0
  outer loop
    vertex 13.940393420269597 -4.116807110934247 4.21062246
    vertex 11.894053664024572 -5.687018832475341 1.76018634
    vertex 13.940393420269597 -4.116807110934247 1.76018634
  endloop
endfacet
facet normal 0.6087614290087199 -0.7933533402912358 0.0
  outer loop
    vertex 11.894053664024572 -5.687018832475341 1.76018634
    vertex 13.940393420269597 -4.116807110934247 4.21062246
    vertex 11.894053664024572 -5.687018832475341 4.21062246
  endloop
endfacet
facet normal 0.7933533402912358 0.6087614290087197 0.0
  outer loop
    vertex 13.940393420269597 9.85647478705581 1.76018634
    vertex 15.510605141810691 7.810135030810784 4.21062246
    vertex 15.510605141810691 7.810135030810784 1.76018634
  endloop
endfacet
facet normal 0.7933533402912358 0.6087614290087197 0.0
  outer loop
    vertex 15.510605141810691 7.810135030810784 4.21062246
    vertex 13.940393420269597 9.85647478705581 1.76018634
    vertex 13.940393420269597 9.85647478705581 4.21062246
  endloop
endfacet
facet normal 0.3826834323650914 -0.9238795325112861 0.0
  outer loop
    vertex 11.894053664024572 -5.687018832475341 4.21062246
    vertex 9.511040545727369 -6.674095185387048 1.76018634
    vertex 11.894053664024572 -5.687018832475341 1.76018634
  endloop
endfacet
facet normal 0.3826834323650914 -0.9238795325112861 0.0
  outer loop
    vertex 9.511040545727369 -6.674095185387048 1.76018634
    vertex 11.894053664024572 -5.687018832475341 4.21062246
    vertex 9.511040545727369 -6.674095185387048 4.21062246
  endloop
endfacet
facet normal 0.9914448613738102 0.13052619222005327 0.0
  outer loop
    vertex 16.497681494722396 5.427121912513578 1.76018634
    vertex 16.834354856774574 2.8698338380607815 4.21062246
    vertex 16.834354856774574 2.8698338380607815 1.76018634
  endloop
endfacet
facet normal 0.9914448613738102 0.13052619222005327 0.0
  outer loop
    vertex 16.834354856774574 2.8698338380607815 4.21062246
    vertex 16.497681494722396 5.427121912513578 1.76018634
    vertex 16.497681494722396 5.427121912513578 4.21062246
  endloop
endfacet
facet normal 0.13052619222005035 -0.9914448613738106 0.0
  outer loop
    vertex 9.511040545727369 -6.674095185387048 4.21062246
    vertex 6.953752471274577 -7.010768547439218 1.76018634
    vertex 9.511040545727369 -6.674095185387048 1.76018634
  endloop
endfacet
facet normal 0.13052619222005035 -0.9914448613738106 0.0
  outer loop
    vertex 6.953752471274577 -7.010768547439218 1.76018634
    vertex 9.511040545727369 -6.674095185387048 4.21062246
    vertex 6.953752471274577 -7.010768547439218 4.21062246
  endloop
endfacet
facet normal -0.30634188801591805 -0.9519215554061389 -9.441222317809211e-33
  outer loop
    vertex 4.8943149754727155 -8.41893155058022 1.76018634
    vertex 2.0427411281770267 -7.501254551633944 0.0
    vertex 4.8943149754727155 -8.41893155058022 0.0
  endloop
endfacet
facet normal -0.30634188801591805 -0.9519215554061389 -9.441222317809211e-33
  outer loop
    vertex 2.0427411281770267 -7.501254551633944 0.0
    vertex 4.8943149754727155 -8.41893155058022 1.76018634
    vertex 2.0427411281770267 -7.501254551633944 1.76018634
  endloop
endfacet
facet normal -6.999253900460495e-32 1.2606526409383868e-32 1.0
  outer loop
    vertex -0.03288847772045693 9.85647478705581 1.76018634
    vertex -1.1088376630536994 14.751090885886235 1.76018634
    vertex -1.1088376630536994 10.91715319148059 1.76018634
  endloop
endfacet
facet normal -6.999253900460495e-32 1.2606526409383868e-32 1.0
  outer loop
    vertex -8.603213537720459 -10.493909114113766 1.76018634
    vertex -7.276139315016931 -8.950262294289677 1.76018634
    vertex -8.603213537720459 16.236090885886238 1.76018634
  endloop
endfacet
facet normal -6.999253900460495e-32 1.2606526409383868e-32 1.0
  outer loop
    vertex -7.276139315016931 -8.950262294289677 1.76018634
    vertex -8.603213537720459 -10.493909114113766 1.76018634
    vertex -0.03288847772045693 -10.493909114113766 1.76018634
  endloop
endfacet
facet normal -6.999253900460495e-32 1.2606526409383868e-32 1.0
  outer loop
    vertex -7.276139315016931 -8.950262294289677 1.76018634
    vertex -0.03288847772045693 -10.493909114113766 1.76018634
    vertex -1.1088376630536994 -9.008909114113763 1.76018634
  endloop
endfacet
facet normal -6.999253900460495e-32 1.2606526409383868e-32 1.0
  outer loop
    vertex -1.1088376630536994 -9.008909114113763 1.76018634
    vertex -0.03288847772045693 -10.493909114113766 1.76018634
    vertex -1.1088376630536994 -5.1758919683339455 1.76018634
  endloop
endfacet
facet normal -6.999253900460495e-32 1.2606526409383868e-32 1.0
  outer loop
    vertex -1.1088376630536994 -5.1758919683339455 1.76018634
    vertex -0.03288847772045693 -10.493909114113766 1.76018634
    vertex -0.03288847772045693 -4.116807110934239 1.76018634
  endloop
endfacet
facet normal -6.999253900460495e-32 1.2606526409383868e-32 1.0
  outer loop
    vertex -0.03288847772045693 -4.116807110934239 1.76018634
    vertex -0.03288847772045693 -10.493909114113766 1.76018634
    vertex -0.03288847772045693 -6.161606500289519 1.76018634
  endloop
endfacet
facet normal -6.999253900460495e-32 1.2606526409383868e-32 1.0
  outer loop
    vertex -0.03288847772045693 -4.116807110934239 1.76018634
    vertex -0.03288847772045693 -6.161606500289519 1.76018634
    vertex 2.0427411281770267 -7.501254551633944 1.76018634
  endloop
endfacet
facet normal -6.999253900460495e-32 1.2606526409383868e-32 1.0
  outer loop
    vertex -0.03288847772045693 -4.116807110934239 1.76018634
    vertex 2.0427411281770267 -7.501254551633944 1.76018634
    vertex 2.013451278524572 -5.68701883247534 1.76018634
  endloop
endfacet
facet normal -6.999253900460495e-32 1.2606526409383868e-32 1.0
  outer loop
    vertex 2.013451278524572 -5.68701883247534 1.76018634
    vertex 2.0427411281770267 -7.501254551633944 1.76018634
    vertex 4.3964643968217665 -6.674095185387045 1.76018634
  endloop
endfacet
facet normal -6.999253900460495e-32 1.2606526409383868e-32 1.0
  outer loop
    vertex 4.3964643968217665 -6.674095185387045 1.76018634
    vertex 2.0427411281770267 -7.501254551633944 1.76018634
    vertex 4.8943149754727155 -8.41893155058022 1.76018634
  endloop
endfacet
facet normal -6.999253900460495e-32 1.2606526409383868e-32 1.0
  outer loop
    vertex 4.3964643968217665 -6.674095185387045 1.76018634
    vertex 4.8943149754727155 -8.41893155058022 1.76018634
    vertex 6.953752471274577 -7.010768547439218 1.76018634
  endloop
endfacet
facet normal -6.999253900460495e-32 1.2606526409383868e-32 1.0
  outer loop
    vertex 6.953752471274577 -7.010768547439218 1.76018634
    vertex 4.8943149754727155 -8.41893155058022 1.76018634
    vertex 7.886236084725926 -8.567297843857466 1.76018634
  endloop
endfacet
facet normal -6.999253900460495e-32 1.2606526409383868e-32 1.0
  outer loop
    vertex 6.953752471274577 -7.010768547439218 1.76018634
    vertex 7.886236084725926 -8.567297843857466 1.76018634
    vertex 9.511040545727369 -6.674095185387048 1.76018634
  endloop
endfacet
facet normal -6.999253900460495e-32 1.2606526409383868e-32 1.0
  outer loop
    vertex 9.511040545727369 -6.674095185387048 1.76018634
    vertex 7.886236084725926 -8.567297843857466 1.76018634
    vertex 10.814609976724455 -7.936242513765763 1.76018634
  endloop
endfacet
facet normal -6.999253900460495e-32 1.2606526409383868e-32 1.0
  outer loop
    vertex 9.511040545727369 -6.674095185387048 1.76018634
    vertex 10.814609976724455 -7.936242513765763 1.76018634
    vertex 11.894053664024572 -5.687018832475341 1.76018634
  endloop
endfacet
facet normal -6.999253900460495e-32 1.2606526409383868e-32 1.0
  outer loop
    vertex 11.894053664024572 -5.687018832475341 1.76018634
    vertex 10.814609976724455 -7.936242513765763 1.76018634
    vertex 13.479872810095284 -6.5687709381826 1.76018634
  endloop
endfacet
facet normal -6.999253900460495e-32 1.2606526409383868e-32 1.0
  outer loop
    vertex 11.894053664024572 -5.687018832475341 1.76018634
    vertex 13.479872810095284 -6.5687709381826 1.76018634
    vertex 13.940393420269597 -4.116807110934247 1.76018634
  endloop
endfacet
facet normal -6.999253900460495e-32 1.2606526409383868e-32 1.0
  outer loop
    vertex 13.940393420269597 -4.116807110934247 1.76018634
    vertex 13.479872810095284 -6.5687709381826 1.76018634
    vertex 15.700391327299265 -4.558074045130335 1.76018634
  endloop
endfacet
facet normal -6.999253900460495e-32 1.2606526409383868e-32 1.0
  outer loop
    vertex 13.940393420269597 -4.116807110934247 1.76018634
    vertex 15.700391327299265 -4.558074045130335 1.76018634
    vertex 15.510605141810691 -2.0704673546892196 1.76018634
  endloop
endfacet
facet normal -6.999253900460495e-32 1.2606526409383868e-32 1.0
  outer loop
    vertex 15.510605141810691 -2.0704673546892196 1.76018634
    vertex 15.700391327299265 -4.558074045130335 1.76018634
    vertex 16.497681494722396 0.3125457636079779 1.76018634
  endloop
endfacet
facet normal -6.999253900460495e-32 1.2606526409383868e-32 1.0
  outer loop
    vertex 16.497681494722396 0.3125457636079779 1.76018634
    vertex 15.700391327299265 -4.558074045130335 1.76018634
    vertex 17.3248408609693 -2.0411775050367678 1.76018634
  endloop
endfacet
facet normal -6.999253900460495e-32 1.2606526409383868e-32 1.0
  outer loop
    vertex 16.497681494722396 0.3125457636079779 1.76018634
    vertex 17.3248408609693 -2.0411775050367678 1.76018634
    vertex 16.834354856774574 2.8698338380607815 1.76018634
  endloop
endfacet
facet normal -6.999253900460495e-32 1.2606526409383868e-32 1.0
  outer loop
    vertex 2.013451278524572 11.4266865085969 1.76018634
    vertex -0.03288847772045693 11.891433598182976 1.76018634
    vertex -0.03288847772045693 9.85647478705581 1.76018634
  endloop
endfacet
facet normal -6.999253900460495e-32 1.2606526409383868e-32 1.0
  outer loop
    vertex -0.03288847772045693 11.891433598182976 1.76018634
    vertex 2.013451278524572 11.4266865085969 1.76018634
    vertex 0.4276321324538637 12.308438614304166 1.76018634
  endloop
endfacet
facet normal -6.999253900460495e-32 1.2606526409383868e-32 1.0
  outer loop
    vertex 0.4276321324538637 12.308438614304166 1.76018634
    vertex 2.013451278524572 11.4266865085969 1.76018634
    vertex 3.092894965824687 13.67591018988733 1.76018634
  endloop
endfacet
facet normal -6.999253900460495e-32 1.2606526409383868e-32 1.0
  outer loop
    vertex 3.092894965824687 13.67591018988733 1.76018634
    vertex 2.013451278524572 11.4266865085969 1.76018634
    vertex 4.396464396821778 12.413762861508607 1.76018634
  endloop
endfacet
facet normal -6.999253900460495e-32 1.2606526409383868e-32 1.0
  outer loop
    vertex 3.092894965824687 13.67591018988733 1.76018634
    vertex 4.396464396821778 12.413762861508607 1.76018634
    vertex 6.021268857823229 14.306965519979036 1.76018634
  endloop
endfacet
facet normal -6.999253900460495e-32 1.2606526409383868e-32 1.0
  outer loop
    vertex 6.021268857823229 14.306965519979036 1.76018634
    vertex 4.396464396821778 12.413762861508607 1.76018634
    vertex 6.953752471274577 12.750436223560781 1.76018634
  endloop
endfacet
facet normal -6.999253900460495e-32 1.2606526409383868e-32 1.0
  outer loop
    vertex 6.021268857823229 14.306965519979036 1.76018634
    vertex 6.953752471274577 12.750436223560781 1.76018634
    vertex 9.013189967076432 14.158599226701783 1.76018634
  endloop
endfacet
facet normal -6.999253900460495e-32 1.2606526409383868e-32 1.0
  outer loop
    vertex 9.013189967076432 14.158599226701783 1.76018634
    vertex 6.953752471274577 12.750436223560781 1.76018634
    vertex 9.511040545727374 12.413762861508607 1.76018634
  endloop
endfacet
facet normal -6.999253900460495e-32 1.2606526409383868e-32 1.0
  outer loop
    vertex 9.013189967076432 14.158599226701783 1.76018634
    vertex 9.511040545727374 12.413762861508607 1.76018634
    vertex 11.86476381437212 13.2409222277555 1.76018634
  endloop
endfacet
facet normal -6.999253900460495e-32 1.2606526409383868e-32 1.0
  outer loop
    vertex 11.86476381437212 13.2409222277555 1.76018634
    vertex 9.511040545727374 12.413762861508607 1.76018634
    vertex 11.894053664024572 11.4266865085969 1.76018634
  endloop
endfacet
facet normal -6.999253900460495e-32 1.2606526409383868e-32 1.0
  outer loop
    vertex 11.86476381437212 13.2409222277555 1.76018634
    vertex 11.894053664024572 11.4266865085969 1.76018634
    vertex 14.381660354465692 11.61647269408547 1.76018634
  endloop
endfacet
facet normal -6.999253900460495e-32 1.2606526409383868e-32 1.0
  outer loop
    vertex 14.381660354465692 11.61647269408547 1.76018634
    vertex 11.894053664024572 11.4266865085969 1.76018634
    vertex 13.940393420269597 9.85647478705581 1.76018634
  endloop
endfacet
facet normal -6.999253900460495e-32 1.2606526409383868e-32 1.0
  outer loop
    vertex 14.381660354465692 11.61647269408547 1.76018634
    vertex 13.940393420269597 9.85647478705581 1.76018634
    vertex 15.510605141810691 7.810135030810784 1.76018634
  endloop
endfacet
facet normal -6.999253900460495e-32 1.2606526409383868e-32 1.0
  outer loop
    vertex 14.381660354465692 11.61647269408547 1.76018634
    vertex 15.510605141810691 7.810135030810784 1.76018634
    vertex 16.392357247517957 9.39595417688149 1.76018634
  endloop
endfacet
facet normal -6.999253900460495e-32 1.2606526409383868e-32 1.0
  outer loop
    vertex 16.392357247517957 9.39595417688149 1.76018634
    vertex 15.510605141810691 7.810135030810784 1.76018634
    vertex 16.497681494722396 5.427121912513578 1.76018634
  endloop
endfacet
facet normal -6.999253900460495e-32 1.2606526409383868e-32 1.0
  outer loop
    vertex 16.392357247517957 9.39595417688149 1.76018634
    vertex 16.497681494722396 5.427121912513578 1.76018634
    vertex 17.759828823101124 6.73069134351067 1.76018634
  endloop
endfacet
facet normal -6.999253900460495e-32 1.2606526409383868e-32 1.0
  outer loop
    vertex 17.759828823101124 6.73069134351067 1.76018634
    vertex 16.497681494722396 5.427121912513578 1.76018634
    vertex 16.834354856774574 2.8698338380607815 1.76018634
  endloop
endfacet
facet normal -6.999253900460495e-32 1.2606526409383868e-32 1.0
  outer loop
    vertex 17.759828823101124 6.73069134351067 1.76018634
    vertex 16.834354856774574 2.8698338380607815 1.76018634
    vertex 17.3248408609693 -2.0411775050367678 1.76018634
  endloop
endfacet
facet normal -6.999253900460495e-32 1.2606526409383868e-32 1.0
  outer loop
    vertex 17.759828823101124 6.73069134351067 1.76018634
    vertex 17.3248408609693 -2.0411775050367678 1.76018634
    vertex 18.242517859915576 0.8103963422589207 1.76018634
  endloop
endfacet
facet normal -6.999253900460495e-32 1.2606526409383868e-32 1.0
  outer loop
    vertex 17.759828823101124 6.73069134351067 1.76018634
    vertex 18.242517859915576 0.8103963422589207 1.76018634
    vertex 18.39088415319283 3.8023174515121267 1.76018634
  endloop
endfacet
facet normal -6.999253900460495e-32 1.2606526409383868e-32 1.0
  outer loop
    vertex -8.603213537720459 16.236090885886238 1.76018634
    vertex -7.276139315016931 14.751090885886235 1.76018634
    vertex -0.03288847772045693 16.236090885886238 1.76018634
  endloop
endfacet
facet normal -6.999253900460495e-32 1.2606526409383868e-32 1.0
  outer loop
    vertex -7.276139315016931 14.751090885886235 1.76018634
    vertex -8.603213537720459 16.236090885886238 1.76018634
    vertex -7.276139315016931 -8.950262294289677 1.76018634
  endloop
endfacet
facet normal -6.999253900460495e-32 1.2606526409383868e-32 1.0
  outer loop
    vertex -0.03288847772045693 16.236090885886238 1.76018634
    vertex -7.276139315016931 14.751090885886235 1.76018634
    vertex -1.1088376630536994 14.751090885886235 1.76018634
  endloop
endfacet
facet normal -6.999253900460495e-32 1.2606526409383868e-32 1.0
  outer loop
    vertex -0.03288847772045693 16.236090885886238 1.76018634
    vertex -1.1088376630536994 14.751090885886235 1.76018634
    vertex -0.03288847772045693 9.85647478705581 1.76018634
  endloop
endfacet
facet normal -6.999253900460495e-32 1.2606526409383868e-32 1.0
  outer loop
    vertex -0.03288847772045693 16.236090885886238 1.76018634
    vertex -0.03288847772045693 9.85647478705581 1.76018634
    vertex -0.03288847772045693 11.891433598182976 1.76018634
  endloop
endfacet
facet normal 0.6087614290087191 0.7933533402912364 0.0
  outer loop
    vertex 11.894053664024572 11.4266865085969 4.21062246
    vertex 13.940393420269597 9.85647478705581 1.76018634
    vertex 11.894053664024572 11.4266865085969 1.76018634
  endloop
endfacet
facet normal 0.6087614290087191 0.7933533402912364 0.0
  outer loop
    vertex 13.940393420269597 9.85647478705581 1.76018634
    vertex 11.894053664024572 11.4266865085969 4.21062246
    vertex 13.940393420269597 9.85647478705581 4.21062246
  endloop
endfacet
facet normal -0.04952811332600046 -0.9987727298992335 9.124456392652524e-33
  outer loop
    vertex 7.886236084725926 -8.567297843857466 1.76018634
    vertex 4.8943149754727155 -8.41893155058022 0.0
    vertex 7.886236084725926 -8.567297843857466 0.0
  endloop
endfacet
facet normal -0.04952811332600046 -0.9987727298992335 9.124456392652524e-33
  outer loop
    vertex 4.8943149754727155 -8.41893155058022 0.0
    vertex 7.886236084725926 -8.567297843857466 1.76018634
    vertex 4.8943149754727155 -8.41893155058022 1.76018634
  endloop
endfacet
facet normal 0.0 1.0 0.0
  outer loop
    vertex -7.276139315016931 14.751090885886235 4.21062246
    vertex -1.1088376630536994 14.751090885886235 1.76018634
    vertex -7.276139315016931 14.751090885886235 1.76018634
  endloop
endfacet
facet normal 0.0 1.0 0.0
  outer loop
    vertex -1.1088376630536994 14.751090885886235 1.76018634
    vertex -7.276139315016931 14.751090885886235 4.21062246
    vertex -1.1088376630536994 14.751090885886235 4.21062246
  endloop
endfacet
facet normal 1.0 0.0 0.0
  outer loop
    vertex -1.1088376630536994 14.751090885886235 1.76018634
    vertex -1.1088376630536994 10.91715319148059 4.21062246
    vertex -1.1088376630536994 10.91715319148059 1.76018634
  endloop
endfacet
facet normal 1.0 0.0 0.0
  outer loop
    vertex -1.1088376630536994 10.91715319148059 4.21062246
    vertex -1.1088376630536994 14.751090885886235 1.76018634
    vertex -1.1088376630536994 14.751090885886235 4.21062246
  endloop
endfacet
facet normal 0.7020350582494858 0.7121423853336083 0.0
  outer loop
    vertex -1.1088376630536994 10.91715319148059 4.21062246
    vertex -0.03288847772045693 9.85647478705581 1.76018634
    vertex -1.1088376630536994 10.91715319148059 1.76018634
  endloop
endfacet
facet normal 0.7020350582494858 0.7121423853336083 0.0
  outer loop
    vertex -0.03288847772045693 9.85647478705581 1.76018634
    vertex -1.1088376630536994 10.91715319148059 4.21062246
    vertex -0.03288847772045693 9.85647478705581 4.21062246
  endloop
endfacet
facet normal 0.13052619222005116 0.9914448613738106 0.0
  outer loop
    vertex 6.953752471274577 12.750436223560781 4.21062246
    vertex 9.511040545727374 12.413762861508607 1.76018634
    vertex 6.953752471274577 12.750436223560781 1.76018634
  endloop
endfacet
facet normal 0.13052619222005116 0.9914448613738106 0.0
  outer loop
    vertex 9.511040545727374 12.413762861508607 1.76018634
    vertex 6.953752471274577 12.750436223560781 4.21062246
    vertex 9.511040545727374 12.413762861508607 4.21062246
  endloop
endfacet
facet normal -0.13052619222005116 0.9914448613738106 0.0
  outer loop
    vertex 4.396464396821778 12.413762861508607 4.21062246
    vertex 6.953752471274577 12.750436223560781 1.76018634
    vertex 4.396464396821778 12.413762861508607 1.76018634
  endloop
endfacet
facet normal -0.13052619222005116 0.9914448613738106 0.0
  outer loop
    vertex 6.953752471274577 12.750436223560781 1.76018634
    vertex 4.396464396821778 12.413762861508607 4.21062246
    vertex 6.953752471274577 12.750436223560781 4.21062246
  endloop
endfacet
facet normal -0.3826834323650907 0.9238795325112865 0.0
  outer loop
    vertex 2.013451278524572 11.4266865085969 4.21062246
    vertex 4.396464396821778 12.413762861508607 1.76018634
    vertex 2.013451278524572 11.4266865085969 1.76018634
  endloop
endfacet
facet normal -0.3826834323650907 0.9238795325112865 0.0
  outer loop
    vertex 4.396464396821778 12.413762861508607 1.76018634
    vertex 2.013451278524572 11.4266865085969 4.21062246
    vertex 4.396464396821778 12.413762861508607 4.21062246
  endloop
endfacet
facet normal 0.0 0.0 1.0
  outer loop
    vertex -0.03288847772045693 -4.116807110934239 4.21062246
    vertex -1.1088376630536994 10.91715319148059 4.21062246
    vertex -1.1088376630536994 -5.1758919683339455 4.21062246
  endloop
endfacet
facet normal 0.0 0.0 1.0
  outer loop
    vertex -1.1088376630536994 10.91715319148059 4.21062246
    vertex -0.03288847772045693 -4.116807110934239 4.21062246
    vertex -0.03288847772045693 9.85647478705581 4.21062246
  endloop
endfacet
facet normal 0.0 0.0 1.0
  outer loop
    vertex -0.03288847772045693 9.85647478705581 4.21062246
    vertex -0.03288847772045693 -4.116807110934239 4.21062246
    vertex 2.013451278524572 -5.68701883247534 4.21062246
  endloop
endfacet
facet normal 0.0 0.0 1.0
  outer loop
    vertex -0.03288847772045693 9.85647478705581 4.21062246
    vertex 2.013451278524572 -5.68701883247534 4.21062246
    vertex 2.013451278524572 11.4266865085969 4.21062246
  endloop
endfacet
facet normal 0.0 0.0 1.0
  outer loop
    vertex 2.013451278524572 11.4266865085969 4.21062246
    vertex 2.013451278524572 -5.68701883247534 4.21062246
    vertex 4.3964643968217665 -6.674095185387045 4.21062246
  endloop
endfacet
facet normal 0.0 0.0 1.0
  outer loop
    vertex 2.013451278524572 11.4266865085969 4.21062246
    vertex 4.3964643968217665 -6.674095185387045 4.21062246
    vertex 4.396464396821778 12.413762861508607 4.21062246
  endloop
endfacet
facet normal 0.0 0.0 1.0
  outer loop
    vertex 4.396464396821778 12.413762861508607 4.21062246
    vertex 4.3964643968217665 -6.674095185387045 4.21062246
    vertex 5.268188066255789 3.2723968527505005 4.2106224600000015
  endloop
endfacet
facet normal 0.0 0.0 1.0
  outer loop
    vertex 5.268188066255789 3.2723968527505005 4.2106224600000015
    vertex 4.3964643968217665 -6.674095185387045 4.21062246
    vertex 6.953752471274577 -7.010768547439218 4.21062246
  endloop
endfacet
facet normal 0.0 0.0 1.0
  outer loop
    vertex 5.268188066255789 3.2723968527505005 4.2106224600000015
    vertex 6.953752471274577 -7.010768547439218 4.21062246
    vertex 5.358777652579711 2.8520213851359966 4.2106224600000015
  endloop
endfacet
facet normal 0.0 0.0 1.0
  outer loop
    vertex 5.358777652579711 2.8520213851359966 4.2106224600000015
    vertex 6.953752471274577 -7.010768547439218 4.21062246
    vertex 5.555081650715343 2.469416174457395 4.2106224600000015
  endloop
endfacet
facet normal 0.0 0.0 1.0
  outer loop
    vertex 5.555081650715343 2.469416174457395 4.2106224600000015
    vertex 6.953752471274577 -7.010768547439218 4.21062246
    vertex 5.843722267597442 2.150655133537434 4.2106224600000015
  endloop
endfacet
facet normal 0.0 0.0 1.0
  outer loop
    vertex 5.843722267597442 2.150655133537434 4.2106224600000015
    vertex 6.953752471274577 -7.010768547439218 4.21062246
    vertex 6.2050291221866525 1.917461300537284 4.2106224600000015
  endloop
endfacet
facet normal 0.0 0.0 1.0
  outer loop
    vertex 6.2050291221866525 1.917461300537284 4.2106224600000015
    vertex 6.953752471274577 -7.010768547439218 4.21062246
    vertex 6.614379749430537 1.7857264498048722 4.2106224600000015
  endloop
endfacet
facet normal 0.0 0.0 1.0
  outer loop
    vertex 6.614379749430537 1.7857264498048722 4.2106224600000015
    vertex 6.953752471274577 -7.010768547439218 4.21062246
    vertex 7.043877580566325 1.764428093715482 4.2106224600000015
  endloop
endfacet
facet normal 0.0 0.0 1.0
  outer loop
    vertex 7.043877580566325 1.764428093715482 4.2106224600000015
    vertex 6.953752471274577 -7.010768547439218 4.21062246
    vertex 9.511040545727369 -6.674095185387048 4.21062246
  endloop
endfacet
facet normal 0.0 0.0 1.0
  outer loop
    vertex 7.043877580566325 1.764428093715482 4.2106224600000015
    vertex 9.511040545727369 -6.674095185387048 4.21062246
    vertex 7.464253048180829 1.8550176800394067 4.2106224600000015
  endloop
endfacet
facet normal 0.0 0.0 1.0
  outer loop
    vertex 7.464253048180829 1.8550176800394067 4.2106224600000015
    vertex 9.511040545727369 -6.674095185387048 4.21062246
    vertex 7.84685825885943 2.051321678175039 4.2106224600000015
  endloop
endfacet
facet normal 0.0 0.0 1.0
  outer loop
    vertex 7.84685825885943 2.051321678175039 4.2106224600000015
    vertex 9.511040545727369 -6.674095185387048 4.21062246
    vertex 8.165619299779394 2.339962295057133 4.2106224600000015
  endloop
endfacet
facet normal 0.0 0.0 1.0
  outer loop
    vertex 8.165619299779394 2.339962295057133 4.2106224600000015
    vertex 9.511040545727369 -6.674095185387048 4.21062246
    vertex 8.398813132779543 2.701269149646347 4.2106224600000015
  endloop
endfacet
facet normal 0.0 0.0 1.0
  outer loop
    vertex 8.398813132779543 2.701269149646347 4.2106224600000015
    vertex 9.511040545727369 -6.674095185387048 4.21062246
    vertex 8.530547983511955 3.110619776890234 4.2106224600000015
  endloop
endfacet
facet normal 0.0 0.0 1.0
  outer loop
    vertex 8.530547983511955 3.110619776890234 4.2106224600000015
    vertex 9.511040545727369 -6.674095185387048 4.21062246
    vertex 8.548010441836963 3.462763761403021 4.2106224600000015
  endloop
endfacet
facet normal 0.0 0.0 1.0
  outer loop
    vertex 8.548010441836963 3.462763761403021 4.2106224600000015
    vertex 9.511040545727369 -6.674095185387048 4.21062246
    vertex 8.551846339601346 3.5401176080260166 4.2106224600000015
  endloop
endfacet
facet normal 0.0 0.0 1.0
  outer loop
    vertex 4.396464396821778 12.413762861508607 4.21062246
    vertex 5.289486422345176 3.7018946838862887 4.2106224600000015
    vertex 6.953752471274577 12.750436223560781 4.21062246
  endloop
endfacet
facet normal 0.0 0.0 1.0
  outer loop
    vertex 5.289486422345176 3.7018946838862887 4.2106224600000015
    vertex 4.396464396821778 12.413762861508607 4.21062246
    vertex 5.268188066255789 3.2723968527505005 4.2106224600000015
  endloop
endfacet
facet normal 0.0 0.0 1.0
  outer loop
    vertex 5.289486422345176 3.7018946838862887 4.2106224600000015
    vertex 5.268188066255789 3.2723968527505005 4.2106224600000015
    vertex 5.27202396402017 3.3497506993734962 4.2106224600000015
  endloop
endfacet
facet normal 0.0 0.0 1.0
  outer loop
    vertex 6.953752471274577 12.750436223560781 4.21062246
    vertex 5.289486422345176 3.7018946838862887 4.2106224600000015
    vertex 5.421221273077588 4.111245311130171 4.2106224600000015
  endloop
endfacet
facet normal 0.0 0.0 1.0
  outer loop
    vertex 6.953752471274577 12.750436223560781 4.21062246
    vertex 5.421221273077588 4.111245311130171 4.2106224600000015
    vertex 5.654415106077741 4.472552165719384 4.2106224600000015
  endloop
endfacet
facet normal 0.0 0.0 1.0
  outer loop
    vertex 6.953752471274577 12.750436223560781 4.21062246
    vertex 5.654415106077741 4.472552165719384 4.2106224600000015
    vertex 5.973176146997701 4.761192782601483 4.2106224600000015
  endloop
endfacet
facet normal 0.0 0.0 1.0
  outer loop
    vertex 6.953752471274577 12.750436223560781 4.21062246
    vertex 5.973176146997701 4.761192782601483 4.2106224600000015
    vertex 6.355781357676305 4.957496780737112 4.2106224600000015
  endloop
endfacet
facet normal 0.0 0.0 1.0
  outer loop
    vertex 6.953752471274577 12.750436223560781 4.21062246
    vertex 6.355781357676305 4.957496780737112 4.2106224600000015
    vertex 6.776156825290809 5.048086367061036 4.2106224600000015
  endloop
endfacet
facet normal 0.0 0.0 1.0
  outer loop
    vertex 6.953752471274577 12.750436223560781 4.21062246
    vertex 6.776156825290809 5.048086367061036 4.2106224600000015
    vertex 7.205654656426591 5.026788010971649 4.2106224600000015
  endloop
endfacet
facet normal 0.0 0.0 1.0
  outer loop
    vertex 6.953752471274577 12.750436223560781 4.21062246
    vertex 7.205654656426591 5.026788010971649 4.2106224600000015
    vertex 9.511040545727374 12.413762861508607 4.21062246
  endloop
endfacet
facet normal 0.0 0.0 1.0
  outer loop
    vertex 9.511040545727374 12.413762861508607 4.21062246
    vertex 7.205654656426591 5.026788010971649 4.2106224600000015
    vertex 7.615005283670479 4.895053160239238 4.2106224600000015
  endloop
endfacet
facet normal 0.0 0.0 1.0
  outer loop
    vertex 9.511040545727374 12.413762861508607 4.21062246
    vertex 7.615005283670479 4.895053160239238 4.2106224600000015
    vertex 7.976312138259693 4.6618593272390845 4.2106224600000015
  endloop
endfacet
facet normal 0.0 0.0 1.0
  outer loop
    vertex 9.511040545727374 12.413762861508607 4.21062246
    vertex 7.976312138259693 4.6618593272390845 4.2106224600000015
    vertex 8.264952755141785 4.343098286319128 4.2106224600000015
  endloop
endfacet
facet normal 0.0 0.0 1.0
  outer loop
    vertex 9.511040545727374 12.413762861508607 4.21062246
    vertex 8.264952755141785 4.343098286319128 4.2106224600000015
    vertex 8.46125675327742 3.960493075640521 4.2106224600000015
  endloop
endfacet
facet normal 0.0 0.0 1.0
  outer loop
    vertex 9.511040545727374 12.413762861508607 4.21062246
    vertex 8.46125675327742 3.960493075640521 4.2106224600000015
    vertex 8.551846339601346 3.5401176080260166 4.2106224600000015
  endloop
endfacet
facet normal 0.0 0.0 1.0
  outer loop
    vertex 9.511040545727374 12.413762861508607 4.21062246
    vertex 8.551846339601346 3.5401176080260166 4.2106224600000015
    vertex 9.511040545727369 -6.674095185387048 4.21062246
  endloop
endfacet
facet normal 0.0 0.0 1.0
  outer loop
    vertex 9.511040545727374 12.413762861508607 4.21062246
    vertex 9.511040545727369 -6.674095185387048 4.21062246
    vertex 11.894053664024572 -5.687018832475341 4.21062246
  endloop
endfacet
facet normal 0.0 0.0 1.0
  outer loop
    vertex 9.511040545727374 12.413762861508607 4.21062246
    vertex 11.894053664024572 -5.687018832475341 4.21062246
    vertex 11.894053664024572 11.4266865085969 4.21062246
  endloop
endfacet
facet normal 0.0 0.0 1.0
  outer loop
    vertex 11.894053664024572 11.4266865085969 4.21062246
    vertex 11.894053664024572 -5.687018832475341 4.21062246
    vertex 13.940393420269597 -4.116807110934247 4.21062246
  endloop
endfacet
facet normal 0.0 0.0 1.0
  outer loop
    vertex 11.894053664024572 11.4266865085969 4.21062246
    vertex 13.940393420269597 -4.116807110934247 4.21062246
    vertex 13.940393420269597 9.85647478705581 4.21062246
  endloop
endfacet
facet normal 0.0 0.0 1.0
  outer loop
    vertex 13.940393420269597 9.85647478705581 4.21062246
    vertex 13.940393420269597 -4.116807110934247 4.21062246
    vertex 15.510605141810691 -2.0704673546892196 4.21062246
  endloop
endfacet
facet normal 0.0 0.0 1.0
  outer loop
    vertex 13.940393420269597 9.85647478705581 4.21062246
    vertex 15.510605141810691 -2.0704673546892196 4.21062246
    vertex 15.510605141810691 7.810135030810784 4.21062246
  endloop
endfacet
facet normal 0.0 0.0 1.0
  outer loop
    vertex 15.510605141810691 7.810135030810784 4.21062246
    vertex 15.510605141810691 -2.0704673546892196 4.21062246
    vertex 16.497681494722396 0.3125457636079779 4.21062246
  endloop
endfacet
facet normal 0.0 0.0 1.0
  outer loop
    vertex 15.510605141810691 7.810135030810784 4.21062246
    vertex 16.497681494722396 0.3125457636079779 4.21062246
    vertex 16.497681494722396 5.427121912513578 4.21062246
  endloop
endfacet
facet normal 0.0 0.0 1.0
  outer loop
    vertex 16.497681494722396 5.427121912513578 4.21062246
    vertex 16.497681494722396 0.3125457636079779 4.21062246
    vertex 16.834354856774574 2.8698338380607815 4.21062246
  endloop
endfacet
facet normal 0.0 0.0 1.0
  outer loop
    vertex -1.1088376630536994 -9.008909114113763 4.21062246
    vertex -7.276139315016931 14.751090885886235 4.21062246
    vertex -7.276139315016931 -8.950262294289677 4.21062246
  endloop
endfacet
facet normal 0.0 0.0 1.0
  outer loop
    vertex -7.276139315016931 14.751090885886235 4.21062246
    vertex -1.1088376630536994 -9.008909114113763 4.21062246
    vertex -1.1088376630536994 14.751090885886235 4.21062246
  endloop
endfacet
facet normal 0.0 0.0 1.0
  outer loop
    vertex -1.1088376630536994 14.751090885886235 4.21062246
    vertex -1.1088376630536994 -9.008909114113763 4.21062246
    vertex -1.1088376630536994 -5.1758919683339455 4.21062246
  endloop
endfacet
facet normal 0.0 0.0 1.0
  outer loop
    vertex -1.1088376630536994 14.751090885886235 4.21062246
    vertex -1.1088376630536994 -5.1758919683339455 4.21062246
    vertex -1.1088376630536994 10.91715319148059 4.21062246
  endloop
endfacet
facet normal -0.6087614290087211 -0.7933533402912348 0.0
  outer loop
    vertex 2.013451278524572 -5.68701883247534 4.21062246
    vertex -0.03288847772045693 -4.116807110934239 1.76018634
    vertex 2.013451278524572 -5.68701883247534 1.76018634
  endloop
endfacet
facet normal -0.6087614290087211 -0.7933533402912348 0.0
  outer loop
    vertex -0.03288847772045693 -4.116807110934239 1.76018634
    vertex 2.013451278524572 -5.68701883247534 4.21062246
    vertex -0.03288847772045693 -4.116807110934239 4.21062246
  endloop
endfacet
facet normal -0.3826834323650921 -0.9238795325112857 0.0
  outer loop
    vertex 4.3964643968217665 -6.674095185387045 4.21062246
    vertex 2.013451278524572 -5.68701883247534 1.76018634
    vertex 4.3964643968217665 -6.674095185387045 1.76018634
  endloop
endfacet
facet normal -0.3826834323650921 -0.9238795325112857 0.0
  outer loop
    vertex 2.013451278524572 -5.68701883247534 1.76018634
    vertex 4.3964643968217665 -6.674095185387045 4.21062246
    vertex 2.013451278524572 -5.68701883247534 4.21062246
  endloop
endfacet
facet normal 0.7014995624399335 -0.7126698842357392 0.0
  outer loop
    vertex -0.03288847772045693 -4.116807110934239 4.21062246
    vertex -1.1088376630536994 -5.1758919683339455 1.76018634
    vertex -0.03288847772045693 -4.116807110934239 1.76018634
  endloop
endfacet
facet normal 0.7014995624399335 -0.7126698842357392 0.0
  outer loop
    vertex -1.1088376630536994 -5.1758919683339455 1.76018634
    vertex -0.03288847772045693 -4.116807110934239 4.21062246
    vertex -1.1088376630536994 -5.1758919683339455 4.21062246
  endloop
endfacet
facet normal -0.009508886006026326 -0.9999547895214685 0.0
  outer loop
    vertex -1.1088376630536994 -9.008909114113763 4.21062246
    vertex -7.276139315016931 -8.950262294289677 1.76018634
    vertex -1.1088376630536994 -9.008909114113763 1.76018634
  endloop
endfacet
facet normal -0.009508886006026326 -0.9999547895214685 0.0
  outer loop
    vertex -7.276139315016931 -8.950262294289677 1.76018634
    vertex -1.1088376630536994 -9.008909114113763 4.21062246
    vertex -7.276139315016931 -8.950262294289677 4.21062246
  endloop
endfacet
facet normal -0.13052619222005057 -0.9914448613738106 0.0
  outer loop
    vertex 6.953752471274577 -7.010768547439218 4.21062246
    vertex 4.3964643968217665 -6.674095185387045 1.76018634
    vertex 6.953752471274577 -7.010768547439218 1.76018634
  endloop
endfacet
facet normal -0.13052619222005057 -0.9914448613738106 0.0
  outer loop
    vertex 4.3964643968217665 -6.674095185387045 1.76018634
    vertex 6.953752471274577 -7.010768547439218 4.21062246
    vertex 4.3964643968217665 -6.674095185387045 4.21062246
  endloop
endfacet
facet normal 1.0 0.0 0.0
  outer loop
    vertex -1.1088376630536994 -5.1758919683339455 1.76018634
    vertex -1.1088376630536994 -9.008909114113763 4.21062246
    vertex -1.1088376630536994 -9.008909114113763 1.76018634
  endloop
endfacet
facet normal 1.0 0.0 0.0
  outer loop
    vertex -1.1088376630536994 -9.008909114113763 4.21062246
    vertex -1.1088376630536994 -5.1758919683339455 1.76018634
    vertex -1.1088376630536994 -5.1758919683339455 4.21062246
  endloop
endfacet
facet normal -1.0 0.0 0.0
  outer loop
    vertex -7.276139315016931 14.751090885886235 4.21062246
    vertex -7.276139315016931 -8.950262294289677 1.76018634
    vertex -7.276139315016931 -8.950262294289677 4.21062246
  endloop
endfacet
facet normal -1.0 0.0 0.0
  outer loop
    vertex -7.276139315016931 -8.950262294289677 1.76018634
    vertex -7.276139315016931 14.751090885886235 4.21062246
    vertex -7.276139315016931 14.751090885886235 1.76018634
  endloop
endfacet
facet normal 0.9987727298992328 -0.049528113326012 0.0
  outer loop
    vertex 5.27202396402017 3.3497506993734962 0.0
    vertex 5.268188066255789 3.2723968527505005 4.2106224600000015
    vertex 5.268188066255789 3.2723968527505005 0.0
  endloop
endfacet
facet normal 0.9987727298992328 -0.049528113326012 0.0
  outer loop
    vertex 5.268188066255789 3.2723968527505005 4.2106224600000015
    vertex 5.27202396402017 3.3497506993734962 0.0
    vertex 5.27202396402017 3.3497506993734962 4.2106224600000015
  endloop
endfacet
facet normal 0.6712173053837568 -0.741260634968139 0.0
  outer loop
    vertex 5.973176146997701 4.761192782601483 4.2106224600000015
    vertex 5.654415106077741 4.472552165719384 0.0
    vertex 5.973176146997701 4.761192782601483 0.0
  endloop
endfacet
facet normal 0.6712173053837568 -0.741260634968139 0.0
  outer loop
    vertex 5.654415106077741 4.472552165719384 0.0
    vertex 5.973176146997701 4.761192782601483 4.2106224600000015
    vertex 5.654415106077741 4.472552165719384 4.2106224600000015
  endloop
endfacet
facet normal 0.9987727298992333 -0.04952811332600285 0.0
  outer loop
    vertex 5.289486422345176 3.7018946838862887 0.0
    vertex 5.27202396402017 3.3497506993734962 4.2106224600000015
    vertex 5.27202396402017 3.3497506993734962 0.0
  endloop
endfacet
facet normal 0.9987727298992333 -0.04952811332600285 0.0
  outer loop
    vertex 5.27202396402017 3.3497506993734962 4.2106224600000015
    vertex 5.289486422345176 3.7018946838862887 0.0
    vertex 5.289486422345176 3.7018946838862887 4.2106224600000015
  endloop
endfacet
facet normal 0.9519215554061392 -0.30634188801591744 0.0
  outer loop
    vertex 5.421221273077588 4.111245311130171 0.0
    vertex 5.289486422345176 3.7018946838862887 4.2106224600000015
    vertex 5.289486422345176 3.7018946838862887 0.0
  endloop
endfacet
facet normal 0.9519215554061392 -0.30634188801591744 0.0
  outer loop
    vertex 5.289486422345176 3.7018946838862887 4.2106224600000015
    vertex 5.421221273077588 4.111245311130171 0.0
    vertex 5.421221273077588 4.111245311130171 4.2106224600000015
  endloop
endfacet
facet normal 0.8401985000368674 -0.542278969291451 0.0
  outer loop
    vertex 5.654415106077741 4.472552165719384 0.0
    vertex 5.421221273077588 4.111245311130171 4.2106224600000015
    vertex 5.421221273077588 4.111245311130171 0.0
  endloop
endfacet
facet normal 0.8401985000368674 -0.542278969291451 0.0
  outer loop
    vertex 5.421221273077588 4.111245311130171 4.2106224600000015
    vertex 5.654415106077741 4.472552165719384 0.0
    vertex 5.654415106077741 4.472552165719384 4.2106224600000015
  endloop
endfacet
facet normal 0.8897266133628708 0.45649376060778396 0.0
  outer loop
    vertex 5.358777652579711 2.8520213851359966 0.0
    vertex 5.555081650715343 2.469416174457395 4.2106224600000015
    vertex 5.555081650715343 2.469416174457395 0.0
  endloop
endfacet
facet normal 0.8897266133628708 0.45649376060778396 0.0
  outer loop
    vertex 5.555081650715343 2.469416174457395 4.2106224600000015
    vertex 5.358777652579711 2.8520213851359966 0.0
    vertex 5.358777652579711 2.8520213851359966 4.2106224600000015
  endloop
endfacet
facet normal -0.6712173053837553 0.7412606349681403 -5.632492519860083e-32
  outer loop
    vertex -0.03288847772045693 11.891433598182976 1.76018634
    vertex 0.4276321324538637 12.308438614304166 0.0
    vertex -0.03288847772045693 11.891433598182976 0.0
  endloop
endfacet
facet normal -0.6712173053837553 0.7412606349681403 -5.632492519860083e-32
  outer loop
    vertex 0.4276321324538637 12.308438614304166 0.0
    vertex -0.03288847772045693 11.891433598182976 1.76018634
    vertex 0.4276321324538637 12.308438614304166 1.76018634
  endloop
endfacet
facet normal 0.6712173053837555 -0.7412606349681403 5.632492519860084e-32
  outer loop
    vertex 15.700391327299265 -4.558074045130335 1.76018634
    vertex 13.479872810095284 -6.5687709381826 0.0
    vertex 15.700391327299265 -4.558074045130335 0.0
  endloop
endfacet
facet normal 0.6712173053837555 -0.7412606349681403 5.632492519860084e-32
  outer loop
    vertex 13.479872810095284 -6.5687709381826 0.0
    vertex 15.700391327299265 -4.558074045130335 1.76018634
    vertex 13.479872810095284 -6.5687709381826 1.76018634
  endloop
endfacet
facet normal 0.0 1.0 -1.2606526409383868e-32
  outer loop
    vertex -8.603213537720459 16.236090885886238 1.76018634
    vertex -0.03288847772045693 16.236090885886238 0.0
    vertex -8.603213537720459 16.236090885886238 0.0
  endloop
endfacet
facet normal 0.0 1.0 -1.2606526409383868e-32
  outer loop
    vertex -0.03288847772045693 16.236090885886238 0.0
    vertex -8.603213537720459 16.236090885886238 1.76018634
    vertex -0.03288847772045693 16.236090885886238 1.76018634
  endloop
endfacet
facet normal 0.9987727298992333 -0.049528113326002356 7.053101672285903e-32
  outer loop
    vertex 18.39088415319283 3.8023174515121267 0.0
    vertex 18.242517859915576 0.8103963422589207 1.76018634
    vertex 18.242517859915576 0.8103963422589207 0.0
  endloop
endfacet
facet normal 0.9987727298992333 -0.049528113326002356 7.053101672285903e-32
  outer loop
    vertex 18.242517859915576 0.8103963422589207 1.76018634
    vertex 18.39088415319283 3.8023174515121267 0.0
    vertex 18.39088415319283 3.8023174515121267 1.76018634
  endloop
endfacet
facet normal 0.9775591933996711 0.21066092043799756 0.0
  outer loop
    vertex 5.268188066255789 3.2723968527505005 0.0
    vertex 5.358777652579711 2.8520213851359966 4.2106224600000015
    vertex 5.358777652579711 2.8520213851359966 0.0
  endloop
endfacet
facet normal 0.9775591933996711 0.21066092043799756 0.0
  outer loop
    vertex 5.358777652579711 2.8520213851359966 4.2106224600000015
    vertex 5.268188066255789 3.2723968527505005 0.0
    vertex 5.268188066255789 3.2723968527505005 4.2106224600000015
  endloop
endfacet
facet normal -0.9987727298992333 0.04952811332600385 0.0
  outer loop
    vertex 8.548010441836963 3.462763761403021 4.2106224600000015
    vertex 8.530547983511955 3.110619776890234 0.0
    vertex 8.530547983511955 3.110619776890234 4.2106224600000015
  endloop
endfacet
facet normal -0.9987727298992333 0.04952811332600385 0.0
  outer loop
    vertex 8.530547983511955 3.110619776890234 0.0
    vertex 8.548010441836963 3.462763761403021 4.2106224600000015
    vertex 8.548010441836963 3.462763761403021 0.0
  endloop
endfacet
facet normal -0.7412606349681391 -0.6712173053837567 -0.0
  outer loop
    vertex 7.976312138259693 4.6618593272390845 4.2106224600000015
    vertex 8.264952755141785 4.343098286319128 0.0
    vertex 8.264952755141785 4.343098286319128 4.2106224600000015
  endloop
endfacet
facet normal -0.7412606349681391 -0.6712173053837567 -0.0
  outer loop
    vertex 8.264952755141785 4.343098286319128 0.0
    vertex 7.976312138259693 4.6618593272390845 4.2106224600000015
    vertex 7.976312138259693 4.6618593272390845 0.0
  endloop
endfacet
facet normal -0.9987727298992332 0.04952811332600292 0.0
  outer loop
    vertex 8.551846339601346 3.5401176080260166 4.2106224600000015
    vertex 8.548010441836963 3.462763761403021 0.0
    vertex 8.548010441836963 3.462763761403021 4.2106224600000015
  endloop
endfacet
facet normal -0.9987727298992332 0.04952811332600292 0.0
  outer loop
    vertex 8.548010441836963 3.462763761403021 0.0
    vertex 8.551846339601346 3.5401176080260166 4.2106224600000015
    vertex 8.551846339601346 3.5401176080260166 0.0
  endloop
endfacet
facet normal -0.9775591933996708 -0.21066092043799914 -0.0
  outer loop
    vertex 8.46125675327742 3.960493075640521 4.2106224600000015
    vertex 8.551846339601346 3.5401176080260166 0.0
    vertex 8.551846339601346 3.5401176080260166 4.2106224600000015
  endloop
endfacet
facet normal -0.9775591933996708 -0.21066092043799914 -0.0
  outer loop
    vertex 8.551846339601346 3.5401176080260166 0.0
    vertex 8.46125675327742 3.960493075640521 4.2106224600000015
    vertex 8.46125675327742 3.960493075640521 0.0
  endloop
endfacet
facet normal -0.8897266133628721 -0.45649376060778124 -0.0
  outer loop
    vertex 8.264952755141785 4.343098286319128 4.2106224600000015
    vertex 8.46125675327742 3.960493075640521 0.0
    vertex 8.46125675327742 3.960493075640521 4.2106224600000015
  endloop
endfacet
facet normal -0.8897266133628721 -0.45649376060778124 -0.0
  outer loop
    vertex 8.46125675327742 3.960493075640521 0.0
    vertex 8.264952755141785 4.343098286319128 4.2106224600000015
    vertex 8.264952755141785 4.343098286319128 0.0
  endloop
endfacet
facet normal -0.5422789692914545 -0.8401985000368651 -0.0
  outer loop
    vertex 7.976312138259693 4.6618593272390845 4.2106224600000015
    vertex 7.615005283670479 4.895053160239238 0.0
    vertex 7.976312138259693 4.6618593272390845 0.0
  endloop
endfacet
facet normal -0.5422789692914545 -0.8401985000368651 -0.0
  outer loop
    vertex 7.615005283670479 4.895053160239238 0.0
    vertex 7.976312138259693 4.6618593272390845 4.2106224600000015
    vertex 7.615005283670479 4.895053160239238 4.2106224600000015
  endloop
endfacet
facet normal -0.3063418880159137 -0.9519215554061403 -0.0
  outer loop
    vertex 7.615005283670479 4.895053160239238 4.2106224600000015
    vertex 7.205654656426591 5.026788010971649 0.0
    vertex 7.615005283670479 4.895053160239238 0.0
  endloop
endfacet
facet normal -0.3063418880159137 -0.9519215554061403 -0.0
  outer loop
    vertex 7.205654656426591 5.026788010971649 0.0
    vertex 7.615005283670479 4.895053160239238 4.2106224600000015
    vertex 7.205654656426591 5.026788010971649 4.2106224600000015
  endloop
endfacet
facet normal -0.0495281133260045 -0.9987727298992333 -0.0
  outer loop
    vertex 7.205654656426591 5.026788010971649 4.2106224600000015
    vertex 6.776156825290809 5.048086367061036 0.0
    vertex 7.205654656426591 5.026788010971649 0.0
  endloop
endfacet
facet normal -0.0495281133260045 -0.9987727298992333 -0.0
  outer loop
    vertex 6.776156825290809 5.048086367061036 0.0
    vertex 7.205654656426591 5.026788010971649 4.2106224600000015
    vertex 6.776156825290809 5.048086367061036 4.2106224600000015
  endloop
endfacet
facet normal 0.21066092043799947 -0.9775591933996708 0.0
  outer loop
    vertex 6.776156825290809 5.048086367061036 4.2106224600000015
    vertex 6.355781357676305 4.957496780737112 0.0
    vertex 6.776156825290809 5.048086367061036 0.0
  endloop
endfacet
facet normal 0.21066092043799947 -0.9775591933996708 0.0
  outer loop
    vertex 6.355781357676305 4.957496780737112 0.0
    vertex 6.776156825290809 5.048086367061036 4.2106224600000015
    vertex 6.355781357676305 4.957496780737112 4.2106224600000015
  endloop
endfacet
facet normal 0.45649376060777996 -0.8897266133628728 0.0
  outer loop
    vertex 6.355781357676305 4.957496780737112 4.2106224600000015
    vertex 5.973176146997701 4.761192782601483 0.0
    vertex 6.355781357676305 4.957496780737112 0.0
  endloop
endfacet
facet normal 0.45649376060777996 -0.8897266133628728 0.0
  outer loop
    vertex 5.973176146997701 4.761192782601483 0.0
    vertex 6.355781357676305 4.957496780737112 4.2106224600000015
    vertex 5.973176146997701 4.761192782601483 4.2106224600000015
  endloop
endfacet
facet normal 0.9775591933996717 0.21066092043799556 6.576614751640996e-32
  outer loop
    vertex 17.759828823101124 6.73069134351067 0.0
    vertex 18.39088415319283 3.8023174515121267 1.76018634
    vertex 18.39088415319283 3.8023174515121267 0.0
  endloop
endfacet
facet normal 0.9775591933996717 0.21066092043799556 6.576614751640996e-32
  outer loop
    vertex 18.39088415319283 3.8023174515121267 1.76018634
    vertex 17.759828823101124 6.73069134351067 0.0
    vertex 17.759828823101124 6.73069134351067 1.76018634
  endloop
endfacet
facet normal 0.7412606349681403 0.6712173053837555 4.342099521883e-32
  outer loop
    vertex 14.381660354465692 11.61647269408547 0.0
    vertex 16.392357247517957 9.39595417688149 1.76018634
    vertex 16.392357247517957 9.39595417688149 0.0
  endloop
endfacet
facet normal 0.7412606349681403 0.6712173053837555 4.342099521883e-32
  outer loop
    vertex 16.392357247517957 9.39595417688149 1.76018634
    vertex 14.381660354465692 11.61647269408547 0.0
    vertex 14.381660354465692 11.61647269408547 1.76018634
  endloop
endfacet
facet normal 0.0 0.0 -1.0
  outer loop
    vertex 0.4276321324538637 12.308438614304166 0.0
    vertex -0.03288847772045693 -6.161606500289519 0.0
    vertex -0.03288847772045693 11.891433598182976 0.0
  endloop
endfacet
facet normal 0.0 0.0 -1.0
  outer loop
    vertex -0.03288847772045693 -6.161606500289519 0.0
    vertex 0.4276321324538637 12.308438614304166 0.0
    vertex 2.0427411281770267 -7.501254551633944 0.0
  endloop
endfacet
facet normal 0.0 0.0 -1.0
  outer loop
    vertex 2.0427411281770267 -7.501254551633944 0.0
    vertex 0.4276321324538637 12.308438614304166 0.0
    vertex 3.092894965824687 13.67591018988733 0.0
  endloop
endfacet
facet normal 0.0 0.0 -1.0
  outer loop
    vertex 2.0427411281770267 -7.501254551633944 0.0
    vertex 3.092894965824687 13.67591018988733 0.0
    vertex 4.8943149754727155 -8.41893155058022 0.0
  endloop
endfacet
facet normal 0.0 0.0 -1.0
  outer loop
    vertex 4.8943149754727155 -8.41893155058022 0.0
    vertex 3.092894965824687 13.67591018988733 0.0
    vertex 5.268188066255789 3.2723968527505005 0.0
  endloop
endfacet
facet normal 0.0 0.0 -1.0
  outer loop
    vertex 5.268188066255789 3.2723968527505005 0.0
    vertex 3.092894965824687 13.67591018988733 0.0
    vertex 5.289486422345176 3.7018946838862887 0.0
  endloop
endfacet
facet normal 0.0 0.0 -1.0
  outer loop
    vertex 5.289486422345176 3.7018946838862887 0.0
    vertex 3.092894965824687 13.67591018988733 0.0
    vertex 6.021268857823229 14.306965519979036 0.0
  endloop
endfacet
facet normal 0.0 0.0 -1.0
  outer loop
    vertex 5.268188066255789 3.2723968527505005 0.0
    vertex 5.289486422345176 3.7018946838862887 0.0
    vertex 5.27202396402017 3.3497506993734962 0.0
  endloop
endfacet
facet normal 0.0 0.0 -1.0
  outer loop
    vertex 5.289486422345176 3.7018946838862887 0.0
    vertex 6.021268857823229 14.306965519979036 0.0
    vertex 5.421221273077588 4.111245311130171 0.0
  endloop
endfacet
facet normal 0.0 0.0 -1.0
  outer loop
    vertex 5.421221273077588 4.111245311130171 0.0
    vertex 6.021268857823229 14.306965519979036 0.0
    vertex 5.654415106077741 4.472552165719384 0.0
  endloop
endfacet
facet normal 0.0 0.0 -1.0
  outer loop
    vertex 5.654415106077741 4.472552165719384 0.0
    vertex 6.021268857823229 14.306965519979036 0.0
    vertex 5.973176146997701 4.761192782601483 0.0
  endloop
endfacet
facet normal 0.0 0.0 -1.0
  outer loop
    vertex 5.973176146997701 4.761192782601483 0.0
    vertex 6.021268857823229 14.306965519979036 0.0
    vertex 6.355781357676305 4.957496780737112 0.0
  endloop
endfacet
facet normal 0.0 0.0 -1.0
  outer loop
    vertex 6.355781357676305 4.957496780737112 0.0
    vertex 6.021268857823229 14.306965519979036 0.0
    vertex 9.013189967076432 14.158599226701783 0.0
  endloop
endfacet
facet normal 0.0 0.0 -1.0
  outer loop
    vertex 6.355781357676305 4.957496780737112 0.0
    vertex 9.013189967076432 14.158599226701783 0.0
    vertex 6.776156825290809 5.048086367061036 0.0
  endloop
endfacet
facet normal 0.0 0.0 -1.0
  outer loop
    vertex 6.776156825290809 5.048086367061036 0.0
    vertex 9.013189967076432 14.158599226701783 0.0
    vertex 7.205654656426591 5.026788010971649 0.0
  endloop
endfacet
facet normal 0.0 0.0 -1.0
  outer loop
    vertex 7.205654656426591 5.026788010971649 0.0
    vertex 9.013189967076432 14.158599226701783 0.0
    vertex 7.615005283670479 4.895053160239238 0.0
  endloop
endfacet
facet normal 0.0 0.0 -1.0
  outer loop
    vertex 7.615005283670479 4.895053160239238 0.0
    vertex 9.013189967076432 14.158599226701783 0.0
    vertex 7.976312138259693 4.6618593272390845 0.0
  endloop
endfacet
facet normal 0.0 0.0 -1.0
  outer loop
    vertex 7.976312138259693 4.6618593272390845 0.0
    vertex 9.013189967076432 14.158599226701783 0.0
    vertex 8.264952755141785 4.343098286319128 0.0
  endloop
endfacet
facet normal 0.0 0.0 -1.0
  outer loop
    vertex 8.264952755141785 4.343098286319128 0.0
    vertex 9.013189967076432 14.158599226701783 0.0
    vertex 8.46125675327742 3.960493075640521 0.0
  endloop
endfacet
facet normal 0.0 0.0 -1.0
  outer loop
    vertex 8.46125675327742 3.960493075640521 0.0
    vertex 9.013189967076432 14.158599226701783 0.0
    vertex 8.551846339601346 3.5401176080260166 0.0
  endloop
endfacet
facet normal 0.0 0.0 -1.0
  outer loop
    vertex 4.8943149754727155 -8.41893155058022 0.0
    vertex 5.358777652579711 2.8520213851359966 0.0
    vertex 7.886236084725926 -8.567297843857466 0.0
  endloop
endfacet
facet normal 0.0 0.0 -1.0
  outer loop
    vertex 5.358777652579711 2.8520213851359966 0.0
    vertex 4.8943149754727155 -8.41893155058022 0.0
    vertex 5.268188066255789 3.2723968527505005 0.0
  endloop
endfacet
facet normal 0.0 0.0 -1.0
  outer loop
    vertex 7.886236084725926 -8.567297843857466 0.0
    vertex 5.358777652579711 2.8520213851359966 0.0
    vertex 5.555081650715343 2.469416174457395 0.0
  endloop
endfacet
facet normal 0.0 0.0 -1.0
  outer loop
    vertex 7.886236084725926 -8.567297843857466 0.0
    vertex 5.555081650715343 2.469416174457395 0.0
    vertex 5.843722267597442 2.150655133537434 0.0
  endloop
endfacet
facet normal 0.0 0.0 -1.0
  outer loop
    vertex 7.886236084725926 -8.567297843857466 0.0
    vertex 5.843722267597442 2.150655133537434 0.0
    vertex 6.2050291221866525 1.917461300537284 0.0
  endloop
endfacet
facet normal 0.0 0.0 -1.0
  outer loop
    vertex 7.886236084725926 -8.567297843857466 0.0
    vertex 6.2050291221866525 1.917461300537284 0.0
    vertex 6.614379749430537 1.7857264498048722 0.0
  endloop
endfacet
facet normal 0.0 0.0 -1.0
  outer loop
    vertex 7.886236084725926 -8.567297843857466 0.0
    vertex 6.614379749430537 1.7857264498048722 0.0
    vertex 7.043877580566325 1.764428093715482 0.0
  endloop
endfacet
facet normal 0.0 0.0 -1.0
  outer loop
    vertex 7.886236084725926 -8.567297843857466 0.0
    vertex 7.043877580566325 1.764428093715482 0.0
    vertex 7.464253048180829 1.8550176800394067 0.0
  endloop
endfacet
facet normal 0.0 0.0 -1.0
  outer loop
    vertex 7.886236084725926 -8.567297843857466 0.0
    vertex 7.464253048180829 1.8550176800394067 0.0
    vertex 7.84685825885943 2.051321678175039 0.0
  endloop
endfacet
facet normal 0.0 0.0 -1.0
  outer loop
    vertex 7.886236084725926 -8.567297843857466 0.0
    vertex 7.84685825885943 2.051321678175039 0.0
    vertex 8.165619299779394 2.339962295057133 0.0
  endloop
endfacet
facet normal 0.0 0.0 -1.0
  outer loop
    vertex 7.886236084725926 -8.567297843857466 0.0
    vertex 8.165619299779394 2.339962295057133 0.0
    vertex 10.814609976724455 -7.936242513765763 0.0
  endloop
endfacet
facet normal 0.0 0.0 -1.0
  outer loop
    vertex 10.814609976724455 -7.936242513765763 0.0
    vertex 8.165619299779394 2.339962295057133 0.0
    vertex 8.398813132779543 2.701269149646347 0.0
  endloop
endfacet
facet normal 0.0 0.0 -1.0
  outer loop
    vertex 10.814609976724455 -7.936242513765763 0.0
    vertex 8.398813132779543 2.701269149646347 0.0
    vertex 8.530547983511955 3.110619776890234 0.0
  endloop
endfacet
facet normal 0.0 0.0 -1.0
  outer loop
    vertex 10.814609976724455 -7.936242513765763 0.0
    vertex 8.530547983511955 3.110619776890234 0.0
    vertex 8.548010441836963 3.462763761403021 0.0
  endloop
endfacet
facet normal 0.0 0.0 -1.0
  outer loop
    vertex 10.814609976724455 -7.936242513765763 0.0
    vertex 8.548010441836963 3.462763761403021 0.0
    vertex 8.551846339601346 3.5401176080260166 0.0
  endloop
endfacet
facet normal 0.0 0.0 -1.0
  outer loop
    vertex 10.814609976724455 -7.936242513765763 0.0
    vertex 8.551846339601346 3.5401176080260166 0.0
    vertex 9.013189967076432 14.158599226701783 0.0
  endloop
endfacet
facet normal 0.0 0.0 -1.0
  outer loop
    vertex 10.814609976724455 -7.936242513765763 0.0
    vertex 9.013189967076432 14.158599226701783 0.0
    vertex 11.86476381437212 13.2409222277555 0.0
  endloop
endfacet
facet normal 0.0 0.0 -1.0
  outer loop
    vertex 10.814609976724455 -7.936242513765763 0.0
    vertex 11.86476381437212 13.2409222277555 0.0
    vertex 13.479872810095284 -6.5687709381826 0.0
  endloop
endfacet
facet normal 0.0 0.0 -1.0
  outer loop
    vertex 13.479872810095284 -6.5687709381826 0.0
    vertex 11.86476381437212 13.2409222277555 0.0
    vertex 14.381660354465692 11.61647269408547 0.0
  endloop
endfacet
facet normal 0.0 0.0 -1.0
  outer loop
    vertex 13.479872810095284 -6.5687709381826 0.0
    vertex 14.381660354465692 11.61647269408547 0.0
    vertex 15.700391327299265 -4.558074045130335 0.0
  endloop
endfacet
facet normal 0.0 0.0 -1.0
  outer loop
    vertex 15.700391327299265 -4.558074045130335 0.0
    vertex 14.381660354465692 11.61647269408547 0.0
    vertex 16.392357247517957 9.39595417688149 0.0
  endloop
endfacet
facet normal 0.0 0.0 -1.0
  outer loop
    vertex 15.700391327299265 -4.558074045130335 0.0
    vertex 16.392357247517957 9.39595417688149 0.0
    vertex 17.3248408609693 -2.0411775050367678 0.0
  endloop
endfacet
facet normal 0.0 0.0 -1.0
  outer loop
    vertex 17.3248408609693 -2.0411775050367678 0.0
    vertex 16.392357247517957 9.39595417688149 0.0
    vertex 17.759828823101124 6.73069134351067 0.0
  endloop
endfacet
facet normal 0.0 0.0 -1.0
  outer loop
    vertex 17.3248408609693 -2.0411775050367678 0.0
    vertex 17.759828823101124 6.73069134351067 0.0
    vertex 18.242517859915576 0.8103963422589207 0.0
  endloop
endfacet
facet normal 0.0 0.0 -1.0
  outer loop
    vertex 18.242517859915576 0.8103963422589207 0.0
    vertex 17.759828823101124 6.73069134351067 0.0
    vertex 18.39088415319283 3.8023174515121267 0.0
  endloop
endfacet
facet normal 0.0 0.0 -1.0
  outer loop
    vertex -0.03288847772045693 16.236090885886238 0.0
    vertex -8.603213537720459 -10.493909114113766 0.0
    vertex -8.603213537720459 16.236090885886238 0.0
  endloop
endfacet
facet normal 0.0 0.0 -1.0
  outer loop
    vertex -8.603213537720459 -10.493909114113766 0.0
    vertex -0.03288847772045693 16.236090885886238 0.0
    vertex -0.03288847772045693 -10.493909114113766 0.0
  endloop
endfacet
facet normal 0.0 0.0 -1.0
  outer loop
    vertex -0.03288847772045693 -10.493909114113766 0.0
    vertex -0.03288847772045693 16.236090885886238 0.0
    vertex -0.03288847772045693 11.891433598182976 0.0
  endloop
endfacet
facet normal 0.0 0.0 -1.0
  outer loop
    vertex -0.03288847772045693 -10.493909114113766 0.0
    vertex -0.03288847772045693 11.891433598182976 0.0
    vertex -0.03288847772045693 -6.161606500289519 0.0
  endloop
endfacet
facet normal 0.04952811332600442 0.9987727298992333 0.0
  outer loop
    vertex 6.614379749430537 1.7857264498048722 4.2106224600000015
    vertex 7.043877580566325 1.764428093715482 0.0
    vertex 6.614379749430537 1.7857264498048722 0.0
  endloop
endfacet
facet normal 0.04952811332600442 0.9987727298992333 0.0
  outer loop
    vertex 7.043877580566325 1.764428093715482 0.0
    vertex 6.614379749430537 1.7857264498048722 4.2106224600000015
    vertex 7.043877580566325 1.764428093715482 4.2106224600000015
  endloop
endfacet
facet normal 0.5422789692914501 0.8401985000368677 0.0
  outer loop
    vertex 5.843722267597442 2.150655133537434 4.2106224600000015
    vertex 6.2050291221866525 1.917461300537284 0.0
    vertex 5.843722267597442 2.150655133537434 0.0
  endloop
endfacet
facet normal 0.5422789692914501 0.8401985000368677 0.0
  outer loop
    vertex 6.2050291221866525 1.917461300537284 0.0
    vertex 5.843722267597442 2.150655133537434 4.2106224600000015
    vertex 6.2050291221866525 1.917461300537284 4.2106224600000015
  endloop
endfacet
facet normal -0.21066092043799914 0.9775591933996708 0.0
  outer loop
    vertex 7.043877580566325 1.764428093715482 4.2106224600000015
    vertex 7.464253048180829 1.8550176800394067 0.0
    vertex 7.043877580566325 1.764428093715482 0.0
  endloop
endfacet
facet normal -0.21066092043799914 0.9775591933996708 0.0
  outer loop
    vertex 7.464253048180829 1.8550176800394067 0.0
    vertex 7.043877580566325 1.764428093715482 4.2106224600000015
    vertex 7.464253048180829 1.8550176800394067 4.2106224600000015
  endloop
endfacet
facet normal -0.4564937606077806 0.8897266133628724 0.0
  outer loop
    vertex 7.464253048180829 1.8550176800394067 4.2106224600000015
    vertex 7.84685825885943 2.051321678175039 0.0
    vertex 7.464253048180829 1.8550176800394067 0.0
  endloop
endfacet
facet normal -0.4564937606077806 0.8897266133628724 0.0
  outer loop
    vertex 7.84685825885943 2.051321678175039 0.0
    vertex 7.464253048180829 1.8550176800394067 4.2106224600000015
    vertex 7.84685825885943 2.051321678175039 4.2106224600000015
  endloop
endfacet
facet normal -0.6712173053837557 0.7412606349681402 0.0
  outer loop
    vertex 7.84685825885943 2.051321678175039 4.2106224600000015
    vertex 8.165619299779394 2.339962295057133 0.0
    vertex 7.84685825885943 2.051321678175039 0.0
  endloop
endfacet
facet normal -0.6712173053837557 0.7412606349681402 0.0
  outer loop
    vertex 8.165619299779394 2.339962295057133 0.0
    vertex 7.84685825885943 2.051321678175039 4.2106224600000015
    vertex 8.165619299779394 2.339962295057133 4.2106224600000015
  endloop
endfacet
facet normal -0.8401985000368679 0.5422789692914498 0.0
  outer loop
    vertex 8.398813132779543 2.701269149646347 4.2106224600000015
    vertex 8.165619299779394 2.339962295057133 0.0
    vertex 8.165619299779394 2.339962295057133 4.2106224600000015
  endloop
endfacet
facet normal -0.8401985000368679 0.5422789692914498 0.0
  outer loop
    vertex 8.165619299779394 2.339962295057133 0.0
    vertex 8.398813132779543 2.701269149646347 4.2106224600000015
    vertex 8.398813132779543 2.701269149646347 0.0
  endloop
endfacet
facet normal 0.30634188801591994 0.9519215554061383 0.0
  outer loop
    vertex 6.2050291221866525 1.917461300537284 4.2106224600000015
    vertex 6.614379749430537 1.7857264498048722 0.0
    vertex 6.2050291221866525 1.917461300537284 0.0
  endloop
endfacet
facet normal 0.30634188801591994 0.9519215554061383 0.0
  outer loop
    vertex 6.614379749430537 1.7857264498048722 0.0
    vertex 6.2050291221866525 1.917461300537284 4.2106224600000015
    vertex 6.614379749430537 1.7857264498048722 4.2106224600000015
  endloop
endfacet
facet normal -0.9519215554061392 0.30634188801591744 0.0
  outer loop
    vertex 8.530547983511955 3.110619776890234 4.2106224600000015
    vertex 8.398813132779543 2.701269149646347 0.0
    vertex 8.398813132779543 2.701269149646347 4.2106224600000015
  endloop
endfacet
facet normal -0.9519215554061392 0.30634188801591744 0.0
  outer loop
    vertex 8.398813132779543 2.701269149646347 0.0
    vertex 8.530547983511955 3.110619776890234 4.2106224600000015
    vertex 8.530547983511955 3.110619776890234 0.0
  endloop
endfacet
facet normal 0.7412606349681412 0.6712173053837543 0.0
  outer loop
    vertex 5.555081650715343 2.469416174457395 0.0
    vertex 5.843722267597442 2.150655133537434 4.2106224600000015
    vertex 5.843722267597442 2.150655133537434 0.0
  endloop
endfacet
facet normal 0.7412606349681412 0.6712173053837543 0.0
  outer loop
    vertex 5.843722267597442 2.150655133537434 4.2106224600000015
    vertex 5.555081650715343 2.469416174457395 0.0
    vertex 5.555081650715343 2.469416174457395 4.2106224600000015
  endloop
endfacet
facet normal 0.04952811332600241 0.9987727298992333 -9.124456392652387e-33
  outer loop
    vertex 6.021268857823229 14.306965519979036 1.76018634
    vertex 9.013189967076432 14.158599226701783 0.0
    vertex 6.021268857823229 14.306965519979036 0.0
  endloop
endfacet
facet normal 0.04952811332600241 0.9987727298992333 -9.124456392652387e-33
  outer loop
    vertex 9.013189967076432 14.158599226701783 0.0
    vertex 6.021268857823229 14.306965519979036 1.76018634
    vertex 9.013189967076432 14.158599226701783 1.76018634
  endloop
endfacet
facet normal 1.0 0.0 6.999253900460495e-32
  outer loop
    vertex -0.03288847772045693 16.236090885886238 0.0
    vertex -0.03288847772045693 11.891433598182976 1.76018634
    vertex -0.03288847772045693 11.891433598182976 0.0
  endloop
endfacet
facet normal 1.0 0.0 6.999253900460495e-32
  outer loop
    vertex -0.03288847772045693 11.891433598182976 1.76018634
    vertex -0.03288847772045693 16.236090885886238 0.0
    vertex -0.03288847772045693 16.236090885886238 1.76018634
  endloop
endfacet
facet normal -0.5422789692914477 -0.8401985000368694 -2.73634973296691e-32
  outer loop
    vertex 2.0427411281770267 -7.501254551633944 1.76018634
    vertex -0.03288847772045693 -6.161606500289519 0.0
    vertex 2.0427411281770267 -7.501254551633944 0.0
  endloop
endfacet
facet normal -0.5422789692914477 -0.8401985000368694 -2.73634973296691e-32
  outer loop
    vertex -0.03288847772045693 -6.161606500289519 0.0
    vertex 2.0427411281770267 -7.501254551633944 1.76018634
    vertex -0.03288847772045693 -6.161606500289519 1.76018634
  endloop
endfacet
facet normal 0.8401985000368684 -0.5422789692914491 6.564388043306719e-32
  outer loop
    vertex 17.3248408609693 -2.0411775050367678 0.0
    vertex 15.700391327299265 -4.558074045130335 1.76018634
    vertex 15.700391327299265 -4.558074045130335 0.0
  endloop
endfacet
facet normal 0.8401985000368684 -0.5422789692914491 6.564388043306719e-32
  outer loop
    vertex 15.700391327299265 -4.558074045130335 1.76018634
    vertex 17.3248408609693 -2.0411775050367678 0.0
    vertex 17.3248408609693 -2.0411775050367678 1.76018634
  endloop
endfacet
facet normal -1.0 0.0 -6.999253900460495e-32
  outer loop
    vertex -8.603213537720459 16.236090885886238 1.76018634
    vertex -8.603213537720459 -10.493909114113766 0.0
    vertex -8.603213537720459 -10.493909114113766 1.76018634
  endloop
endfacet
facet normal -1.0 0.0 -6.999253900460495e-32
  outer loop
    vertex -8.603213537720459 -10.493909114113766 0.0
    vertex -8.603213537720459 16.236090885886238 1.76018634
    vertex -8.603213537720459 16.236090885886238 0.0
  endloop
endfacet
facet normal 0.889726613362871 0.45649376060778385 5.651942404041481e-32
  outer loop
    vertex 16.392357247517957 9.39595417688149 0.0
    vertex 17.759828823101124 6.73069134351067 1.76018634
    vertex 17.759828823101124 6.73069134351067 0.0
  endloop
endfacet
facet normal 0.889726613362871 0.45649376060778385 5.651942404041481e-32
  outer loop
    vertex 17.759828823101124 6.73069134351067 1.76018634
    vertex 16.392357247517957 9.39595417688149 0.0
    vertex 16.392357247517957 9.39595417688149 1.76018634
  endloop
endfacet
facet normal 0.3063418880159198 0.9519215554061384 9.441222317809334e-33
  outer loop
    vertex 9.013189967076432 14.158599226701783 1.76018634
    vertex 11.86476381437212 13.2409222277555 0.0
    vertex 9.013189967076432 14.158599226701783 0.0
  endloop
endfacet
facet normal 0.3063418880159198 0.9519215554061384 9.441222317809334e-33
  outer loop
    vertex 11.86476381437212 13.2409222277555 0.0
    vertex 9.013189967076432 14.158599226701783 1.76018634
    vertex 11.86476381437212 13.2409222277555 1.76018634
  endloop
endfacet
facet normal 0.2106609204379965 -0.9775591933996715 2.70683184788314e-32
  outer loop
    vertex 10.814609976724455 -7.936242513765763 1.76018634
    vertex 7.886236084725926 -8.567297843857466 0.0
    vertex 10.814609976724455 -7.936242513765763 0.0
  endloop
endfacet
facet normal 0.2106609204379965 -0.9775591933996715 2.70683184788314e-32
  outer loop
    vertex 7.886236084725926 -8.567297843857466 0.0
    vertex 10.814609976724455 -7.936242513765763 1.76018634
    vertex 7.886236084725926 -8.567297843857466 1.76018634
  endloop
endfacet
facet normal 0.9519215554061389 -0.30634188801591805 7.048931369766155e-32
  outer loop
    vertex 18.242517859915576 0.8103963422589207 0.0
    vertex 17.3248408609693 -2.0411775050367678 1.76018634
    vertex 17.3248408609693 -2.0411775050367678 0.0
  endloop
endfacet
facet normal 0.9519215554061389 -0.30634188801591805 7.048931369766155e-32
  outer loop
    vertex 17.3248408609693 -2.0411775050367678 1.76018634
    vertex 18.242517859915576 0.8103963422589207 0.0
    vertex 18.242517859915576 0.8103963422589207 1.76018634
  endloop
endfacet
facet normal -0.21066092043799572 0.9775591933996716 -2.706831847883135e-32
  outer loop
    vertex 3.092894965824687 13.67591018988733 1.76018634
    vertex 6.021268857823229 14.306965519979036 0.0
    vertex 3.092894965824687 13.67591018988733 0.0
  endloop
endfacet
facet normal -0.21066092043799572 0.9775591933996716 -2.706831847883135e-32
  outer loop
    vertex 6.021268857823229 14.306965519979036 0.0
    vertex 3.092894965824687 13.67591018988733 1.76018634
    vertex 6.021268857823229 14.306965519979036 1.76018634
  endloop
endfacet
facet normal 0.5422789692914471 0.8401985000368698 2.736349732966906e-32
  outer loop
    vertex 11.86476381437212 13.2409222277555 1.76018634
    vertex 14.381660354465692 11.61647269408547 0.0
    vertex 11.86476381437212 13.2409222277555 0.0
  endloop
endfacet
facet normal 0.5422789692914471 0.8401985000368698 2.736349732966906e-32
  outer loop
    vertex 14.381660354465692 11.61647269408547 0.0
    vertex 11.86476381437212 13.2409222277555 1.76018634
    vertex 14.381660354465692 11.61647269408547 1.76018634
  endloop
endfacet
facet normal 0.0 -1.0 1.2606526409383868e-32
  outer loop
    vertex -0.03288847772045693 -10.493909114113766 1.76018634
    vertex -8.603213537720459 -10.493909114113766 0.0
    vertex -0.03288847772045693 -10.493909114113766 0.0
  endloop
endfacet
facet normal 0.0 -1.0 1.2606526409383868e-32
  outer loop
    vertex -8.603213537720459 -10.493909114113766 0.0
    vertex -0.03288847772045693 -10.493909114113766 1.76018634
    vertex -8.603213537720459 -10.493909114113766 1.76018634
  endloop
endfacet
facet normal 0.45649376060778074 -0.8897266133628724 4.3167519393189605e-32
  outer loop
    vertex 13.479872810095284 -6.5687709381826 1.76018634
    vertex 10.814609976724455 -7.936242513765763 0.0
    vertex 13.479872810095284 -6.5687709381826 0.0
  endloop
endfacet
facet normal 0.45649376060778074 -0.8897266133628724 4.3167519393189605e-32
  outer loop
    vertex 10.814609976724455 -7.936242513765763 0.0
    vertex 13.479872810095284 -6.5687709381826 1.76018634
    vertex 10.814609976724455 -7.936242513765763 1.76018634
  endloop
endfacet
facet normal -0.4564937606077831 0.8897266133628713 -4.3167519393189747e-32
  outer loop
    vertex 0.4276321324538637 12.308438614304166 1.76018634
    vertex 3.092894965824687 13.67591018988733 0.0
    vertex 0.4276321324538637 12.308438614304166 0.0
  endloop
endfacet
facet normal -0.4564937606077831 0.8897266133628713 -4.3167519393189747e-32
  outer loop
    vertex 3.092894965824687 13.67591018988733 0.0
    vertex 0.4276321324538637 12.308438614304166 1.76018634
    vertex 3.092894965824687 13.67591018988733 1.76018634
  endloop
endfacet
endsolid ScopeCap
