solid Rest_cover_thinned
facet normal 0.9999999999926503 3.800029134931496e-06 5.090492168796691e-07
  outer loop
    vertex 2.9440993282114527 13.263255252627982 0.9628278799954127
    vertex 2.944074814102978 19.15432623198519 3.3968049999821104
    vertex 2.9440972003548262 13.263252535789738 3.3968049999821104
  endloop
endfacet
facet normal 0.9999999999926503 3.800029134931496e-06 5.090492168796691e-07
  outer loop
    vertex 2.944074814102978 19.15432623198519 3.3968049999821104
    vertex 2.9440993282114527 13.263255252627982 0.9628278799954127
    vertex 2.9440769419596045 19.154328948823437 0.9628278799954127
  endloop
endfacet
facet normal -0.9999899675169757 0.001047290984820336 -0.004355232139757636
  outer loop
    vertex -5.003474049726737 -8.50169497218847 3.396291656324501
    vertex -4.963909984358306 19.155503078234716 0.9634046241958089
    vertex -4.98228060848642 -8.507154929379723 0.9630947755406474
  endloop
endfacet
facet normal -0.9999899675169757 0.001047290984820336 -0.004355232139757636
  outer loop
    vertex -4.963909984358306 19.155503078234716 0.9634046241958089
    vertex -5.003474049726737 -8.50169497218847 3.396291656324501
    vertex -4.963912112214933 19.155500361396474 3.3973817441825065
  endloop
endfacet
facet normal -0.0075492604056883895 -0.9999690247475623 0.002226704456406268
  outer loop
    vertex 2.9261250247428308 -8.56144094124036 3.396495151326949
    vertex -4.98228060848642 -8.507154929379723 0.9630947755406474
    vertex 2.9257063178314895 -8.566975878615096 0.9625180313402514
  endloop
endfacet
facet normal -0.0075492604056883895 -0.9999690247475623 0.002226704456406268
  outer loop
    vertex -4.98228060848642 -8.507154929379723 0.9630947755406474
    vertex 2.9261250247428308 -8.56144094124036 3.396495151326949
    vertex -5.003474049726737 -8.50169497218847 3.396291656324501
  endloop
endfacet
facet normal -0.0 -0.0 1.0
  outer loop
    vertex -6.287661546455302 -10.045418497373916 0.9628278799954127
    vertex -4.98228060848642 -8.507154929379723 0.9630947755406474
    vertex -6.287661546455302 20.688406695150736 0.9628278799954127
  endloop
endfacet
facet normal -0.0 -0.0 1.0
  outer loop
    vertex -4.98228060848642 -8.507154929379723 0.9630947755406474
    vertex -6.287661546455302 -10.045418497373916 0.9628278799954127
    vertex 4.020048513544696 -10.045418497373916 0.9628278799954127
  endloop
endfacet
facet normal -0.0 -0.0 1.0
  outer loop
    vertex -4.98228060848642 -8.507154929379723 0.9630947755406474
    vertex 4.020048513544696 -10.045418497373916 0.9628278799954127
    vertex 2.9257063178314895 -8.566975878615096 0.9625180313402514
  endloop
endfacet
facet normal -0.0 -0.0 1.0
  outer loop
    vertex 2.9257063178314895 -8.566975878615096 0.9625180313402514
    vertex 4.020048513544696 -10.045418497373916 0.9628278799954127
    vertex 2.9440993282114527 -2.8297899071865524 0.9628278799954127
  endloop
endfacet
facet normal -0.0 -0.0 1.0
  outer loop
    vertex 2.9440993282114527 -2.8297899071865524 0.9628278799954127
    vertex 4.020048513544696 -10.045418497373916 0.9628278799954127
    vertex 4.020048513544696 -1.7707050497868464 0.9628278799954127
  endloop
endfacet
facet normal -0.0 -0.0 1.0
  outer loop
    vertex 4.020048513544696 -1.7707050497868464 0.9628278799954127
    vertex 4.020048513544696 -10.045418497373916 0.9628278799954127
    vertex 4.020048513544696 -3.8155044391421264 0.9628278799954127
  endloop
endfacet
facet normal -0.0 -0.0 1.0
  outer loop
    vertex 4.020048513544696 -1.7707050497868464 0.9628278799954127
    vertex 4.020048513544696 -3.8155044391421264 0.9628278799954127
    vertex 6.095678119442179 -5.155152490486551 0.9628278799954127
  endloop
endfacet
facet normal -0.0 -0.0 1.0
  outer loop
    vertex 4.020048513544696 -1.7707050497868464 0.9628278799954127
    vertex 6.095678119442179 -5.155152490486551 0.9628278799954127
    vertex 6.066388269789725 -3.3409167713279477 0.9628278799954127
  endloop
endfacet
facet normal -0.0 -0.0 1.0
  outer loop
    vertex 6.066388269789725 -3.3409167713279477 0.9628278799954127
    vertex 6.095678119442179 -5.155152490486551 0.9628278799954127
    vertex 8.44940138808692 -4.3279931242396525 0.9628278799954127
  endloop
endfacet
facet normal -0.0 -0.0 1.0
  outer loop
    vertex 8.44940138808692 -4.3279931242396525 0.9628278799954127
    vertex 6.095678119442179 -5.155152490486551 0.9628278799954127
    vertex 8.94725196673787 -6.072829489432827 0.9628278799954127
  endloop
endfacet
facet normal -0.0 -0.0 1.0
  outer loop
    vertex 8.44940138808692 -4.3279931242396525 0.9628278799954127
    vertex 8.94725196673787 -6.072829489432827 0.9628278799954127
    vertex 11.00668946253973 -4.664666486291824 0.9628278799954127
  endloop
endfacet
facet normal -0.0 -0.0 1.0
  outer loop
    vertex 11.00668946253973 -4.664666486291824 0.9628278799954127
    vertex 8.94725196673787 -6.072829489432827 0.9628278799954127
    vertex 11.939173075991079 -6.2211957827100735 0.9628278799954127
  endloop
endfacet
facet normal -0.0 -0.0 1.0
  outer loop
    vertex 11.00668946253973 -4.664666486291824 0.9628278799954127
    vertex 11.939173075991079 -6.2211957827100735 0.9628278799954127
    vertex 13.563977536992521 -4.327993124239655 0.9628278799954127
  endloop
endfacet
facet normal -0.0 -0.0 1.0
  outer loop
    vertex 13.563977536992521 -4.327993124239655 0.9628278799954127
    vertex 11.939173075991079 -6.2211957827100735 0.9628278799954127
    vertex 14.86754696798961 -5.59014045261837 0.9628278799954127
  endloop
endfacet
facet normal -0.0 -0.0 1.0
  outer loop
    vertex 13.563977536992521 -4.327993124239655 0.9628278799954127
    vertex 14.86754696798961 -5.59014045261837 0.9628278799954127
    vertex 15.946990655289724 -3.340916771327949 0.9628278799954127
  endloop
endfacet
facet normal -0.0 -0.0 1.0
  outer loop
    vertex 15.946990655289724 -3.340916771327949 0.9628278799954127
    vertex 14.86754696798961 -5.59014045261837 0.9628278799954127
    vertex 17.532809801360436 -4.222668877035208 0.9628278799954127
  endloop
endfacet
facet normal -0.0 -0.0 1.0
  outer loop
    vertex 15.946990655289724 -3.340916771327949 0.9628278799954127
    vertex 17.532809801360436 -4.222668877035208 0.9628278799954127
    vertex 17.99333041153475 -1.7707050497868548 0.9628278799954127
  endloop
endfacet
facet normal -0.0 -0.0 1.0
  outer loop
    vertex 17.99333041153475 -1.7707050497868548 0.9628278799954127
    vertex 17.532809801360436 -4.222668877035208 0.9628278799954127
    vertex 19.75332831856442 -2.2119719839829433 0.9628278799954127
  endloop
endfacet
facet normal -0.0 -0.0 1.0
  outer loop
    vertex 17.99333041153475 -1.7707050497868548 0.9628278799954127
    vertex 19.75332831856442 -2.2119719839829433 0.9628278799954127
    vertex 19.563542133075842 0.27563470645817295 0.9628278799954127
  endloop
endfacet
facet normal -0.0 -0.0 1.0
  outer loop
    vertex 19.563542133075842 0.27563470645817295 0.9628278799954127
    vertex 19.75332831856442 -2.2119719839829433 0.9628278799954127
    vertex 20.550618485987552 2.6586478247553704 0.9628278799954127
  endloop
endfacet
facet normal -0.0 -0.0 1.0
  outer loop
    vertex 20.550618485987552 2.6586478247553704 0.9628278799954127
    vertex 19.75332831856442 -2.2119719839829433 0.9628278799954127
    vertex 21.377777852234452 0.3049245561106246 0.9628278799954127
  endloop
endfacet
facet normal -0.0 -0.0 1.0
  outer loop
    vertex 20.550618485987552 2.6586478247553704 0.9628278799954127
    vertex 21.377777852234452 0.3049245561106246 0.9628278799954127
    vertex 20.887291848039727 5.215935899208178 0.9628278799954127
  endloop
endfacet
facet normal -0.0 -0.0 1.0
  outer loop
    vertex 6.066388269789725 13.772788569744291 0.9628278799954127
    vertex 4.020048513544696 14.237535659330367 0.9628278799954127
    vertex 4.020048513544696 12.2025768482032 0.9628278799954127
  endloop
endfacet
facet normal -0.0 -0.0 1.0
  outer loop
    vertex 4.020048513544696 14.237535659330367 0.9628278799954127
    vertex 6.066388269789725 13.772788569744291 0.9628278799954127
    vertex 4.480569123719016 14.654540675451557 0.9628278799954127
  endloop
endfacet
facet normal -0.0 -0.0 1.0
  outer loop
    vertex 4.480569123719016 14.654540675451557 0.9628278799954127
    vertex 6.066388269789725 13.772788569744291 0.9628278799954127
    vertex 7.14583195708984 16.022012251034724 0.9628278799954127
  endloop
endfacet
facet normal -0.0 -0.0 1.0
  outer loop
    vertex 7.14583195708984 16.022012251034724 0.9628278799954127
    vertex 6.066388269789725 13.772788569744291 0.9628278799954127
    vertex 8.449401388086931 14.759864922655998 0.9628278799954127
  endloop
endfacet
facet normal -0.0 -0.0 1.0
  outer loop
    vertex 7.14583195708984 16.022012251034724 0.9628278799954127
    vertex 8.449401388086931 14.759864922655998 0.9628278799954127
    vertex 10.074205849088383 16.653067581126425 0.9628278799954127
  endloop
endfacet
facet normal -0.0 -0.0 1.0
  outer loop
    vertex 10.074205849088383 16.653067581126425 0.9628278799954127
    vertex 8.449401388086931 14.759864922655998 0.9628278799954127
    vertex 11.00668946253973 15.096538284708172 0.9628278799954127
  endloop
endfacet
facet normal -0.0 -0.0 1.0
  outer loop
    vertex 10.074205849088383 16.653067581126425 0.9628278799954127
    vertex 11.00668946253973 15.096538284708172 0.9628278799954127
    vertex 13.066126958341584 16.504701287849173 0.9628278799954127
  endloop
endfacet
facet normal -0.0 -0.0 1.0
  outer loop
    vertex 13.066126958341584 16.504701287849173 0.9628278799954127
    vertex 11.00668946253973 15.096538284708172 0.9628278799954127
    vertex 13.563977536992528 14.759864922655998 0.9628278799954127
  endloop
endfacet
facet normal -0.0 -0.0 1.0
  outer loop
    vertex 13.066126958341584 16.504701287849173 0.9628278799954127
    vertex 13.563977536992528 14.759864922655998 0.9628278799954127
    vertex 15.917700805637274 15.58702428890289 0.9628278799954127
  endloop
endfacet
facet normal -0.0 -0.0 1.0
  outer loop
    vertex 15.917700805637274 15.58702428890289 0.9628278799954127
    vertex 13.563977536992528 14.759864922655998 0.9628278799954127
    vertex 15.946990655289724 13.772788569744291 0.9628278799954127
  endloop
endfacet
facet normal -0.0 -0.0 1.0
  outer loop
    vertex 15.917700805637274 15.58702428890289 0.9628278799954127
    vertex 15.946990655289724 13.772788569744291 0.9628278799954127
    vertex 18.434597345730847 13.962574755232861 0.9628278799954127
  endloop
endfacet
facet normal -0.0 -0.0 1.0
  outer loop
    vertex 18.434597345730847 13.962574755232861 0.9628278799954127
    vertex 15.946990655289724 13.772788569744291 0.9628278799954127
    vertex 17.99333041153475 12.2025768482032 0.9628278799954127
  endloop
endfacet
facet normal -0.0 -0.0 1.0
  outer loop
    vertex 18.434597345730847 13.962574755232861 0.9628278799954127
    vertex 17.99333041153475 12.2025768482032 0.9628278799954127
    vertex 19.563542133075842 10.156237091958175 0.9628278799954127
  endloop
endfacet
facet normal -0.0 -0.0 1.0
  outer loop
    vertex 18.434597345730847 13.962574755232861 0.9628278799954127
    vertex 19.563542133075842 10.156237091958175 0.9628278799954127
    vertex 20.445294238783113 11.742056238028882 0.9628278799954127
  endloop
endfacet
facet normal -0.0 -0.0 1.0
  outer loop
    vertex 20.445294238783113 11.742056238028882 0.9628278799954127
    vertex 19.563542133075842 10.156237091958175 0.9628278799954127
    vertex 20.550618485987552 7.773223973660975 0.9628278799954127
  endloop
endfacet
facet normal -0.0 -0.0 1.0
  outer loop
    vertex 20.445294238783113 11.742056238028882 0.9628278799954127
    vertex 20.550618485987552 7.773223973660975 0.9628278799954127
    vertex 21.81276581436628 9.076793404658067 0.9628278799954127
  endloop
endfacet
facet normal -0.0 -0.0 1.0
  outer loop
    vertex 21.81276581436628 9.076793404658067 0.9628278799954127
    vertex 20.550618485987552 7.773223973660975 0.9628278799954127
    vertex 20.887291848039727 5.215935899208178 0.9628278799954127
  endloop
endfacet
facet normal -0.0 -0.0 1.0
  outer loop
    vertex 21.81276581436628 9.076793404658067 0.9628278799954127
    vertex 20.887291848039727 5.215935899208178 0.9628278799954127
    vertex 21.377777852234452 0.3049245561106246 0.9628278799954127
  endloop
endfacet
facet normal -0.0 -0.0 1.0
  outer loop
    vertex 21.81276581436628 9.076793404658067 0.9628278799954127
    vertex 21.377777852234452 0.3049245561106246 0.9628278799954127
    vertex 22.29545485118073 3.1564984034063133 0.9628278799954127
  endloop
endfacet
facet normal -0.0 -0.0 1.0
  outer loop
    vertex 21.81276581436628 9.076793404658067 0.9628278799954127
    vertex 22.29545485118073 3.1564984034063133 0.9628278799954127
    vertex 22.44382114445798 6.148419512659523 0.9628278799954127
  endloop
endfacet
facet normal -0.0 -0.0 1.0
  outer loop
    vertex -6.287661546455302 20.688406695150736 0.9628278799954127
    vertex -4.963909984358306 19.155503078234716 0.9634046241958089
    vertex 4.020048513544696 20.688406695150736 0.9628278799954127
  endloop
endfacet
facet normal -0.0 -0.0 1.0
  outer loop
    vertex -4.963909984358306 19.155503078234716 0.9634046241958089
    vertex -6.287661546455302 20.688406695150736 0.9628278799954127
    vertex -4.98228060848642 -8.507154929379723 0.9630947755406474
  endloop
endfacet
facet normal -0.0 -0.0 1.0
  outer loop
    vertex 4.020048513544696 20.688406695150736 0.9628278799954127
    vertex -4.963909984358306 19.155503078234716 0.9634046241958089
    vertex 2.9440769419596045 19.154328948823437 0.9628278799954127
  endloop
endfacet
facet normal -0.0 -0.0 1.0
  outer loop
    vertex 4.020048513544696 20.688406695150736 0.9628278799954127
    vertex 2.9440769419596045 19.154328948823437 0.9628278799954127
    vertex 2.9440993282114527 13.263255252627982 0.9628278799954127
  endloop
endfacet
facet normal -0.0 -0.0 1.0
  outer loop
    vertex 4.020048513544696 20.688406695150736 0.9628278799954127
    vertex 2.9440993282114527 13.263255252627982 0.9628278799954127
    vertex 4.020048513544696 12.2025768482032 0.9628278799954127
  endloop
endfacet
facet normal -0.0 -0.0 1.0
  outer loop
    vertex 4.020048513544696 20.688406695150736 0.9628278799954127
    vertex 4.020048513544696 12.2025768482032 0.9628278799954127
    vertex 4.020048513544696 14.237535659330367 0.9628278799954127
  endloop
endfacet
facet normal -1.1849038609293392e-06 -9.421421700515755e-06 0.9999999999549165
  outer loop
    vertex -5.003474049726737 -8.50169497218847 3.396291656324501
    vertex -3.717319562791637 -6.88705727979118 3.3968049999821104
    vertex -4.963912112214933 19.155500361396474 3.3973817441825065
  endloop
endfacet
facet normal -1.1849038609293392e-06 -9.421421700515755e-06 0.9999999999549165
  outer loop
    vertex -3.717319562791637 -6.88705727979118 3.3968049999821104
    vertex -5.003474049726737 -8.50169497218847 3.396291656324501
    vertex 2.9261250247428308 -8.56144094124036 3.396495151326949
  endloop
endfacet
facet normal -1.1849038609293392e-06 -9.421421700515755e-06 0.9999999999549165
  outer loop
    vertex -3.717319562791637 -6.88705727979118 3.3968049999821104
    vertex 2.9261250247428308 -8.56144094124036 3.396495151326949
    vertex 1.6195438829063677 -6.887057279791183 3.3968049999821104
  endloop
endfacet
facet normal -1.1849038609293392e-06 -9.421421700515755e-06 0.9999999999549165
  outer loop
    vertex 1.6195438829063677 -6.887057279791183 3.3968049999821104
    vertex 2.9261250247428308 -8.56144094124036 3.396495151326949
    vertex 1.6195438829063704 1.2034387202088175 3.3968049999821104
  endloop
endfacet
facet normal -1.1849038609293392e-06 -9.421421700515755e-06 0.9999999999549165
  outer loop
    vertex 1.6195438829063704 1.2034387202088175 3.3968049999821104
    vertex 2.9261250247428308 -8.56144094124036 3.396495151326949
    vertex 2.9440972003548262 -2.829792624024798 3.3968049999821104
  endloop
endfacet
facet normal -1.1849038609293392e-06 -9.421421700515755e-06 0.9999999999549165
  outer loop
    vertex 1.6195438829063704 1.2034387202088175 3.3968049999821104
    vertex 2.9440972003548262 -2.829792624024798 3.3968049999821104
    vertex 5.279632090640113 1.2034387202088175 3.3968049999821104
  endloop
endfacet
facet normal -1.1849038609293392e-06 -9.421421700515755e-06 0.9999999999549165
  outer loop
    vertex 5.279632090640113 1.2034387202088175 3.3968049999821104
    vertex 2.9440972003548262 -2.829792624024798 3.3968049999821104
    vertex 4.020046385688069 -1.7707077666250919 3.3968049999821104
  endloop
endfacet
facet normal -1.1849038609293392e-06 -9.421421700515755e-06 0.9999999999549165
  outer loop
    vertex 5.279632090640113 1.2034387202088175 3.3968049999821104
    vertex 4.020046385688069 -1.7707077666250919 3.3968049999821104
    vertex 6.066386141933098 -3.340919488166193 3.3968049999821104
  endloop
endfacet
facet normal -1.1849038609293392e-06 -9.421421700515755e-06 0.9999999999549165
  outer loop
    vertex 5.279632090640113 1.2034387202088175 3.3968049999821104
    vertex 6.066386141933098 -3.340919488166193 3.3968049999821104
    vertex 6.516530278097138 -0.1416827975496452 3.3968049999821104
  endloop
endfacet
facet normal -1.1849038609293392e-06 -9.421421700515755e-06 0.9999999999549165
  outer loop
    vertex 6.516530278097138 -0.1416827975496452 3.3968049999821104
    vertex 6.066386141933098 -3.340919488166193 3.3968049999821104
    vertex 8.44939926023029 -4.3279958410778985 3.3968049999821104
  endloop
endfacet
facet normal -1.1849038609293392e-06 -9.421421700515755e-06 0.9999999999549165
  outer loop
    vertex 6.516530278097138 -0.1416827975496452 3.3968049999821104
    vertex 8.44939926023029 -4.3279958410778985 3.3968049999821104
    vertex 8.059425248625113 -1.1208376032830314 3.3968049999821104
  endloop
endfacet
facet normal -1.1849038609293392e-06 -9.421421700515755e-06 0.9999999999549165
  outer loop
    vertex 8.059425248625113 -1.1208376032830314 3.3968049999821104
    vertex 8.44939926023029 -4.3279958410778985 3.3968049999821104
    vertex 9.803171259737052 -1.667297915110432 3.3968049999821104
  endloop
endfacet
facet normal -1.1849038609293392e-06 -9.421421700515755e-06 0.9999999999549165
  outer loop
    vertex 9.803171259737052 -1.667297915110432 3.3968049999821104
    vertex 8.44939926023029 -4.3279958410778985 3.3968049999821104
    vertex 11.006687334683102 -4.664669203130071 3.3968049999821104
  endloop
endfacet
facet normal -1.1849038609293392e-06 -9.421421700515755e-06 0.9999999999549165
  outer loop
    vertex 9.803171259737052 -1.667297915110432 3.3968049999821104
    vertex 11.006687334683102 -4.664669203130071 3.3968049999821104
    vertex 11.006687334683102 -1.7177423472109645 3.3968049999821104
  endloop
endfacet
facet normal -1.1849038609293392e-06 -9.421421700515755e-06 0.9999999999549165
  outer loop
    vertex 11.006687334683102 -1.7177423472109645 3.3968049999821104
    vertex 11.006687334683102 -4.664669203130071 3.3968049999821104
    vertex 13.563975409135892 -4.327995841077901 3.3968049999821104
  endloop
endfacet
facet normal -1.1849038609293392e-06 -9.421421700515755e-06 0.9999999999549165
  outer loop
    vertex 11.006687334683102 -1.7177423472109645 3.3968049999821104
    vertex 13.563975409135892 -4.327995841077901 3.3968049999821104
    vertex 11.628934902452214 -1.7438233658491724 3.3968049999821104
  endloop
endfacet
facet normal -1.1849038609293392e-06 -9.421421700515755e-06 0.9999999999549165
  outer loop
    vertex 11.628934902452214 -1.7438233658491724 3.3968049999821104
    vertex 13.563975409135892 -4.327995841077901 3.3968049999821104
    vertex 13.412293401736635 -1.345198872495697 3.3968049999821104
  endloop
endfacet
facet normal -1.1849038609293392e-06 -9.421421700515755e-06 0.9999999999549165
  outer loop
    vertex 13.412293401736635 -1.345198872495697 3.3968049999821104
    vertex 13.563975409135892 -4.327995841077901 3.3968049999821104
    vertex 15.03171382300336 -0.49859003551392034 3.3968049999821104
  endloop
endfacet
facet normal -1.1849038609293392e-06 -9.421421700515755e-06 0.9999999999549165
  outer loop
    vertex 15.03171382300336 -0.49859003551392034 3.3968049999821104
    vertex 13.563975409135892 -4.327995841077901 3.3968049999821104
    vertex 15.9469885274331 -3.3409194881661946 3.3968049999821104
  endloop
endfacet
facet normal -1.1849038609293392e-06 -9.421421700515755e-06 0.9999999999549165
  outer loop
    vertex 15.03171382300336 -0.49859003551392034 3.3968049999821104
    vertex 15.9469885274331 -3.3409194881661946 3.3968049999821104
    vertex 16.376835340761822 0.7383081519431032 3.3968049999821104
  endloop
endfacet
facet normal -1.1849038609293392e-06 -9.421421700515755e-06 0.9999999999549165
  outer loop
    vertex 16.376835340761822 0.7383081519431032 3.3968049999821104
    vertex 15.9469885274331 -3.3409194881661946 3.3968049999821104
    vertex 17.993328283678125 -1.7707077666251003 3.3968049999821104
  endloop
endfacet
facet normal -1.1849038609293392e-06 -9.421421700515755e-06 0.9999999999549165
  outer loop
    vertex 16.376835340761822 0.7383081519431032 3.3968049999821104
    vertex 17.993328283678125 -1.7707077666251003 3.3968049999821104
    vertex 17.35599014649521 2.2812031224710787 3.3968049999821104
  endloop
endfacet
facet normal -1.1849038609293392e-06 -9.421421700515755e-06 0.9999999999549165
  outer loop
    vertex 17.35599014649521 2.2812031224710787 3.3968049999821104
    vertex 17.993328283678125 -1.7707077666251003 3.3968049999821104
    vertex 17.902450458322612 4.024949133583018 3.3968049999821104
  endloop
endfacet
facet normal -1.1849038609293392e-06 -9.421421700515755e-06 0.9999999999549165
  outer loop
    vertex 17.902450458322612 4.024949133583018 3.3968049999821104
    vertex 17.993328283678125 -1.7707077666251003 3.3968049999821104
    vertex 17.952525637552263 5.219655479737991 3.3968049999821104
  endloop
endfacet
facet normal -1.1849038609293392e-06 -9.421421700515755e-06 0.9999999999549165
  outer loop
    vertex 17.952525637552263 5.219655479737991 3.3968049999821104
    vertex 17.993328283678125 -1.7707077666251003 3.3968049999821104
    vertex 17.97897590906135 5.850712776298179 3.3968049999821104
  endloop
endfacet
facet normal -1.1849038609293392e-06 -9.421421700515755e-06 0.9999999999549165
  outer loop
    vertex 1.6195438829063746 9.718622265115043 3.3968049999821104
    vertex 2.9440972003548262 13.263252535789738 3.3968049999821104
    vertex 1.6195438829063746 18.095428265115046 3.3968049999821104
  endloop
endfacet
facet normal -1.1849038609293392e-06 -9.421421700515755e-06 0.9999999999549165
  outer loop
    vertex 2.9440972003548262 13.263252535789738 3.3968049999821104
    vertex 1.6195438829063746 9.718622265115043 3.3968049999821104
    vertex 5.636539328604386 9.718622265115043 3.3968049999821104
  endloop
endfacet
facet normal -1.1849038609293392e-06 -9.421421700515755e-06 0.9999999999549165
  outer loop
    vertex 1.6195438829063746 18.095428265115046 3.3968049999821104
    vertex 2.9440972003548262 13.263252535789738 3.3968049999821104
    vertex 2.944074814102978 19.15432623198519 3.3968049999821104
  endloop
endfacet
facet normal -1.1849038609293392e-06 -9.421421700515755e-06 0.9999999999549165
  outer loop
    vertex 2.9440972003548262 13.263252535789738 3.3968049999821104
    vertex 5.636539328604386 9.718622265115043 3.3968049999821104
    vertex 4.020046385688069 12.202574131364957 3.3968049999821104
  endloop
endfacet
facet normal -1.1849038609293392e-06 -9.421421700515755e-06 0.9999999999549165
  outer loop
    vertex 4.020046385688069 12.202574131364957 3.3968049999821104
    vertex 5.636539328604386 9.718622265115043 3.3968049999821104
    vertex 6.066386141933098 13.772785852906047 3.3968049999821104
  endloop
endfacet
facet normal -1.1849038609293392e-06 -9.421421700515755e-06 0.9999999999549165
  outer loop
    vertex 6.066386141933098 13.772785852906047 3.3968049999821104
    vertex 5.636539328604386 9.718622265115043 3.3968049999821104
    vertex 6.981660846362849 10.955520452572062 3.3968049999821104
  endloop
endfacet
facet normal -1.1849038609293392e-06 -9.421421700515755e-06 0.9999999999549165
  outer loop
    vertex 6.066386141933098 13.772785852906047 3.3968049999821104
    vertex 6.981660846362849 10.955520452572062 3.3968049999821104
    vertex 8.449399260230303 14.759862205817754 3.3968049999821104
  endloop
endfacet
facet normal -1.1849038609293392e-06 -9.421421700515755e-06 0.9999999999549165
  outer loop
    vertex 8.449399260230303 14.759862205817754 3.3968049999821104
    vertex 6.981660846362849 10.955520452572062 3.3968049999821104
    vertex 8.601081267629567 11.802129289553843 3.3968049999821104
  endloop
endfacet
facet normal -1.1849038609293392e-06 -9.421421700515755e-06 0.9999999999549165
  outer loop
    vertex 8.449399260230303 14.759862205817754 3.3968049999821104
    vertex 8.601081267629567 11.802129289553843 3.3968049999821104
    vertex 11.006687334683102 15.096535567869928 3.3968049999821104
  endloop
endfacet
facet normal -1.1849038609293392e-06 -9.421421700515755e-06 0.9999999999549165
  outer loop
    vertex 11.006687334683102 15.096535567869928 3.3968049999821104
    vertex 8.601081267629567 11.802129289553843 3.3968049999821104
    vertex 10.384439766913994 12.20075378290732 3.3968049999821104
  endloop
endfacet
facet normal -1.1849038609293392e-06 -9.421421700515755e-06 0.9999999999549165
  outer loop
    vertex 11.006687334683102 15.096535567869928 3.3968049999821104
    vertex 10.384439766913994 12.20075378290732 3.3968049999821104
    vertex 11.006687334683102 12.17467276426911 3.3968049999821104
  endloop
endfacet
facet normal -1.1849038609293392e-06 -9.421421700515755e-06 0.9999999999549165
  outer loop
    vertex 11.006687334683102 15.096535567869928 3.3968049999821104
    vertex 11.006687334683102 12.17467276426911 3.3968049999821104
    vertex 12.210203409629155 12.124228332168576 3.3968049999821104
  endloop
endfacet
facet normal -1.1849038609293392e-06 -9.421421700515755e-06 0.9999999999549165
  outer loop
    vertex 11.006687334683102 15.096535567869928 3.3968049999821104
    vertex 12.210203409629155 12.124228332168576 3.3968049999821104
    vertex 13.563975409135898 14.759862205817754 3.3968049999821104
  endloop
endfacet
facet normal -1.1849038609293392e-06 -9.421421700515755e-06 0.9999999999549165
  outer loop
    vertex 13.563975409135898 14.759862205817754 3.3968049999821104
    vertex 12.210203409629155 12.124228332168576 3.3968049999821104
    vertex 13.953949420741102 11.577768020341177 3.3968049999821104
  endloop
endfacet
facet normal -1.1849038609293392e-06 -9.421421700515755e-06 0.9999999999549165
  outer loop
    vertex 13.563975409135898 14.759862205817754 3.3968049999821104
    vertex 13.953949420741102 11.577768020341177 3.3968049999821104
    vertex 15.9469885274331 13.772785852906047 3.3968049999821104
  endloop
endfacet
facet normal -1.1849038609293392e-06 -9.421421700515755e-06 0.9999999999549165
  outer loop
    vertex 15.9469885274331 13.772785852906047 3.3968049999821104
    vertex 13.953949420741102 11.577768020341177 3.3968049999821104
    vertex 15.496844391269077 10.598613214607791 3.3968049999821104
  endloop
endfacet
facet normal -1.1849038609293392e-06 -9.421421700515755e-06 0.9999999999549165
  outer loop
    vertex 15.9469885274331 13.772785852906047 3.3968049999821104
    vertex 15.496844391269077 10.598613214607791 3.3968049999821104
    vertex 16.733742578726098 9.253491696849325 3.3968049999821104
  endloop
endfacet
facet normal -1.1849038609293392e-06 -9.421421700515755e-06 0.9999999999549165
  outer loop
    vertex 15.9469885274331 13.772785852906047 3.3968049999821104
    vertex 16.733742578726098 9.253491696849325 3.3968049999821104
    vertex 17.993328283678125 12.202574131364957 3.3968049999821104
  endloop
endfacet
facet normal -1.1849038609293392e-06 -9.421421700515755e-06 0.9999999999549165
  outer loop
    vertex 17.993328283678125 12.202574131364957 3.3968049999821104
    vertex 16.733742578726098 9.253491696849325 3.3968049999821104
    vertex 17.580351415707877 7.634071275582606 3.3968049999821104
  endloop
endfacet
facet normal -1.1849038609293392e-06 -9.421421700515755e-06 0.9999999999549165
  outer loop
    vertex 17.993328283678125 12.202574131364957 3.3968049999821104
    vertex 17.580351415707877 7.634071275582606 3.3968049999821104
    vertex 17.97897590906135 5.850712776298179 3.3968049999821104
  endloop
endfacet
facet normal -1.1849038609293392e-06 -9.421421700515755e-06 0.9999999999549165
  outer loop
    vertex 17.993328283678125 12.202574131364957 3.3968049999821104
    vertex 17.97897590906135 5.850712776298179 3.3968049999821104
    vertex 17.993328283678125 -1.7707077666251003 3.3968049999821104
  endloop
endfacet
facet normal -1.1849038609293392e-06 -9.421421700515755e-06 0.9999999999549165
  outer loop
    vertex 17.993328283678125 12.202574131364957 3.3968049999821104
    vertex 17.993328283678125 -1.7707077666251003 3.3968049999821104
    vertex 19.563540005219213 0.27563198961992746 3.3968049999821104
  endloop
endfacet
facet normal -1.1849038609293392e-06 -9.421421700515755e-06 0.9999999999549165
  outer loop
    vertex 17.993328283678125 12.202574131364957 3.3968049999821104
    vertex 19.563540005219213 0.27563198961992746 3.3968049999821104
    vertex 19.563540005219213 10.156234375119931 3.3968049999821104
  endloop
endfacet
facet normal -1.1849038609293392e-06 -9.421421700515755e-06 0.9999999999549165
  outer loop
    vertex 19.563540005219213 10.156234375119931 3.3968049999821104
    vertex 19.563540005219213 0.27563198961992746 3.3968049999821104
    vertex 20.550616358130927 2.6586451079171263 3.3968049999821104
  endloop
endfacet
facet normal -1.1849038609293392e-06 -9.421421700515755e-06 0.9999999999549165
  outer loop
    vertex 19.563540005219213 10.156234375119931 3.3968049999821104
    vertex 20.550616358130927 2.6586451079171263 3.3968049999821104
    vertex 20.550616358130927 7.773221256822725 3.3968049999821104
  endloop
endfacet
facet normal -1.1849038609293392e-06 -9.421421700515755e-06 0.9999999999549165
  outer loop
    vertex 20.550616358130927 7.773221256822725 3.3968049999821104
    vertex 20.550616358130927 2.6586451079171263 3.3968049999821104
    vertex 20.8872897201831 5.215933182369929 3.3968049999821104
  endloop
endfacet
facet normal -1.1849038609293392e-06 -9.421421700515755e-06 0.9999999999549165
  outer loop
    vertex -4.963912112214933 19.155500361396474 3.3973817441825065
    vertex -3.717319562791637 18.095428265115046 3.3968049999821104
    vertex 2.944074814102978 19.15432623198519 3.3968049999821104
  endloop
endfacet
facet normal -1.1849038609293392e-06 -9.421421700515755e-06 0.9999999999549165
  outer loop
    vertex -3.717319562791637 18.095428265115046 3.3968049999821104
    vertex -4.963912112214933 19.155500361396474 3.3973817441825065
    vertex -3.717319562791637 -6.88705727979118 3.3968049999821104
  endloop
endfacet
facet normal -1.1849038609293392e-06 -9.421421700515755e-06 0.9999999999549165
  outer loop
    vertex 2.944074814102978 19.15432623198519 3.3968049999821104
    vertex -3.717319562791637 18.095428265115046 3.3968049999821104
    vertex 1.6195438829063746 18.095428265115046 3.3968049999821104
  endloop
endfacet
facet normal 0.7014995624400001 -0.7126698842356659 -1.0610280209840551e-07
  outer loop
    vertex 4.020046385688069 -1.7707077666250919 3.3968049999821104
    vertex 2.9440993282114527 -2.8297899071865524 0.9628278799954127
    vertex 4.020048513544696 -1.7707050497868464 0.9628278799954127
  endloop
endfacet
facet normal 0.7014995624400001 -0.7126698842356659 -1.0610280209840551e-07
  outer loop
    vertex 2.9440993282114527 -2.8297899071865524 0.9628278799954127
    vertex 4.020046385688069 -1.7707077666250919 3.3968049999821104
    vertex 2.9440972003548262 -2.829792624024798 3.3968049999821104
  endloop
endfacet
facet normal -0.0 -0.0 -1.0
  outer loop
    vertex 4.480569123719016 14.654540675451557 -0.9339111200045871
    vertex 4.020048513544696 -3.8155044391421264 -0.9339111200045871
    vertex 4.020048513544696 14.237535659330367 -0.9339111200045871
  endloop
endfacet
facet normal -0.0 -0.0 -1.0
  outer loop
    vertex 4.020048513544696 -3.8155044391421264 -0.9339111200045871
    vertex 4.480569123719016 14.654540675451557 -0.9339111200045871
    vertex 6.095678119442179 -5.155152490486551 -0.9339111200045871
  endloop
endfacet
facet normal -0.0 -0.0 -1.0
  outer loop
    vertex 6.095678119442179 -5.155152490486551 -0.9339111200045871
    vertex 4.480569123719016 14.654540675451557 -0.9339111200045871
    vertex 7.14583195708984 16.022012251034724 -0.9339111200045871
  endloop
endfacet
facet normal -0.0 -0.0 -1.0
  outer loop
    vertex 6.095678119442179 -5.155152490486551 -0.9339111200045871
    vertex 7.14583195708984 16.022012251034724 -0.9339111200045871
    vertex 8.94725196673787 -6.072829489432827 -0.9339111200045871
  endloop
endfacet
facet normal -0.0 -0.0 -1.0
  outer loop
    vertex 8.94725196673787 -6.072829489432827 -0.9339111200045871
    vertex 7.14583195708984 16.022012251034724 -0.9339111200045871
    vertex 10.074205849088383 16.653067581126425 -0.9339111200045871
  endloop
endfacet
facet normal -0.0 -0.0 -1.0
  outer loop
    vertex 8.94725196673787 -6.072829489432827 -0.9339111200045871
    vertex 10.074205849088383 16.653067581126425 -0.9339111200045871
    vertex 11.939173075991079 -6.2211957827100735 -0.9339111200045871
  endloop
endfacet
facet normal -0.0 -0.0 -1.0
  outer loop
    vertex 11.939173075991079 -6.2211957827100735 -0.9339111200045871
    vertex 10.074205849088383 16.653067581126425 -0.9339111200045871
    vertex 13.066126958341584 16.504701287849173 -0.9339111200045871
  endloop
endfacet
facet normal -0.0 -0.0 -1.0
  outer loop
    vertex 11.939173075991079 -6.2211957827100735 -0.9339111200045871
    vertex 13.066126958341584 16.504701287849173 -0.9339111200045871
    vertex 14.86754696798961 -5.59014045261837 -0.9339111200045871
  endloop
endfacet
facet normal -0.0 -0.0 -1.0
  outer loop
    vertex 14.86754696798961 -5.59014045261837 -0.9339111200045871
    vertex 13.066126958341584 16.504701287849173 -0.9339111200045871
    vertex 15.917700805637274 15.58702428890289 -0.9339111200045871
  endloop
endfacet
facet normal -0.0 -0.0 -1.0
  outer loop
    vertex 14.86754696798961 -5.59014045261837 -0.9339111200045871
    vertex 15.917700805637274 15.58702428890289 -0.9339111200045871
    vertex 17.532809801360436 -4.222668877035208 -0.9339111200045871
  endloop
endfacet
facet normal -0.0 -0.0 -1.0
  outer loop
    vertex 17.532809801360436 -4.222668877035208 -0.9339111200045871
    vertex 15.917700805637274 15.58702428890289 -0.9339111200045871
    vertex 18.434597345730847 13.962574755232861 -0.9339111200045871
  endloop
endfacet
facet normal -0.0 -0.0 -1.0
  outer loop
    vertex 17.532809801360436 -4.222668877035208 -0.9339111200045871
    vertex 18.434597345730847 13.962574755232861 -0.9339111200045871
    vertex 19.75332831856442 -2.2119719839829433 -0.9339111200045871
  endloop
endfacet
facet normal -0.0 -0.0 -1.0
  outer loop
    vertex 19.75332831856442 -2.2119719839829433 -0.9339111200045871
    vertex 18.434597345730847 13.962574755232861 -0.9339111200045871
    vertex 20.445294238783113 11.742056238028882 -0.9339111200045871
  endloop
endfacet
facet normal -0.0 -0.0 -1.0
  outer loop
    vertex 19.75332831856442 -2.2119719839829433 -0.9339111200045871
    vertex 20.445294238783113 11.742056238028882 -0.9339111200045871
    vertex 21.377777852234452 0.3049245561106246 -0.9339111200045871
  endloop
endfacet
facet normal -0.0 -0.0 -1.0
  outer loop
    vertex 21.377777852234452 0.3049245561106246 -0.9339111200045871
    vertex 20.445294238783113 11.742056238028882 -0.9339111200045871
    vertex 21.81276581436628 9.076793404658067 -0.9339111200045871
  endloop
endfacet
facet normal -0.0 -0.0 -1.0
  outer loop
    vertex 21.377777852234452 0.3049245561106246 -0.9339111200045871
    vertex 21.81276581436628 9.076793404658067 -0.9339111200045871
    vertex 22.29545485118073 3.1564984034063133 -0.9339111200045871
  endloop
endfacet
facet normal -0.0 -0.0 -1.0
  outer loop
    vertex 22.29545485118073 3.1564984034063133 -0.9339111200045871
    vertex 21.81276581436628 9.076793404658067 -0.9339111200045871
    vertex 22.44382114445798 6.148419512659523 -0.9339111200045871
  endloop
endfacet
facet normal -0.0 -0.0 -1.0
  outer loop
    vertex 4.020048513544696 20.688406695150736 -0.9339111200045871
    vertex -6.287661546455302 -10.045418497373916 -0.9339111200045871
    vertex -6.287661546455302 20.688406695150736 -0.9339111200045871
  endloop
endfacet
facet normal -0.0 -0.0 -1.0
  outer loop
    vertex -6.287661546455302 -10.045418497373916 -0.9339111200045871
    vertex 4.020048513544696 20.688406695150736 -0.9339111200045871
    vertex 4.020048513544696 -10.045418497373916 -0.9339111200045871
  endloop
endfacet
facet normal -0.0 -0.0 -1.0
  outer loop
    vertex 4.020048513544696 -10.045418497373916 -0.9339111200045871
    vertex 4.020048513544696 20.688406695150736 -0.9339111200045871
    vertex 4.020048513544696 14.237535659330367 -0.9339111200045871
  endloop
endfacet
facet normal -0.0 -0.0 -1.0
  outer loop
    vertex 4.020048513544696 -10.045418497373916 -0.9339111200045871
    vertex 4.020048513544696 14.237535659330367 -0.9339111200045871
    vertex 4.020048513544696 -3.8155044391421264 -0.9339111200045871
  endloop
endfacet
facet normal 0.0 1.0 -0.0
  outer loop
    vertex -6.287661546455302 20.688406695150736 0.9628278799954127
    vertex 4.020048513544696 20.688406695150736 -0.9339111200045871
    vertex -6.287661546455302 20.688406695150736 -0.9339111200045871
  endloop
endfacet
facet normal 0.0 1.0 -0.0
  outer loop
    vertex 4.020048513544696 20.688406695150736 -0.9339111200045871
    vertex -6.287661546455302 20.688406695150736 0.9628278799954127
    vertex 4.020048513544696 20.688406695150736 0.9628278799954127
  endloop
endfacet
facet normal -1.0 0.0 0.0
  outer loop
    vertex -6.287661546455302 20.688406695150736 0.9628278799954127
    vertex -6.287661546455302 -10.045418497373916 -0.9339111200045871
    vertex -6.287661546455302 -10.045418497373916 0.9628278799954127
  endloop
endfacet
facet normal -1.0 0.0 0.0
  outer loop
    vertex -6.287661546455302 -10.045418497373916 -0.9339111200045871
    vertex -6.287661546455302 20.688406695150736 0.9628278799954127
    vertex -6.287661546455302 20.688406695150736 -0.9339111200045871
  endloop
endfacet
facet normal 0.0 -1.0 0.0
  outer loop
    vertex 4.020048513544696 -10.045418497373916 0.9628278799954127
    vertex -6.287661546455302 -10.045418497373916 -0.9339111200045871
    vertex 4.020048513544696 -10.045418497373916 -0.9339111200045871
  endloop
endfacet
facet normal 0.0 -1.0 0.0
  outer loop
    vertex -6.287661546455302 -10.045418497373916 -0.9339111200045871
    vertex 4.020048513544696 -10.045418497373916 0.9628278799954127
    vertex -6.287661546455302 -10.045418497373916 0.9628278799954127
  endloop
endfacet
facet normal 1.0 0.0 0.0
  outer loop
    vertex 4.020048513544696 -3.8155044391421264 -0.9339111200045871
    vertex 4.020048513544696 -10.045418497373916 0.9628278799954127
    vertex 4.020048513544696 -10.045418497373916 -0.9339111200045871
  endloop
endfacet
facet normal 1.0 0.0 0.0
  outer loop
    vertex 4.020048513544696 -10.045418497373916 0.9628278799954127
    vertex 4.020048513544696 -3.8155044391421264 -0.9339111200045871
    vertex 4.020048513544696 -3.8155044391421264 0.9628278799954127
  endloop
endfacet
facet normal -0.5422789692914474 -0.8401985000368695 0.0
  outer loop
    vertex 6.095678119442179 -5.155152490486551 0.9628278799954127
    vertex 4.020048513544696 -3.8155044391421264 -0.9339111200045871
    vertex 6.095678119442179 -5.155152490486551 -0.9339111200045871
  endloop
endfacet
facet normal -0.5422789692914474 -0.8401985000368695 0.0
  outer loop
    vertex 4.020048513544696 -3.8155044391421264 -0.9339111200045871
    vertex 6.095678119442179 -5.155152490486551 0.9628278799954127
    vertex 4.020048513544696 -3.8155044391421264 0.9628278799954127
  endloop
endfacet
facet normal -0.3063418880159181 -0.951921555406139 0.0
  outer loop
    vertex 8.94725196673787 -6.072829489432827 0.9628278799954127
    vertex 6.095678119442179 -5.155152490486551 -0.9339111200045871
    vertex 8.94725196673787 -6.072829489432827 -0.9339111200045871
  endloop
endfacet
facet normal -0.3063418880159181 -0.951921555406139 0.0
  outer loop
    vertex 6.095678119442179 -5.155152490486551 -0.9339111200045871
    vertex 8.94725196673787 -6.072829489432827 0.9628278799954127
    vertex 6.095678119442179 -5.155152490486551 0.9628278799954127
  endloop
endfacet
facet normal -0.04952811332600043 -0.9987727298992335 0.0
  outer loop
    vertex 11.939173075991079 -6.2211957827100735 0.9628278799954127
    vertex 8.94725196673787 -6.072829489432827 -0.9339111200045871
    vertex 11.939173075991079 -6.2211957827100735 -0.9339111200045871
  endloop
endfacet
facet normal -0.04952811332600043 -0.9987727298992335 0.0
  outer loop
    vertex 8.94725196673787 -6.072829489432827 -0.9339111200045871
    vertex 11.939173075991079 -6.2211957827100735 0.9628278799954127
    vertex 8.94725196673787 -6.072829489432827 0.9628278799954127
  endloop
endfacet
facet normal 0.2106609204379968 -0.9775591933996713 0.0
  outer loop
    vertex 14.86754696798961 -5.59014045261837 0.9628278799954127
    vertex 11.939173075991079 -6.2211957827100735 -0.9339111200045871
    vertex 14.86754696798961 -5.59014045261837 -0.9339111200045871
  endloop
endfacet
facet normal 0.2106609204379968 -0.9775591933996713 0.0
  outer loop
    vertex 11.939173075991079 -6.2211957827100735 -0.9339111200045871
    vertex 14.86754696798961 -5.59014045261837 0.9628278799954127
    vertex 11.939173075991079 -6.2211957827100735 0.9628278799954127
  endloop
endfacet
facet normal 0.4564937606077806 -0.8897266133628724 0.0
  outer loop
    vertex 17.532809801360436 -4.222668877035208 0.9628278799954127
    vertex 14.86754696798961 -5.59014045261837 -0.9339111200045871
    vertex 17.532809801360436 -4.222668877035208 -0.9339111200045871
  endloop
endfacet
facet normal 0.4564937606077806 -0.8897266133628724 0.0
  outer loop
    vertex 14.86754696798961 -5.59014045261837 -0.9339111200045871
    vertex 17.532809801360436 -4.222668877035208 0.9628278799954127
    vertex 14.86754696798961 -5.59014045261837 0.9628278799954127
  endloop
endfacet
facet normal 0.6712173053837549 -0.7412606349681408 0.0
  outer loop
    vertex 19.75332831856442 -2.2119719839829433 0.9628278799954127
    vertex 17.532809801360436 -4.222668877035208 -0.9339111200045871
    vertex 19.75332831856442 -2.2119719839829433 -0.9339111200045871
  endloop
endfacet
facet normal 0.6712173053837549 -0.7412606349681408 0.0
  outer loop
    vertex 17.532809801360436 -4.222668877035208 -0.9339111200045871
    vertex 19.75332831856442 -2.2119719839829433 0.9628278799954127
    vertex 17.532809801360436 -4.222668877035208 0.9628278799954127
  endloop
endfacet
facet normal 0.8401985000368694 -0.5422789692914479 0.0
  outer loop
    vertex 21.377777852234452 0.3049245561106246 -0.9339111200045871
    vertex 19.75332831856442 -2.2119719839829433 0.9628278799954127
    vertex 19.75332831856442 -2.2119719839829433 -0.9339111200045871
  endloop
endfacet
facet normal 0.8401985000368694 -0.5422789692914479 0.0
  outer loop
    vertex 19.75332831856442 -2.2119719839829433 0.9628278799954127
    vertex 21.377777852234452 0.3049245561106246 -0.9339111200045871
    vertex 21.377777852234452 0.3049245561106246 0.9628278799954127
  endloop
endfacet
facet normal 0.9519215554061388 -0.30634188801591866 0.0
  outer loop
    vertex 22.29545485118073 3.1564984034063133 -0.9339111200045871
    vertex 21.377777852234452 0.3049245561106246 0.9628278799954127
    vertex 21.377777852234452 0.3049245561106246 -0.9339111200045871
  endloop
endfacet
facet normal 0.9519215554061388 -0.30634188801591866 0.0
  outer loop
    vertex 21.377777852234452 0.3049245561106246 0.9628278799954127
    vertex 22.29545485118073 3.1564984034063133 -0.9339111200045871
    vertex 22.29545485118073 3.1564984034063133 0.9628278799954127
  endloop
endfacet
facet normal 0.9987727298992333 -0.049528113326002536 0.0
  outer loop
    vertex 22.44382114445798 6.148419512659523 -0.9339111200045871
    vertex 22.29545485118073 3.1564984034063133 0.9628278799954127
    vertex 22.29545485118073 3.1564984034063133 -0.9339111200045871
  endloop
endfacet
facet normal 0.9987727298992333 -0.049528113326002536 0.0
  outer loop
    vertex 22.29545485118073 3.1564984034063133 0.9628278799954127
    vertex 22.44382114445798 6.148419512659523 -0.9339111200045871
    vertex 22.44382114445798 6.148419512659523 0.9628278799954127
  endloop
endfacet
facet normal 0.9775591933996716 0.21066092043799606 -0.0
  outer loop
    vertex 21.81276581436628 9.076793404658067 -0.9339111200045871
    vertex 22.44382114445798 6.148419512659523 0.9628278799954127
    vertex 22.44382114445798 6.148419512659523 -0.9339111200045871
  endloop
endfacet
facet normal 0.9775591933996716 0.21066092043799606 -0.0
  outer loop
    vertex 22.44382114445798 6.148419512659523 0.9628278799954127
    vertex 21.81276581436628 9.076793404658067 -0.9339111200045871
    vertex 21.81276581436628 9.076793404658067 0.9628278799954127
  endloop
endfacet
facet normal 0.8897266133628712 0.45649376060778357 -0.0
  outer loop
    vertex 20.445294238783113 11.742056238028882 -0.9339111200045871
    vertex 21.81276581436628 9.076793404658067 0.9628278799954127
    vertex 21.81276581436628 9.076793404658067 -0.9339111200045871
  endloop
endfacet
facet normal 0.8897266133628712 0.45649376060778357 -0.0
  outer loop
    vertex 21.81276581436628 9.076793404658067 0.9628278799954127
    vertex 20.445294238783113 11.742056238028882 -0.9339111200045871
    vertex 20.445294238783113 11.742056238028882 0.9628278799954127
  endloop
endfacet
facet normal 0.7412606349681397 0.6712173053837561 -0.0
  outer loop
    vertex 18.434597345730847 13.962574755232861 -0.9339111200045871
    vertex 20.445294238783113 11.742056238028882 0.9628278799954127
    vertex 20.445294238783113 11.742056238028882 -0.9339111200045871
  endloop
endfacet
facet normal 0.7412606349681397 0.6712173053837561 -0.0
  outer loop
    vertex 20.445294238783113 11.742056238028882 0.9628278799954127
    vertex 18.434597345730847 13.962574755232861 -0.9339111200045871
    vertex 18.434597345730847 13.962574755232861 0.9628278799954127
  endloop
endfacet
facet normal 0.542278969291447 0.8401985000368698 -0.0
  outer loop
    vertex 15.917700805637274 15.58702428890289 0.9628278799954127
    vertex 18.434597345730847 13.962574755232861 -0.9339111200045871
    vertex 15.917700805637274 15.58702428890289 -0.9339111200045871
  endloop
endfacet
facet normal 0.542278969291447 0.8401985000368698 -0.0
  outer loop
    vertex 18.434597345730847 13.962574755232861 -0.9339111200045871
    vertex 15.917700805637274 15.58702428890289 0.9628278799954127
    vertex 18.434597345730847 13.962574755232861 0.9628278799954127
  endloop
endfacet
facet normal 0.3063418880159203 0.9519215554061381 -0.0
  outer loop
    vertex 13.066126958341584 16.504701287849173 0.9628278799954127
    vertex 15.917700805637274 15.58702428890289 -0.9339111200045871
    vertex 13.066126958341584 16.504701287849173 -0.9339111200045871
  endloop
endfacet
facet normal 0.3063418880159203 0.9519215554061381 -0.0
  outer loop
    vertex 15.917700805637274 15.58702428890289 -0.9339111200045871
    vertex 13.066126958341584 16.504701287849173 0.9628278799954127
    vertex 15.917700805637274 15.58702428890289 0.9628278799954127
  endloop
endfacet
facet normal 0.04952811332600268 0.9987727298992334 -0.0
  outer loop
    vertex 10.074205849088383 16.653067581126425 0.9628278799954127
    vertex 13.066126958341584 16.504701287849173 -0.9339111200045871
    vertex 10.074205849088383 16.653067581126425 -0.9339111200045871
  endloop
endfacet
facet normal 0.04952811332600268 0.9987727298992334 -0.0
  outer loop
    vertex 13.066126958341584 16.504701287849173 -0.9339111200045871
    vertex 10.074205849088383 16.653067581126425 0.9628278799954127
    vertex 13.066126958341584 16.504701287849173 0.9628278799954127
  endloop
endfacet
facet normal -0.21066092043799606 0.9775591933996716 0.0
  outer loop
    vertex 7.14583195708984 16.022012251034724 0.9628278799954127
    vertex 10.074205849088383 16.653067581126425 -0.9339111200045871
    vertex 7.14583195708984 16.022012251034724 -0.9339111200045871
  endloop
endfacet
facet normal -0.21066092043799606 0.9775591933996716 0.0
  outer loop
    vertex 10.074205849088383 16.653067581126425 -0.9339111200045871
    vertex 7.14583195708984 16.022012251034724 0.9628278799954127
    vertex 10.074205849088383 16.653067581126425 0.9628278799954127
  endloop
endfacet
facet normal -0.4564937606077823 0.8897266133628716 0.0
  outer loop
    vertex 4.480569123719016 14.654540675451557 0.9628278799954127
    vertex 7.14583195708984 16.022012251034724 -0.9339111200045871
    vertex 4.480569123719016 14.654540675451557 -0.9339111200045871
  endloop
endfacet
facet normal -0.4564937606077823 0.8897266133628716 0.0
  outer loop
    vertex 7.14583195708984 16.022012251034724 -0.9339111200045871
    vertex 4.480569123719016 14.654540675451557 0.9628278799954127
    vertex 7.14583195708984 16.022012251034724 0.9628278799954127
  endloop
endfacet
facet normal -0.671217305383758 0.741260634968138 0.0
  outer loop
    vertex 4.020048513544696 14.237535659330367 0.9628278799954127
    vertex 4.480569123719016 14.654540675451557 -0.9339111200045871
    vertex 4.020048513544696 14.237535659330367 -0.9339111200045871
  endloop
endfacet
facet normal -0.671217305383758 0.741260634968138 0.0
  outer loop
    vertex 4.480569123719016 14.654540675451557 -0.9339111200045871
    vertex 4.020048513544696 14.237535659330367 0.9628278799954127
    vertex 4.480569123719016 14.654540675451557 0.9628278799954127
  endloop
endfacet
facet normal 1.0 0.0 0.0
  outer loop
    vertex 4.020048513544696 20.688406695150736 -0.9339111200045871
    vertex 4.020048513544696 14.237535659330367 0.9628278799954127
    vertex 4.020048513544696 14.237535659330367 -0.9339111200045871
  endloop
endfacet
facet normal 1.0 0.0 0.0
  outer loop
    vertex 4.020048513544696 14.237535659330367 0.9628278799954127
    vertex 4.020048513544696 20.688406695150736 -0.9339111200045871
    vertex 4.020048513544696 20.688406695150736 0.9628278799954127
  endloop
endfacet
facet normal 0.0 0.0 1.0
  outer loop
    vertex 5.279632090640113 1.2034387202088175 0.9628278799954127
    vertex 1.6195438829063746 9.718622265115043 0.9628278799954127
    vertex 1.6195438829063704 1.2034387202088175 0.9628278799954127
  endloop
endfacet
facet normal 0.0 0.0 1.0
  outer loop
    vertex 1.6195438829063746 9.718622265115043 0.9628278799954127
    vertex 5.279632090640113 1.2034387202088175 0.9628278799954127
    vertex 5.636539328604386 9.718622265115043 0.9628278799954127
  endloop
endfacet
facet normal 0.0 0.0 1.0
  outer loop
    vertex 5.636539328604386 9.718622265115043 0.9628278799954127
    vertex 5.279632090640113 1.2034387202088175 0.9628278799954127
    vertex 6.516530278097138 -0.1416827975496452 0.9628278799954127
  endloop
endfacet
facet normal 0.0 0.0 1.0
  outer loop
    vertex 5.636539328604386 9.718622265115043 0.9628278799954127
    vertex 6.516530278097138 -0.1416827975496452 0.9628278799954127
    vertex 6.981660846362849 10.955520452572062 0.9628278799954127
  endloop
endfacet
facet normal 0.0 0.0 1.0
  outer loop
    vertex 6.981660846362849 10.955520452572062 0.9628278799954127
    vertex 6.516530278097138 -0.1416827975496452 0.9628278799954127
    vertex 8.059425248625113 -1.1208376032830314 0.9628278799954127
  endloop
endfacet
facet normal 0.0 0.0 1.0
  outer loop
    vertex 6.981660846362849 10.955520452572062 0.9628278799954127
    vertex 8.059425248625113 -1.1208376032830314 0.9628278799954127
    vertex 8.601081267629567 11.802129289553843 0.9628278799954127
  endloop
endfacet
facet normal 0.0 0.0 1.0
  outer loop
    vertex 8.601081267629567 11.802129289553843 0.9628278799954127
    vertex 8.059425248625113 -1.1208376032830314 0.9628278799954127
    vertex 9.803171259737052 -1.667297915110432 0.9628278799954127
  endloop
endfacet
facet normal 0.0 0.0 1.0
  outer loop
    vertex 8.601081267629567 11.802129289553843 0.9628278799954127
    vertex 9.803171259737052 -1.667297915110432 0.9628278799954127
    vertex 10.384439766913994 12.20075378290732 0.9628278799954127
  endloop
endfacet
facet normal 0.0 0.0 1.0
  outer loop
    vertex 10.384439766913994 12.20075378290732 0.9628278799954127
    vertex 9.803171259737052 -1.667297915110432 0.9628278799954127
    vertex 11.006687334683102 -1.7177423472109645 0.9628278799954127
  endloop
endfacet
facet normal 0.0 0.0 1.0
  outer loop
    vertex 10.384439766913994 12.20075378290732 0.9628278799954127
    vertex 11.006687334683102 -1.7177423472109645 0.9628278799954127
    vertex 11.006687334683102 12.17467276426911 0.9628278799954127
  endloop
endfacet
facet normal 0.0 0.0 1.0
  outer loop
    vertex 11.006687334683102 12.17467276426911 0.9628278799954127
    vertex 11.006687334683102 -1.7177423472109645 0.9628278799954127
    vertex 11.628934902452214 -1.7438233658491724 0.9628278799954127
  endloop
endfacet
facet normal 0.0 0.0 1.0
  outer loop
    vertex 11.006687334683102 12.17467276426911 0.9628278799954127
    vertex 11.628934902452214 -1.7438233658491724 0.9628278799954127
    vertex 12.210203409629155 12.124228332168576 0.9628278799954127
  endloop
endfacet
facet normal 0.0 0.0 1.0
  outer loop
    vertex 12.210203409629155 12.124228332168576 0.9628278799954127
    vertex 11.628934902452214 -1.7438233658491724 0.9628278799954127
    vertex 13.412293401736635 -1.345198872495697 0.9628278799954127
  endloop
endfacet
facet normal 0.0 0.0 1.0
  outer loop
    vertex 12.210203409629155 12.124228332168576 0.9628278799954127
    vertex 13.412293401736635 -1.345198872495697 0.9628278799954127
    vertex 13.953949420741102 11.577768020341177 0.9628278799954127
  endloop
endfacet
facet normal 0.0 0.0 1.0
  outer loop
    vertex 13.953949420741102 11.577768020341177 0.9628278799954127
    vertex 13.412293401736635 -1.345198872495697 0.9628278799954127
    vertex 15.03171382300336 -0.49859003551392034 0.9628278799954127
  endloop
endfacet
facet normal 0.0 0.0 1.0
  outer loop
    vertex 13.953949420741102 11.577768020341177 0.9628278799954127
    vertex 15.03171382300336 -0.49859003551392034 0.9628278799954127
    vertex 15.496844391269077 10.598613214607791 0.9628278799954127
  endloop
endfacet
facet normal 0.0 0.0 1.0
  outer loop
    vertex 15.496844391269077 10.598613214607791 0.9628278799954127
    vertex 15.03171382300336 -0.49859003551392034 0.9628278799954127
    vertex 16.376835340761822 0.7383081519431032 0.9628278799954127
  endloop
endfacet
facet normal 0.0 0.0 1.0
  outer loop
    vertex 15.496844391269077 10.598613214607791 0.9628278799954127
    vertex 16.376835340761822 0.7383081519431032 0.9628278799954127
    vertex 16.733742578726098 9.253491696849325 0.9628278799954127
  endloop
endfacet
facet normal 0.0 0.0 1.0
  outer loop
    vertex 16.733742578726098 9.253491696849325 0.9628278799954127
    vertex 16.376835340761822 0.7383081519431032 0.9628278799954127
    vertex 17.35599014649521 2.2812031224710787 0.9628278799954127
  endloop
endfacet
facet normal 0.0 0.0 1.0
  outer loop
    vertex 16.733742578726098 9.253491696849325 0.9628278799954127
    vertex 17.35599014649521 2.2812031224710787 0.9628278799954127
    vertex 17.580351415707877 7.634071275582606 0.9628278799954127
  endloop
endfacet
facet normal 0.0 0.0 1.0
  outer loop
    vertex 17.580351415707877 7.634071275582606 0.9628278799954127
    vertex 17.35599014649521 2.2812031224710787 0.9628278799954127
    vertex 17.902450458322612 4.024949133583018 0.9628278799954127
  endloop
endfacet
facet normal 0.0 0.0 1.0
  outer loop
    vertex 17.580351415707877 7.634071275582606 0.9628278799954127
    vertex 17.902450458322612 4.024949133583018 0.9628278799954127
    vertex 17.97897590906135 5.850712776298179 0.9628278799954127
  endloop
endfacet
facet normal 0.0 0.0 1.0
  outer loop
    vertex 17.97897590906135 5.850712776298179 0.9628278799954127
    vertex 17.902450458322612 4.024949133583018 0.9628278799954127
    vertex 17.952525637552263 5.219655479737991 0.9628278799954127
  endloop
endfacet
facet normal 0.0 0.0 1.0
  outer loop
    vertex 1.6195438829063677 -6.887057279791183 0.9628278799954127
    vertex -3.717319562791637 18.095428265115046 0.9628278799954127
    vertex -3.717319562791637 -6.88705727979118 0.9628278799954127
  endloop
endfacet
facet normal 0.0 0.0 1.0
  outer loop
    vertex -3.717319562791637 18.095428265115046 0.9628278799954127
    vertex 1.6195438829063677 -6.887057279791183 0.9628278799954127
    vertex 1.6195438829063746 18.095428265115046 0.9628278799954127
  endloop
endfacet
facet normal 0.0 0.0 1.0
  outer loop
    vertex 1.6195438829063746 18.095428265115046 0.9628278799954127
    vertex 1.6195438829063677 -6.887057279791183 0.9628278799954127
    vertex 1.6195438829063704 1.2034387202088175 0.9628278799954127
  endloop
endfacet
facet normal 0.0 0.0 1.0
  outer loop
    vertex 1.6195438829063746 18.095428265115046 0.9628278799954127
    vertex 1.6195438829063704 1.2034387202088175 0.9628278799954127
    vertex 1.6195438829063746 9.718622265115043 0.9628278799954127
  endloop
endfacet
facet normal -0.0 1.0 -0.0
  outer loop
    vertex 1.6195438829063704 1.2034387202088175 3.3968049999821104
    vertex 5.279632090640113 1.2034387202088175 0.9628278799954127
    vertex 1.6195438829063704 1.2034387202088175 0.9628278799954127
  endloop
endfacet
facet normal -0.0 1.0 -0.0
  outer loop
    vertex 5.279632090640113 1.2034387202088175 0.9628278799954127
    vertex 1.6195438829063704 1.2034387202088175 3.3968049999821104
    vertex 5.279632090640113 1.2034387202088175 3.3968049999821104
  endloop
endfacet
facet normal 0.7360983016292946 0.6768746489110581 0.0
  outer loop
    vertex 5.279632090640113 1.2034387202088175 0.9628278799954127
    vertex 6.516530278097138 -0.1416827975496452 3.3968049999821104
    vertex 6.516530278097138 -0.1416827975496452 0.9628278799954127
  endloop
endfacet
facet normal 0.7360983016292946 0.6768746489110581 0.0
  outer loop
    vertex 6.516530278097138 -0.1416827975496452 3.3968049999821104
    vertex 5.279632090640113 1.2034387202088175 0.9628278799954127
    vertex 5.279632090640113 1.2034387202088175 3.3968049999821104
  endloop
endfacet
facet normal 0.5358283099459937 0.844326964072817 0.0
  outer loop
    vertex 6.516530278097138 -0.1416827975496452 3.3968049999821104
    vertex 8.059425248625113 -1.1208376032830314 0.9628278799954127
    vertex 6.516530278097138 -0.1416827975496452 0.9628278799954127
  endloop
endfacet
facet normal 0.5358283099459937 0.844326964072817 0.0
  outer loop
    vertex 8.059425248625113 -1.1208376032830314 0.9628278799954127
    vertex 6.516530278097138 -0.1416827975496452 3.3968049999821104
    vertex 8.059425248625113 -1.1208376032830314 3.3968049999821104
  endloop
endfacet
facet normal 0.29904250443802244 0.9542397919492959 0.0
  outer loop
    vertex 8.059425248625113 -1.1208376032830314 3.3968049999821104
    vertex 9.803171259737052 -1.667297915110432 0.9628278799954127
    vertex 8.059425248625113 -1.1208376032830314 0.9628278799954127
  endloop
endfacet
facet normal 0.29904250443802244 0.9542397919492959 0.0
  outer loop
    vertex 9.803171259737052 -1.667297915110432 0.9628278799954127
    vertex 8.059425248625113 -1.1208376032830314 3.3968049999821104
    vertex 9.803171259737052 -1.667297915110432 3.3968049999821104
  endloop
endfacet
facet normal 0.04187744644370339 0.9991227549602475 0.0
  outer loop
    vertex 9.803171259737052 -1.667297915110432 3.3968049999821104
    vertex 11.006687334683102 -1.7177423472109645 0.9628278799954127
    vertex 9.803171259737052 -1.667297915110432 0.9628278799954127
  endloop
endfacet
facet normal 0.04187744644370339 0.9991227549602475 0.0
  outer loop
    vertex 11.006687334683102 -1.7177423472109645 0.9628278799954127
    vertex 9.803171259737052 -1.667297915110432 3.3968049999821104
    vertex 11.006687334683102 -1.7177423472109645 3.3968049999821104
  endloop
endfacet
facet normal 0.04187744644370371 0.9991227549602475 0.0
  outer loop
    vertex 11.006687334683102 -1.7177423472109645 3.3968049999821104
    vertex 11.628934902452214 -1.7438233658491724 0.9628278799954127
    vertex 11.006687334683102 -1.7177423472109645 0.9628278799954127
  endloop
endfacet
facet normal 0.04187744644370371 0.9991227549602475 0.0
  outer loop
    vertex 11.628934902452214 -1.7438233658491724 0.9628278799954127
    vertex 11.006687334683102 -1.7177423472109645 3.3968049999821104
    vertex 11.628934902452214 -1.7438233658491724 3.3968049999821104
  endloop
endfacet
facet normal -0.21814149032000021 0.9759171533490789 -0.0
  outer loop
    vertex 11.628934902452214 -1.7438233658491724 3.3968049999821104
    vertex 13.412293401736635 -1.345198872495697 0.9628278799954127
    vertex 11.628934902452214 -1.7438233658491724 0.9628278799954127
  endloop
endfacet
facet normal -0.21814149032000021 0.9759171533490789 -0.0
  outer loop
    vertex 13.412293401736635 -1.345198872495697 0.9628278799954127
    vertex 11.628934902452214 -1.7438233658491724 3.3968049999821104
    vertex 13.412293401736635 -1.345198872495697 3.3968049999821104
  endloop
endfacet
facet normal -0.4632944450142522 0.8862044105165221 -0.0
  outer loop
    vertex 13.412293401736635 -1.345198872495697 3.3968049999821104
    vertex 15.03171382300336 -0.49859003551392034 0.9628278799954127
    vertex 13.412293401736635 -1.345198872495697 0.9628278799954127
  endloop
endfacet
facet normal -0.4632944450142522 0.8862044105165221 -0.0
  outer loop
    vertex 15.03171382300336 -0.49859003551392034 0.9628278799954127
    vertex 13.412293401736635 -1.345198872495697 3.3968049999821104
    vertex 15.03171382300336 -0.49859003551392034 3.3968049999821104
  endloop
endfacet
facet normal -0.6768746489110576 0.7360983016292949 -0.0
  outer loop
    vertex 15.03171382300336 -0.49859003551392034 3.3968049999821104
    vertex 16.376835340761822 0.7383081519431032 0.9628278799954127
    vertex 15.03171382300336 -0.49859003551392034 0.9628278799954127
  endloop
endfacet
facet normal -0.6768746489110576 0.7360983016292949 -0.0
  outer loop
    vertex 16.376835340761822 0.7383081519431032 0.9628278799954127
    vertex 15.03171382300336 -0.49859003551392034 3.3968049999821104
    vertex 16.376835340761822 0.7383081519431032 3.3968049999821104
  endloop
endfacet
facet normal -0.844326964072817 0.5358283099459937 -0.0
  outer loop
    vertex 17.35599014649521 2.2812031224710787 3.3968049999821104
    vertex 16.376835340761822 0.7383081519431032 0.9628278799954127
    vertex 16.376835340761822 0.7383081519431032 3.3968049999821104
  endloop
endfacet
facet normal -0.844326964072817 0.5358283099459937 -0.0
  outer loop
    vertex 16.376835340761822 0.7383081519431032 0.9628278799954127
    vertex 17.35599014649521 2.2812031224710787 3.3968049999821104
    vertex 17.35599014649521 2.2812031224710787 0.9628278799954127
  endloop
endfacet
facet normal -0.9542397919492958 0.2990425044380231 -0.0
  outer loop
    vertex 17.902450458322612 4.024949133583018 3.3968049999821104
    vertex 17.35599014649521 2.2812031224710787 0.9628278799954127
    vertex 17.35599014649521 2.2812031224710787 3.3968049999821104
  endloop
endfacet
facet normal -0.9542397919492958 0.2990425044380231 -0.0
  outer loop
    vertex 17.35599014649521 2.2812031224710787 0.9628278799954127
    vertex 17.902450458322612 4.024949133583018 3.3968049999821104
    vertex 17.902450458322612 4.024949133583018 0.9628278799954127
  endloop
endfacet
facet normal -0.9991227549602474 0.041877446443705814 -0.0
  outer loop
    vertex 17.952525637552263 5.219655479737991 3.3968049999821104
    vertex 17.902450458322612 4.024949133583018 0.9628278799954127
    vertex 17.902450458322612 4.024949133583018 3.3968049999821104
  endloop
endfacet
facet normal -0.9991227549602474 0.041877446443705814 -0.0
  outer loop
    vertex 17.902450458322612 4.024949133583018 0.9628278799954127
    vertex 17.952525637552263 5.219655479737991 3.3968049999821104
    vertex 17.952525637552263 5.219655479737991 0.9628278799954127
  endloop
endfacet
facet normal -0.9991227549602478 0.041877446443699125 -0.0
  outer loop
    vertex 17.97897590906135 5.850712776298179 3.3968049999821104
    vertex 17.952525637552263 5.219655479737991 0.9628278799954127
    vertex 17.952525637552263 5.219655479737991 3.3968049999821104
  endloop
endfacet
facet normal -0.9991227549602478 0.041877446443699125 -0.0
  outer loop
    vertex 17.952525637552263 5.219655479737991 0.9628278799954127
    vertex 17.97897590906135 5.850712776298179 3.3968049999821104
    vertex 17.97897590906135 5.850712776298179 0.9628278799954127
  endloop
endfacet
facet normal -0.9759171533490792 -0.21814149031999883 -0.0
  outer loop
    vertex 17.580351415707877 7.634071275582606 3.3968049999821104
    vertex 17.97897590906135 5.850712776298179 0.9628278799954127
    vertex 17.97897590906135 5.850712776298179 3.3968049999821104
  endloop
endfacet
facet normal -0.9759171533490792 -0.21814149031999883 -0.0
  outer loop
    vertex 17.97897590906135 5.850712776298179 0.9628278799954127
    vertex 17.580351415707877 7.634071275582606 3.3968049999821104
    vertex 17.580351415707877 7.634071275582606 0.9628278799954127
  endloop
endfacet
facet normal -0.8862044105165211 -0.46329444501425404 -0.0
  outer loop
    vertex 16.733742578726098 9.253491696849325 3.3968049999821104
    vertex 17.580351415707877 7.634071275582606 0.9628278799954127
    vertex 17.580351415707877 7.634071275582606 3.3968049999821104
  endloop
endfacet
facet normal -0.8862044105165211 -0.46329444501425404 -0.0
  outer loop
    vertex 17.580351415707877 7.634071275582606 0.9628278799954127
    vertex 16.733742578726098 9.253491696849325 3.3968049999821104
    vertex 16.733742578726098 9.253491696849325 0.9628278799954127
  endloop
endfacet
facet normal -0.736098301629296 -0.6768746489110564 -0.0
  outer loop
    vertex 15.496844391269077 10.598613214607791 3.3968049999821104
    vertex 16.733742578726098 9.253491696849325 0.9628278799954127
    vertex 16.733742578726098 9.253491696849325 3.3968049999821104
  endloop
endfacet
facet normal -0.736098301629296 -0.6768746489110564 -0.0
  outer loop
    vertex 16.733742578726098 9.253491696849325 0.9628278799954127
    vertex 15.496844391269077 10.598613214607791 3.3968049999821104
    vertex 15.496844391269077 10.598613214607791 0.9628278799954127
  endloop
endfacet
facet normal -0.5358283099459937 -0.844326964072817 -0.0
  outer loop
    vertex 15.496844391269077 10.598613214607791 3.3968049999821104
    vertex 13.953949420741102 11.577768020341177 0.9628278799954127
    vertex 15.496844391269077 10.598613214607791 0.9628278799954127
  endloop
endfacet
facet normal -0.5358283099459937 -0.844326964072817 -0.0
  outer loop
    vertex 13.953949420741102 11.577768020341177 0.9628278799954127
    vertex 15.496844391269077 10.598613214607791 3.3968049999821104
    vertex 13.953949420741102 11.577768020341177 3.3968049999821104
  endloop
endfacet
facet normal -0.29904250443802083 -0.9542397919492964 -0.0
  outer loop
    vertex 13.953949420741102 11.577768020341177 3.3968049999821104
    vertex 12.210203409629155 12.124228332168576 0.9628278799954127
    vertex 13.953949420741102 11.577768020341177 0.9628278799954127
  endloop
endfacet
facet normal -0.29904250443802083 -0.9542397919492964 -0.0
  outer loop
    vertex 12.210203409629155 12.124228332168576 0.9628278799954127
    vertex 13.953949420741102 11.577768020341177 3.3968049999821104
    vertex 12.210203409629155 12.124228332168576 3.3968049999821104
  endloop
endfacet
facet normal -0.041877446443704364 -0.9991227549602475 -0.0
  outer loop
    vertex 12.210203409629155 12.124228332168576 3.3968049999821104
    vertex 11.006687334683102 12.17467276426911 0.9628278799954127
    vertex 12.210203409629155 12.124228332168576 0.9628278799954127
  endloop
endfacet
facet normal -0.041877446443704364 -0.9991227549602475 -0.0
  outer loop
    vertex 11.006687334683102 12.17467276426911 0.9628278799954127
    vertex 12.210203409629155 12.124228332168576 3.3968049999821104
    vertex 11.006687334683102 12.17467276426911 3.3968049999821104
  endloop
endfacet
facet normal -0.041877446443706355 -0.9991227549602475 -0.0
  outer loop
    vertex 11.006687334683102 12.17467276426911 3.3968049999821104
    vertex 10.384439766913994 12.20075378290732 0.9628278799954127
    vertex 11.006687334683102 12.17467276426911 0.9628278799954127
  endloop
endfacet
facet normal -0.041877446443706355 -0.9991227549602475 -0.0
  outer loop
    vertex 10.384439766913994 12.20075378290732 0.9628278799954127
    vertex 11.006687334683102 12.17467276426911 3.3968049999821104
    vertex 10.384439766913994 12.20075378290732 3.3968049999821104
  endloop
endfacet
facet normal 0.21814149032000027 -0.9759171533490789 -0.0
  outer loop
    vertex 10.384439766913994 12.20075378290732 3.3968049999821104
    vertex 8.601081267629567 11.802129289553843 0.9628278799954127
    vertex 10.384439766913994 12.20075378290732 0.9628278799954127
  endloop
endfacet
facet normal 0.21814149032000027 -0.9759171533490789 -0.0
  outer loop
    vertex 8.601081267629567 11.802129289553843 0.9628278799954127
    vertex 10.384439766913994 12.20075378290732 3.3968049999821104
    vertex 8.601081267629567 11.802129289553843 3.3968049999821104
  endloop
endfacet
facet normal 0.46329444501425526 -0.8862044105165204 -0.0
  outer loop
    vertex 8.601081267629567 11.802129289553843 3.3968049999821104
    vertex 6.981660846362849 10.955520452572062 0.9628278799954127
    vertex 8.601081267629567 11.802129289553843 0.9628278799954127
  endloop
endfacet
facet normal 0.46329444501425526 -0.8862044105165204 -0.0
  outer loop
    vertex 6.981660846362849 10.955520452572062 0.9628278799954127
    vertex 8.601081267629567 11.802129289553843 3.3968049999821104
    vertex 6.981660846362849 10.955520452572062 3.3968049999821104
  endloop
endfacet
facet normal 0.6768746489110564 -0.736098301629296 -0.0
  outer loop
    vertex 6.981660846362849 10.955520452572062 3.3968049999821104
    vertex 5.636539328604386 9.718622265115043 0.9628278799954127
    vertex 6.981660846362849 10.955520452572062 0.9628278799954127
  endloop
endfacet
facet normal 0.6768746489110564 -0.736098301629296 -0.0
  outer loop
    vertex 5.636539328604386 9.718622265115043 0.9628278799954127
    vertex 6.981660846362849 10.955520452572062 3.3968049999821104
    vertex 5.636539328604386 9.718622265115043 3.3968049999821104
  endloop
endfacet
facet normal -0.0 -1.0 -0.0
  outer loop
    vertex 5.636539328604386 9.718622265115043 3.3968049999821104
    vertex 1.6195438829063746 9.718622265115043 0.9628278799954127
    vertex 5.636539328604386 9.718622265115043 0.9628278799954127
  endloop
endfacet
facet normal -0.0 -1.0 -0.0
  outer loop
    vertex 1.6195438829063746 9.718622265115043 0.9628278799954127
    vertex 5.636539328604386 9.718622265115043 3.3968049999821104
    vertex 1.6195438829063746 9.718622265115043 3.3968049999821104
  endloop
endfacet
facet normal -1.0 0.0 -0.0
  outer loop
    vertex 1.6195438829063746 18.095428265115046 3.3968049999821104
    vertex 1.6195438829063746 9.718622265115043 0.9628278799954127
    vertex 1.6195438829063746 9.718622265115043 3.3968049999821104
  endloop
endfacet
facet normal -1.0 0.0 -0.0
  outer loop
    vertex 1.6195438829063746 9.718622265115043 0.9628278799954127
    vertex 1.6195438829063746 18.095428265115046 3.3968049999821104
    vertex 1.6195438829063746 18.095428265115046 0.9628278799954127
  endloop
endfacet
facet normal -0.0 -1.0 -0.0
  outer loop
    vertex 1.6195438829063746 18.095428265115046 3.3968049999821104
    vertex -3.717319562791637 18.095428265115046 0.9628278799954127
    vertex 1.6195438829063746 18.095428265115046 0.9628278799954127
  endloop
endfacet
facet normal -0.0 -1.0 -0.0
  outer loop
    vertex -3.717319562791637 18.095428265115046 0.9628278799954127
    vertex 1.6195438829063746 18.095428265115046 3.3968049999821104
    vertex -3.717319562791637 18.095428265115046 3.3968049999821104
  endloop
endfacet
facet normal 1.0 0.0 0.0
  outer loop
    vertex -3.717319562791637 18.095428265115046 0.9628278799954127
    vertex -3.717319562791637 -6.88705727979118 3.3968049999821104
    vertex -3.717319562791637 -6.88705727979118 0.9628278799954127
  endloop
endfacet
facet normal 1.0 0.0 0.0
  outer loop
    vertex -3.717319562791637 -6.88705727979118 3.3968049999821104
    vertex -3.717319562791637 18.095428265115046 0.9628278799954127
    vertex -3.717319562791637 18.095428265115046 3.3968049999821104
  endloop
endfacet
facet normal 5.28393973584062e-16 1.0 0.0
  outer loop
    vertex -3.717319562791637 -6.88705727979118 3.3968049999821104
    vertex 1.6195438829063677 -6.887057279791183 0.9628278799954127
    vertex -3.717319562791637 -6.88705727979118 0.9628278799954127
  endloop
endfacet
facet normal 5.28393973584062e-16 1.0 0.0
  outer loop
    vertex 1.6195438829063677 -6.887057279791183 0.9628278799954127
    vertex -3.717319562791637 -6.88705727979118 3.3968049999821104
    vertex 1.6195438829063677 -6.887057279791183 3.3968049999821104
  endloop
endfacet
facet normal -1.0 3.4855297901981505e-16 -0.0
  outer loop
    vertex 1.6195438829063704 1.2034387202088175 3.3968049999821104
    vertex 1.6195438829063677 -6.887057279791183 0.9628278799954127
    vertex 1.6195438829063677 -6.887057279791183 3.3968049999821104
  endloop
endfacet
facet normal -1.0 3.4855297901981505e-16 -0.0
  outer loop
    vertex 1.6195438829063677 -6.887057279791183 0.9628278799954127
    vertex 1.6195438829063704 1.2034387202088175 3.3968049999821104
    vertex 1.6195438829063704 1.2034387202088175 0.9628278799954127
  endloop
endfacet
facet normal 0.9999949346909338 -0.003182501375670351 -4.77228342697115e-05
  outer loop
    vertex 2.9440993282114527 -2.8297899071865524 0.9628278799954127
    vertex 2.9261250247428308 -8.56144094124036 3.396495151326949
    vertex 2.9257063178314895 -8.566975878615096 0.9625180313402514
  endloop
endfacet
facet normal 0.9999949346909338 -0.003182501375670351 -4.77228342697115e-05
  outer loop
    vertex 2.9261250247428308 -8.56144094124036 3.396495151326949
    vertex 2.9440993282114527 -2.8297899071865524 0.9628278799954127
    vertex 2.9440972003548262 -2.829792624024798 3.3968049999821104
  endloop
endfacet
facet normal 0.7020350582487069 0.7121423853339036 8.202246876846195e-07
  outer loop
    vertex 2.9440972003548262 13.263252535789738 3.3968049999821104
    vertex 4.020048513544696 12.2025768482032 0.9628278799954127
    vertex 2.9440993282114527 13.263255252627982 0.9628278799954127
  endloop
endfacet
facet normal 0.7020350582487069 0.7121423853339036 8.202246876846195e-07
  outer loop
    vertex 4.020048513544696 12.2025768482032 0.9628278799954127
    vertex 2.9440972003548262 13.263252535789738 3.3968049999821104
    vertex 4.020046385688069 12.202574131364957 3.3968049999821104
  endloop
endfacet
facet normal 0.00014847391429088545 0.9999999889775372 6.500242833813781e-07
  outer loop
    vertex -4.963909984358306 19.155503078234716 0.9634046241958089
    vertex 2.944074814102978 19.15432623198519 3.3968049999821104
    vertex 2.9440769419596045 19.154328948823437 0.9628278799954127
  endloop
endfacet
facet normal 0.00014847391429088545 0.9999999889775372 6.500242833813781e-07
  outer loop
    vertex 2.944074814102978 19.15432623198519 3.3968049999821104
    vertex -4.963909984358306 19.155503078234716 0.9634046241958089
    vertex -4.963912112214933 19.155500361396474 3.3973817441825065
  endloop
endfacet
facet normal 0.13052619222015976 -0.9914448613736279 -5.779443758458607e-07
  outer loop
    vertex 13.563975409135892 -4.327995841077901 3.3968049999821104
    vertex 11.00668946253973 -4.664666486291824 0.9628278799954127
    vertex 13.563977536992521 -4.327993124239655 0.9628278799954127
  endloop
endfacet
facet normal 0.13052619222015976 -0.9914448613736279 -5.779443758458607e-07
  outer loop
    vertex 11.00668946253973 -4.664666486291824 0.9628278799954127
    vertex 13.563975409135892 -4.327995841077901 3.3968049999821104
    vertex 11.006687334683102 -4.664669203130071 3.3968049999821104
  endloop
endfacet
facet normal -0.3826834323647905 -0.9238795325110686 -7.952780675475559e-07
  outer loop
    vertex 8.44939926023029 -4.3279958410778985 3.3968049999821104
    vertex 6.066388269789725 -3.3409167713279477 0.9628278799954127
    vertex 8.44940138808692 -4.3279931242396525 0.9628278799954127
  endloop
endfacet
facet normal -0.3826834323647905 -0.9238795325110686 -7.952780675475559e-07
  outer loop
    vertex 6.066388269789725 -3.3409167713279477 0.9628278799954127
    vertex 8.44939926023029 -4.3279958410778985 3.3968049999821104
    vertex 6.066386141933098 -3.340919488166193 3.3968049999821104
  endloop
endfacet
facet normal -0.13052619221985634 -0.9914448613735813 -7.108322431322347e-07
  outer loop
    vertex 11.006687334683102 -4.664669203130071 3.3968049999821104
    vertex 8.44940138808692 -4.3279931242396525 0.9628278799954127
    vertex 11.00668946253973 -4.664666486291824 0.9628278799954127
  endloop
endfacet
facet normal -0.13052619221985634 -0.9914448613735813 -7.108322431322347e-07
  outer loop
    vertex 8.44940138808692 -4.3279931242396525 0.9628278799954127
    vertex 11.006687334683102 -4.664669203130071 3.3968049999821104
    vertex 8.44939926023029 -4.3279958410778985 3.3968049999821104
  endloop
endfacet
facet normal -0.13052619222016107 0.9914448613736276 5.779443754227994e-07
  outer loop
    vertex 8.449399260230303 14.759862205817754 3.3968049999821104
    vertex 11.00668946253973 15.096538284708172 0.9628278799954127
    vertex 8.449401388086931 14.759864922655998 0.9628278799954127
  endloop
endfacet
facet normal -0.13052619222016107 0.9914448613736276 5.779443754227994e-07
  outer loop
    vertex 11.00668946253973 15.096538284708172 0.9628278799954127
    vertex 8.449399260230303 14.759862205817754 3.3968049999821104
    vertex 11.006687334683102 15.096535567869928 3.3968049999821104
  endloop
endfacet
facet normal 0.3826834323651515 -0.923879532511172 -4.0567055449940904e-07
  outer loop
    vertex 15.9469885274331 -3.3409194881661946 3.3968049999821104
    vertex 13.563977536992521 -4.327993124239655 0.9628278799954127
    vertex 15.946990655289724 -3.340916771327949 0.9628278799954127
  endloop
endfacet
facet normal 0.3826834323651515 -0.923879532511172 -4.0567055449940904e-07
  outer loop
    vertex 13.563977536992521 -4.327993124239655 0.9628278799954127
    vertex 15.9469885274331 -3.3409194881661946 3.3968049999821104
    vertex 13.563975409135892 -4.327995841077901 3.3968049999821104
  endloop
endfacet
facet normal 0.6087614290087541 -0.7933533402911831 -2.057509555159716e-07
  outer loop
    vertex 17.993328283678125 -1.7707077666251003 3.3968049999821104
    vertex 15.946990655289724 -3.340916771327949 0.9628278799954127
    vertex 17.99333041153475 -1.7707050497868548 0.9628278799954127
  endloop
endfacet
facet normal 0.6087614290087541 -0.7933533402911831 -2.057509555159716e-07
  outer loop
    vertex 15.946990655289724 -3.340916771327949 0.9628278799954127
    vertex 17.993328283678125 -1.7707077666251003 3.3968049999821104
    vertex 15.9469885274331 -3.3409194881661946 3.3968049999821104
  endloop
endfacet
facet normal 0.9914448613736606 0.13052619221985856 5.895271120479193e-07
  outer loop
    vertex 20.887291848039727 5.215935899208178 0.9628278799954127
    vertex 20.550616358130927 7.773221256822725 3.3968049999821104
    vertex 20.8872897201831 5.215933182369929 3.3968049999821104
  endloop
endfacet
facet normal 0.9914448613736606 0.13052619221985856 5.895271120479193e-07
  outer loop
    vertex 20.550616358130927 7.773221256822725 3.3968049999821104
    vertex 20.887291848039727 5.215935899208178 0.9628278799954127
    vertex 20.550618485987552 7.773223973660975 0.9628278799954127
  endloop
endfacet
facet normal 0.7933533402911603 0.6087614290082931 7.995176428766264e-07
  outer loop
    vertex 19.563542133075842 10.156237091958175 0.9628278799954127
    vertex 17.993328283678125 12.202574131364957 3.3968049999821104
    vertex 19.563540005219213 10.156234375119931 3.3968049999821104
  endloop
endfacet
facet normal 0.7933533402911603 0.6087614290082931 7.995176428766264e-07
  outer loop
    vertex 17.993328283678125 12.202574131364957 3.3968049999821104
    vertex 19.563542133075842 10.156237091958175 0.9628278799954127
    vertex 17.99333041153475 12.2025768482032 0.9628278799954127
  endloop
endfacet
facet normal 0.3826834323647904 0.9238795325110686 7.952780672413807e-07
  outer loop
    vertex 13.563975409135898 14.759862205817754 3.3968049999821104
    vertex 15.946990655289724 13.772788569744291 0.9628278799954127
    vertex 13.563977536992528 14.759864922655998 0.9628278799954127
  endloop
endfacet
facet normal 0.3826834323647904 0.9238795325110686 7.952780672413807e-07
  outer loop
    vertex 15.946990655289724 13.772788569744291 0.9628278799954127
    vertex 13.563975409135898 14.759862205817754 3.3968049999821104
    vertex 15.9469885274331 13.772785852906047 3.3968049999821104
  endloop
endfacet
facet normal 0.6087614290083246 0.7933533402911096 8.255270055619325e-07
  outer loop
    vertex 15.9469885274331 13.772785852906047 3.3968049999821104
    vertex 17.99333041153475 12.2025768482032 0.9628278799954127
    vertex 15.946990655289724 13.772788569744291 0.9628278799954127
  endloop
endfacet
facet normal 0.6087614290083246 0.7933533402911096 8.255270055619325e-07
  outer loop
    vertex 17.99333041153475 12.2025768482032 0.9628278799954127
    vertex 15.9469885274331 13.772785852906047 3.3968049999821104
    vertex 17.993328283678125 12.202574131364957 3.3968049999821104
  endloop
endfacet
facet normal 0.7933533402912347 -0.6087614290087213 8.190231233693613e-09
  outer loop
    vertex 17.99333041153475 -1.7707050497868548 0.9628278799954127
    vertex 19.563540005219213 0.27563198961992746 3.3968049999821104
    vertex 17.993328283678125 -1.7707077666251003 3.3968049999821104
  endloop
endfacet
facet normal 0.7933533402912347 -0.6087614290087213 8.190231233693613e-09
  outer loop
    vertex 19.563540005219213 0.27563198961992746 3.3968049999821104
    vertex 17.99333041153475 -1.7707050497868548 0.9628278799954127
    vertex 19.563542133075842 0.27563470645817295 0.9628278799954127
  endloop
endfacet
facet normal 0.9238795325111329 0.38268343236478614 7.190224743177135e-07
  outer loop
    vertex 20.550618485987552 7.773223973660975 0.9628278799954127
    vertex 19.563540005219213 10.156234375119931 3.3968049999821104
    vertex 20.550616358130927 7.773221256822725 3.3968049999821104
  endloop
endfacet
facet normal 0.9238795325111329 0.38268343236478614 7.190224743177135e-07
  outer loop
    vertex 19.563540005219213 10.156234375119931 3.3968049999821104
    vertex 20.550618485987552 7.773223973660975 0.9628278799954127
    vertex 19.563542133075842 10.156237091958175 0.9628278799954127
  endloop
endfacet
facet normal 0.13052619221985773 0.9914448613735811 7.108322427167278e-07
  outer loop
    vertex 11.006687334683102 15.096535567869928 3.3968049999821104
    vertex 13.563977536992528 14.759864922655998 0.9628278799954127
    vertex 11.00668946253973 15.096538284708172 0.9628278799954127
  endloop
endfacet
facet normal 0.13052619221985773 0.9914448613735811 7.108322427167278e-07
  outer loop
    vertex 13.563977536992528 14.759864922655998 0.9628278799954127
    vertex 11.006687334683102 15.096535567869928 3.3968049999821104
    vertex 13.563975409135898 14.759862205817754 3.3968049999821104
  endloop
endfacet
facet normal -0.6087614290087525 0.7933533402911843 2.0575095524240722e-07
  outer loop
    vertex 4.020046385688069 12.202574131364957 3.3968049999821104
    vertex 6.066388269789725 13.772788569744291 0.9628278799954127
    vertex 4.020048513544696 12.2025768482032 0.9628278799954127
  endloop
endfacet
facet normal -0.6087614290087525 0.7933533402911843 2.0575095524240722e-07
  outer loop
    vertex 6.066388269789725 13.772788569744291 0.9628278799954127
    vertex 4.020046385688069 12.202574131364957 3.3968049999821104
    vertex 6.066386141933098 13.772785852906047 3.3968049999821104
  endloop
endfacet
facet normal -0.6087614290083267 -0.7933533402911082 -8.255270058237233e-07
  outer loop
    vertex 6.066386141933098 -3.340919488166193 3.3968049999821104
    vertex 4.020048513544696 -1.7707050497868464 0.9628278799954127
    vertex 6.066388269789725 -3.3409167713279477 0.9628278799954127
  endloop
endfacet
facet normal -0.6087614290083267 -0.7933533402911082 -8.255270058237233e-07
  outer loop
    vertex 4.020048513544696 -1.7707050497868464 0.9628278799954127
    vertex 6.066386141933098 -3.340919488166193 3.3968049999821104
    vertex 4.020046385688069 -1.7707077666250919 3.3968049999821104
  endloop
endfacet
facet normal 0.991444861373707 -0.1305261922201615 4.1985645117610137e-07
  outer loop
    vertex 20.550618485987552 2.6586478247553704 0.9628278799954127
    vertex 20.8872897201831 5.215933182369929 3.3968049999821104
    vertex 20.550616358130927 2.6586451079171263 3.3968049999821104
  endloop
endfacet
facet normal 0.991444861373707 -0.1305261922201615 4.1985645117610137e-07
  outer loop
    vertex 20.8872897201831 5.215933182369929 3.3968049999821104
    vertex 20.550618485987552 2.6586478247553704 0.9628278799954127
    vertex 20.887291848039727 5.215935899208178 0.9628278799954127
  endloop
endfacet
facet normal -0.3826834323651512 0.9238795325111723 4.056705541863782e-07
  outer loop
    vertex 6.066386141933098 13.772785852906047 3.3968049999821104
    vertex 8.449401388086931 14.759864922655998 0.9628278799954127
    vertex 6.066388269789725 13.772788569744291 0.9628278799954127
  endloop
endfacet
facet normal -0.3826834323651512 0.9238795325111723 4.056705541863782e-07
  outer loop
    vertex 8.449401388086931 14.759864922655998 0.9628278799954127
    vertex 6.066386141933098 13.772785852906047 3.3968049999821104
    vertex 8.449399260230303 14.759862205817754 3.3968049999821104
  endloop
endfacet
facet normal 0.9238795325112359 -0.38268343236514846 2.215732672896608e-07
  outer loop
    vertex 19.563542133075842 0.27563470645817295 0.9628278799954127
    vertex 20.550616358130927 2.6586451079171263 3.3968049999821104
    vertex 19.563540005219213 0.27563198961992746 3.3968049999821104
  endloop
endfacet
facet normal 0.9238795325112359 -0.38268343236514846 2.215732672896608e-07
  outer loop
    vertex 20.550616358130927 2.6586451079171263 3.3968049999821104
    vertex 19.563542133075842 0.27563470645817295 0.9628278799954127
    vertex 20.550618485987552 2.6586478247553704 0.9628278799954127
  endloop
endfacet
endsolid Rest_cover_thinned
